<svg width="74" height="252" viewBox="0 0 74 252" fill="none" xmlns="http://www.w3.org/2000/svg">
<path d="M53.7042 39.1612C53.5638 34.689 52.9787 30.1282 52.0757 25.7227C51.3894 22.623 50.5079 19.3834 48.8531 16.6629C48.1521 15.5467 47.3681 14.4476 46.3093 13.7651C46.1141 13.6252 45.8214 13.4153 45.5431 13.2924C45.2649 13.1696 44.7372 13.098 45.5431 13.2924C45.5431 13.2924 45.3624 13.2396 45.2793 13.2567C45.113 13.2908 45.0335 13.8473 44.9792 14.0385C43.5513 18.3831 44.5266 23.2238 46.4669 27.1459C46.438 26.9718 45.7441 26.9344 45.549 26.7945C43.8181 25.1699 41.8522 23.6835 39.9153 22.3713C39.1492 21.8987 38.3831 21.4261 37.5339 20.9705C37.1581 20.7777 36.6847 20.5149 36.2258 20.3392C36.1427 20.3563 36.0451 20.2863 35.9475 20.2164L35.7813 20.2505C35.8644 20.2334 35.8644 20.2334 35.7668 20.1635C35.503 20.1277 35.3079 19.9878 35.0441 19.952C34.3213 19.7405 33.5443 19.7202 32.7818 19.7869C32.5324 19.8382 32.1024 19.8366 31.9506 19.9578C31.7445 20.2702 31.7626 20.8967 31.7372 21.262C31.7154 22.1667 31.9575 23.1071 32.1995 24.0476C33.7386 28.1423 37.3233 31.0962 40.5719 33.5791C40.8646 33.789 40.6008 33.7532 40.337 33.7174C40.0045 33.7858 39.5889 33.8712 39.2419 33.8525C37.9807 34.0218 36.7194 34.1911 35.4726 34.4474C34.2257 34.7037 32.6465 35.0284 31.2912 35.6671C30.2395 36.0634 29.0505 36.6679 28.3493 37.6223C27.7855 38.3683 27.7094 39.4642 28.1864 40.2664C28.4104 40.5804 28.7176 40.8773 28.9958 41.0002C28.9958 41.0002 29.5668 41.3329 29.6499 41.3158C29.6499 41.3158 29.0102 41.0872 29.2885 41.2101C29.2885 41.2101 29.4548 41.1759 29.4692 41.2629C29.6355 41.2288 29.7475 41.3858 29.9137 41.3516C32.6783 41.9535 35.5766 41.8078 38.3629 41.505C43.3682 41.1061 48.4676 40.2378 53.3573 39.1425L53.6067 39.0913C53.8561 39.04 54.2752 39.494 54.5246 39.4427C49.9673 40.4696 45.2981 41.3395 40.6398 41.7571C37.604 42.1111 34.4563 42.3082 31.4568 41.8446C30.4015 41.7014 29.3174 41.3842 28.3706 40.8587C27.6189 40.4731 26.9902 39.7921 26.9289 38.9045C26.8242 37.7558 27.6374 36.9584 28.4795 36.3352C29.7227 35.5395 31.1069 35.0749 32.4911 34.6103C34.7896 33.9577 37.2291 33.6362 39.6685 33.3147L39.8347 33.2805C39.8347 33.2805 38.6638 32.441 38.5518 32.284C37.4641 31.4273 36.362 30.4836 35.3286 29.4358C33.9879 28.091 32.7016 26.555 31.8019 24.7595C31.0432 23.2951 30.3784 21.3613 30.9496 19.6235C30.9496 19.6235 30.9206 19.4494 31.0869 19.4152C31.2242 19.2069 32.0013 19.2272 32.1675 19.193C32.5831 19.1076 32.9444 19.2134 33.3745 19.215C34.9573 19.4297 36.5293 20.0968 37.935 20.798C40.8296 22.1834 43.576 24.2294 46.0043 26.4308C46.1995 26.5707 46.3115 26.7277 46.4091 26.7977L45.4912 26.4463C43.5654 22.6112 42.6334 18.0316 43.8951 13.7213C44.018 13.4259 44.0145 12.8865 44.2349 12.6612C44.3867 12.5399 44.235 12.6612 44.4012 12.627C44.5675 12.5928 45.0408 12.8556 45.2215 12.9085C46.4176 13.3827 47.3789 13.9953 48.3148 14.9732C50.342 17.3471 51.4873 20.6225 52.2423 23.618C53.1237 26.8576 53.604 30.2697 53.9867 33.6118C54.207 35.457 54.3441 37.3193 54.3837 39.1116C54.3692 39.0245 53.4947 38.9343 53.4658 38.7602L53.7042 39.1612Z" fill="#CB8587" fill-opacity="0.2"/>
<path d="M53.3531 39.1482C53.2235 34.2243 52.5808 29.3158 51.4394 24.5098C50.8976 22.2809 50.1897 20.0862 49.1637 18.0468C48.6579 17.0707 48.0545 16.0246 47.3138 15.1867C46.7827 14.5758 45.9445 13.668 45.07 13.5778L45.2182 12.9172C45.3013 12.9001 45.482 12.953 45.5795 13.023L45.4314 13.6835C45.4314 13.6835 44.8385 16.3257 44.7987 16.6039C44.6685 17.8908 44.6214 19.1607 44.8236 20.3793C45.1305 22.7465 45.8385 24.9412 46.879 27.0676C47.0199 27.3987 46.6332 27.6582 46.4381 27.5183C46.243 27.3783 45.813 27.3767 45.6179 27.2368C45.2276 26.957 44.8085 26.5031 44.4182 26.2233C43.5258 25.5067 42.6333 24.79 41.7409 24.0734C39.8873 22.7443 37.9505 21.4322 35.7536 20.6237L35.9994 20.0331L36.0825 20.016C36.4583 20.2088 36.2126 20.7994 35.8513 20.6937C34.8648 20.4464 33.9614 20.1821 32.9496 20.3001C31.9378 20.4181 32.1111 21.4626 32.1725 22.3501C32.3782 24.108 33.2634 25.8162 34.2714 27.2292C35.1819 28.5722 36.3129 29.6899 37.5269 30.7905C38.7409 31.891 39.9947 32.7134 41.1111 33.744C41.2231 33.901 41.3351 34.058 41.1834 34.1793C41.046 34.3875 40.9485 34.3175 40.6992 34.3688C39.9511 34.5226 39.0911 34.5194 38.3431 34.6732C36.7495 34.9108 35.1704 35.2354 33.6057 35.6471C32.1241 36.0417 30.4076 36.5746 29.291 37.6143C27.8707 38.8964 28.2716 40.7942 29.9121 41.357L29.6663 41.9477C29.4856 41.8948 29.3881 41.8248 29.2074 41.7719C28.8461 41.6662 29.0088 41.0927 29.3557 41.1114C30.147 41.2187 30.8841 41.5173 31.7441 41.5205C32.8824 41.6465 34.0062 41.6855 35.0324 41.6546C37.4318 41.6113 39.7878 41.307 42.1438 41.0027C44.4998 40.6983 46.7584 40.324 49.0168 39.9497C50.2635 39.6934 51.4271 39.4542 52.6738 39.1979C53.0063 39.1295 53.4904 38.94 53.8373 38.9587C54.1842 38.9774 54.3938 39.2043 54.7551 39.3101C55.1164 39.4158 55.1056 39.8681 54.8562 39.9194C51.3655 40.637 47.9579 41.3375 44.4238 41.7941C41.2367 42.2693 37.952 42.6745 34.7613 42.6104C33.2906 42.5527 31.8055 42.408 30.4577 42.055C29.3736 41.7378 28.0258 41.3848 27.4224 40.3387C25.952 38.2107 28.2973 36.2884 30.0536 35.4772C33.3312 33.9933 36.8111 33.728 40.2475 33.2015L40.0848 33.775C39.3442 32.9372 38.2168 32.3588 37.4075 31.6251C36.1935 30.5245 34.965 29.3369 33.8883 28.0281C32.8116 26.7192 31.8867 25.2892 31.3629 23.6866C31.0089 22.5893 30.6514 20.9526 31.1429 19.7714C31.5116 18.8855 32.6643 19.0986 33.4412 19.1189C35.1757 19.2124 36.9281 19.9322 38.5144 20.6862C41.6038 22.2114 44.4618 24.4141 47.0849 26.7552C47.2945 26.9821 47.2006 27.4515 46.8392 27.3458C46.2972 27.1872 46.0334 27.1514 45.6974 26.6804C45.3469 26.1224 45.0363 25.2861 44.8376 24.6069C44.3571 23.2655 43.9453 21.82 43.7829 20.3232C43.6204 18.8264 43.57 17.4866 43.7689 16.0955C43.834 15.4521 43.9822 14.7915 44.1304 14.131C44.2388 13.7487 44.2642 13.3834 44.3871 13.0881C44.4413 12.8969 44.5353 12.4275 44.6075 12.8627C44.5787 12.6887 44.716 12.4804 44.8822 12.4462C45.5471 12.3095 46.4107 12.8521 46.9816 13.1848C48.0113 13.6932 48.8207 14.4269 49.4927 15.3689C51.0174 17.3057 52.0037 19.6232 52.6575 22.0091C54.3588 27.6001 55.1749 33.5531 55.3803 39.4516C55.4381 39.7997 55.008 39.7981 54.7984 39.5712C54.5889 39.3442 54.1878 39.5167 53.8806 39.2198C53.5735 38.9229 54.0976 38.4551 54.4047 38.752C54.6143 38.979 55.0298 38.8935 55.3225 39.1034L54.7407 39.223C54.5822 34.125 53.8817 28.8683 52.6139 23.8183C52.0721 21.5894 51.3641 19.3947 50.2694 17.4595C49.6516 16.3263 48.8821 15.3144 47.9751 14.5107C47.5705 14.1438 46.9996 13.8112 46.4431 13.5655C46.0674 13.3727 45.3989 12.9701 45.0664 13.0384L45.3411 12.6219C45.37 12.796 45.2869 12.8131 45.2182 12.9172C44.9869 13.5949 44.77 14.3595 44.6362 15.1071C44.3542 16.5153 44.3215 17.8722 44.4695 19.2819C44.6176 20.6916 44.903 21.8931 45.2859 23.1646C45.6688 24.436 46.0118 25.9857 47.2765 26.3558L47.0307 26.9464C44.7978 24.8851 42.4276 23.0321 39.8802 21.6656C38.4602 20.8774 37.0545 20.1762 35.5261 19.7704C34.7058 19.489 33.8314 19.3987 32.9713 19.3955C32.8051 19.4297 32.2776 19.3581 32.1258 19.4793C31.9595 19.5135 31.9234 20.331 31.9523 20.5051C31.681 23.5312 34.0728 26.55 35.9444 28.5055C37.0753 29.6231 38.2062 30.7408 39.4889 31.7373C39.9767 32.087 40.5476 32.4197 40.9667 32.8736C41.1618 33.0135 41.0533 33.3959 40.804 33.4471C37.4506 33.9565 33.9563 34.1348 30.7763 35.6887C29.4212 36.3273 27.0324 37.9886 28.6113 39.7342C29.7711 41.026 32.1308 41.2609 33.6991 41.3886C37.1969 41.7496 40.8141 41.276 44.3481 40.8195C48.0484 40.3288 51.7198 39.6641 55.3623 38.8252L55.4634 39.4345C55.1165 39.4158 54.8238 39.2059 54.56 39.1701C54.0325 39.0986 53.4796 39.3923 52.8978 39.5119C51.6511 39.7682 50.4875 40.0074 49.2408 40.2637C46.9137 40.7421 44.4745 41.0636 42.1185 41.3679C40.0118 41.621 37.9737 41.7699 35.8381 41.8489C34.7288 41.897 33.605 41.858 32.5499 41.7149C31.6755 41.6246 30.8552 41.3432 29.9807 41.2529L30.129 40.5923C30.2952 40.5582 30.4072 40.7152 30.5879 40.7681C30.9637 40.9608 30.7179 41.5514 30.3421 41.3587C29.3412 41.0244 28.4343 40.2207 28.3296 39.0721C28.1671 37.5753 29.3669 36.5185 30.4583 35.8441C32.1025 34.876 33.9996 34.3959 35.8281 34.02C36.9086 33.7979 37.989 33.5758 39.084 33.4407C39.5826 33.3382 40.0813 33.2357 40.5945 33.2202C40.7607 33.186 41.01 33.1348 41.1762 33.1006C41.3424 33.0664 41.4256 33.0493 41.1907 33.1876L41.2629 33.6228C39.8393 32.2953 38.1953 31.1931 36.7572 29.7785C35.3192 28.364 34.0186 26.7411 33.1046 24.8588C32.6963 23.9526 32.2592 22.8723 32.1834 21.8978C32.0679 21.2014 31.9776 20.1399 32.404 19.6021C32.7474 19.0815 33.3581 19.1359 33.8712 19.1205C34.8143 19.1066 35.7863 19.2668 36.6897 19.5312L36.4439 20.1218L36.3608 20.1388C35.985 19.9461 36.2163 19.2684 36.5921 19.4612C38.6228 20.3039 40.5306 21.4418 42.3842 22.771C43.2622 23.4006 44.1547 24.1172 45.0471 24.8339C45.4518 25.2007 45.9974 25.8987 46.5538 26.1443C46.832 26.2671 47.0814 26.2159 47.3741 26.4257L46.9332 26.8764C45.6398 24.2619 44.8162 21.3709 44.7407 18.3261C44.7769 17.5085 44.9075 12.081 46.3818 12.678C46.7431 12.7838 46.595 13.4443 46.2336 13.3386C46.0674 13.3727 45.8722 13.2328 45.6915 13.18C45.3302 13.0742 45.4929 12.5007 45.8398 12.5194C47.4225 12.7341 48.7665 14.6181 49.5649 15.8041C50.8547 17.8792 51.7434 20.1268 52.3972 22.5127C53.8746 27.7896 54.5354 33.3245 54.7661 38.8578C54.8383 39.293 54.1444 39.2556 54.1553 38.8033L53.3531 39.1482Z" fill="#CB8587" fill-opacity="0.2"/>
<path d="M46.5891 95.876C46.7665 93.3174 46.6656 90.6359 46.5103 88.1458C46.1745 83.5309 45.4483 78.6361 43.2972 74.4846C42.7766 73.4206 42.0896 72.3909 41.2653 71.5696C40.8603 71.2025 40.4554 70.8353 40.0505 70.4682C39.8552 70.3282 39.5623 70.1182 39.3815 70.0653C39.2839 69.9953 39.1031 69.9424 39.0055 69.8724C38.8247 69.8195 38.2678 69.5737 38.8247 69.8195L38.9911 69.7853C38.3835 70.2705 37.9857 70.9828 37.7542 71.6609C36.8391 73.9207 37.204 76.638 37.7606 78.9556C38.3751 81.6216 39.4054 84.202 40.5044 86.6783C40.4755 86.5041 39.7957 86.5538 39.586 86.3267C38.1868 84.6327 36.5524 83.0771 34.8495 81.6258C33.4538 80.4715 31.975 79.3343 30.3588 78.4056C29.9683 78.1256 29.509 77.9498 29.0498 77.774C29.0498 77.774 28.8691 77.7211 28.8546 77.634C28.5907 77.5981 28.3954 77.4582 28.1314 77.4223C27.4227 77.2978 26.6308 77.1904 25.8823 77.3443C21.2104 78.2147 29.1357 86.5836 30.1987 87.8062C31.7642 89.466 33.3298 91.1258 34.964 92.6813C34.964 92.6813 35.3545 92.9614 35.369 93.0485C35.369 93.0485 35.369 93.0485 35.2027 93.0827C34.371 93.2536 33.5104 93.2504 32.6642 93.3343C30.5561 93.5875 18.1567 95.0558 20.8647 99.4532C21.5516 100.483 22.6255 101.253 23.7391 101.745C23.9199 101.798 24.1151 101.938 24.3936 102.06C24.3936 102.06 24.8528 102.236 24.5889 102.2C24.3249 102.165 24.7696 102.253 24.7696 102.253C25.2288 102.429 25.7567 102.501 26.2159 102.677C27.2031 102.924 28.1613 102.997 29.2027 103.053C34.1457 103.298 39.0347 101.663 43.2078 98.8229C44.4374 97.9397 45.6525 96.9692 46.7555 95.8417C46.9074 95.7204 47.5076 96.2276 47.6739 96.1934C43.5223 100.199 38.2933 102.896 32.6885 103.328C29.1231 103.61 25.2324 102.969 22.1662 101.077C21.2189 100.551 20.1306 99.6942 19.8595 98.5789C19.6029 97.5508 20.1525 96.7172 20.912 96.1107C22.0583 95.2445 23.4434 94.7796 24.6764 94.436C26.2277 93.937 27.8224 93.6992 29.5002 93.4443C30.7477 93.1878 32.1074 93.0885 33.3694 92.9191C33.7021 92.8507 34.0347 92.7823 34.465 92.7839C34.5482 92.7668 34.6314 92.7497 34.6314 92.7497C34.617 92.6626 34.2264 92.3826 34.2264 92.3826C33.9191 92.0855 33.6262 91.8755 33.4021 91.5613C32.4801 90.6699 31.6413 89.7615 30.7193 88.8701C29.5732 87.6646 20.7981 78.8399 24.5769 77.2524C25.8643 76.7175 27.477 77.1065 28.757 77.5639C30.3986 78.1272 31.9028 78.8988 33.3527 79.8618C35.9596 81.5777 38.2229 83.8146 40.3344 86.1728C40.4465 86.3299 40.5586 86.487 40.6707 86.6441L39.7523 86.2925C38.5267 83.572 37.3554 80.6602 36.7808 77.7158C36.5061 76.0609 36.2171 74.3188 36.6223 72.6142C36.8248 71.7619 37.1106 70.8925 37.6747 70.146C37.8122 69.9376 38.1015 69.6078 38.351 69.5566C38.6005 69.5053 39.0886 69.8553 39.3526 69.8911C39.7142 69.9969 40.0903 70.1898 40.4663 70.3827C41.2184 70.7686 41.9162 71.3457 42.4621 72.0441C43.7204 73.4068 44.606 75.1162 45.2423 76.877C46.6413 80.6427 47.2375 84.7536 47.4866 88.8458C47.6274 91.2489 47.6994 93.7561 47.5906 96.2105C47.5762 96.1234 46.6867 95.946 46.6722 95.8589L46.5891 95.876Z" fill="#CB8587" fill-opacity="0.2"/>
<path d="M46.241 95.8557C46.5272 90.8432 46.1735 85.6021 45.1146 80.7761C44.1713 76.6468 42.4182 71.7835 38.4231 69.9929C38.0616 69.8871 38.2244 69.3132 38.5715 69.3319C38.7378 69.2978 38.933 69.4377 39.1138 69.4906C39.3922 69.6135 39.3668 69.979 39.215 70.1003C36.8936 71.6584 37.421 75.8731 37.88 78.1204C38.4546 81.0645 39.5823 83.7148 40.7246 86.4521C40.7824 86.8005 40.4931 87.1302 40.2834 86.9031C40.0738 86.676 39.6579 86.7615 39.3651 86.5515C38.9746 86.2715 38.624 85.7131 38.2191 85.346C37.1851 84.2977 36.1512 83.2493 35.0341 82.2181C33.1216 80.5398 31.0571 78.9827 28.6492 77.9466L28.8952 77.3557L29.0615 77.3215C29.452 77.6015 29.2061 78.1924 28.8445 78.0866C27.5791 77.7163 24.1189 77.0767 24.6068 79.4983C24.8814 81.1531 26.1685 82.6898 27.1482 83.9294C28.0303 85.099 28.9811 86.1645 29.9319 87.2299C30.673 88.0683 31.3996 88.8196 32.2239 89.6408C32.7553 90.2521 33.3555 90.7592 33.9701 91.3533C34.4726 91.7904 35.0728 92.2975 35.5066 92.8388C35.5211 92.9259 35.5644 93.1871 35.5789 93.2742C35.2896 93.6039 34.8448 93.5152 34.4977 93.4965C33.8324 93.6333 33.1382 93.5959 32.5561 93.7155C31.9739 93.8352 31.4605 93.8507 30.8784 93.9704C29.1176 94.2424 27.3568 94.5143 25.5561 95.0646C24.0737 95.4594 22.1067 96.044 21.1158 97.3285C19.5754 99.4465 23.3355 101.375 24.713 101.903C25.0745 102.009 24.843 102.687 24.467 102.494C24.091 102.301 24.3369 101.71 24.713 101.903C29.066 103.26 33.7266 102.842 38.0185 101.239C40.1229 100.446 42.1695 99.3047 43.9088 97.8663C44.3644 97.5024 44.82 97.1386 45.2756 96.7747C45.6481 96.4279 46.1434 95.7857 46.5448 95.6131C47.0293 95.4234 47.1848 95.8418 47.6151 95.8434C47.8645 95.7921 47.9368 96.2276 47.7162 96.4531C42.5851 101.291 35.8597 104.295 28.9575 103.642C26.0686 103.335 22.746 102.487 20.5118 100.425C19.7019 99.6907 19.0006 98.5739 19.3948 97.322C19.8577 95.9659 21.4488 95.1885 22.5841 94.775C24.439 94.0334 26.518 93.6059 28.4307 93.2127C29.5118 92.9904 30.6074 92.8553 31.703 92.7201C32.2019 92.6175 32.7153 92.602 33.2287 92.5866C33.395 92.5524 34.2412 92.4685 34.1725 92.5726L34.2447 93.0081C33.7278 92.4839 33.0444 91.994 32.5274 91.4698C31.7031 90.6485 30.8934 89.9144 30.1522 89.076C29.7329 88.6218 29.2303 88.1848 28.7965 87.6435C27.2311 85.9839 25.7488 84.3071 24.5703 82.3879C23.869 81.2711 22.5098 79.2989 23.2078 77.8044C23.5911 77.0051 24.4914 76.7299 25.2543 76.6632C27.1128 76.4612 28.9639 77.2515 30.6487 78.076C34.5751 79.9707 37.8433 83.0816 40.7246 86.4521C40.9343 86.6792 40.6594 87.096 40.381 86.9731C39.7411 86.7444 39.394 86.7257 39.1266 86.1502C38.7181 85.2434 38.324 84.4238 37.9987 83.5C37.377 81.8265 36.7408 80.0659 36.4373 78.2369C35.9349 75.7283 35.3099 71.4435 37.7399 69.5029C38.416 68.9136 39.4897 69.6836 40.2273 69.9823C41.6337 70.6838 42.7653 71.8022 43.6763 73.146C45.708 76.0607 46.6622 79.7374 47.2548 83.3083C47.9486 87.4888 48.1722 91.9461 47.9367 96.2276C47.9801 96.4889 47.6619 96.6444 47.4667 96.5044C47.1739 96.2944 46.7581 96.3799 46.5484 96.1528C46.2411 95.8557 46.7653 95.3876 47.0726 95.6847C47.2679 95.8247 47.6837 95.7392 47.8934 95.9663L47.4233 96.2431C47.6877 92.1358 47.4242 87.9569 46.8425 83.9334C46.2608 79.91 45.2488 75.8849 42.7869 72.9686C42.1434 72.2002 41.4312 71.5361 40.6647 71.0632C40.1911 70.8003 39.3126 70.1703 38.7016 70.1158C37.9097 70.0084 37.3925 71.5558 37.161 72.2338C36.821 73.2944 36.8281 74.3738 36.8353 75.4531C37.0014 77.4905 37.5002 79.4594 38.0676 81.3242C38.3929 82.248 38.7182 83.1719 39.1122 83.9916C39.5352 84.9854 39.7086 86.0305 40.8077 86.435L40.4642 86.956C38.1288 84.2838 35.4752 81.7671 32.4925 79.8585C30.862 78.8427 29.0795 77.9483 27.2175 77.6106C26.2449 77.4502 24.2165 77.1467 23.9199 78.4686C23.5691 79.9818 25.1923 81.9898 25.8791 83.0194C26.9998 84.5903 28.2724 86.04 29.6281 87.4725C30.0475 87.9267 30.4523 88.2938 30.8717 88.748C31.5984 89.4992 32.3251 90.2505 33.1349 90.9846C33.6519 91.5088 34.4328 92.0688 34.8811 92.6972C34.91 92.8714 34.9389 93.0456 34.8702 93.1497C34.4146 93.5136 33.5396 93.4233 33.0262 93.4388C32.0138 93.5568 31.0014 93.6749 29.9203 93.8972C27.91 94.2204 25.9141 94.6307 24.0303 95.1982C22.1465 95.7656 18.5632 97.493 20.9384 99.8868C22.1821 101.162 24.1163 101.935 25.7433 102.411C33.4336 104.703 41.6161 101.67 47.4776 96.0518L47.5788 96.6615C47.4124 96.6957 47.2859 96.4515 47.1051 96.3986C46.6604 96.3099 46.2482 96.935 45.8613 97.1947C45.0332 97.9053 44.122 98.633 43.1964 99.2737C41.345 100.555 39.284 101.609 37.1652 102.315C33.0938 103.692 28.6537 103.885 24.5791 102.651C22.9232 102.001 20.7648 100.913 20.266 98.9442C20.0782 97.812 20.6278 96.9785 21.3727 96.2849C23.7194 94.3614 27.2556 93.9046 30.112 93.4975C30.7773 93.3607 31.4426 93.2239 32.1223 93.1743C32.455 93.1059 32.7876 93.0375 33.1347 93.0562C33.5505 92.9707 33.9808 92.9723 34.411 92.9739C34.6605 92.9226 35.3114 92.6988 35.0908 92.9242L35.1631 93.3597C34.6316 92.7484 33.8507 92.1885 33.2361 91.5943C32.5094 90.843 31.6995 90.1089 30.9729 89.3576C30.3438 88.6764 29.7148 87.9951 29.0858 87.3138C27.8132 85.8642 26.5262 84.3275 25.4887 82.7395C24.7874 81.6227 23.6378 79.8776 24.0863 78.4344C24.6976 76.4174 27.825 77.1254 29.0904 77.4957L28.8445 78.0866L28.6781 78.1208C28.2877 77.8409 28.5336 77.2499 28.8952 77.3557C31.2054 78.3218 33.2554 79.7917 35.0703 81.4001C36.0609 82.1871 36.9827 83.0784 37.8215 83.9867C38.2408 84.4409 38.6747 84.9822 39.1772 85.4193C39.5821 85.7863 40.1245 85.945 40.5294 86.3121L40.0882 86.7631C38.7074 83.6244 37.3952 80.3817 36.9147 76.9679C36.5245 74.6164 36.626 71.0829 38.7811 69.559L38.8823 70.1687C38.716 70.2029 38.5352 70.15 38.4376 70.08L38.5859 69.419C42.4834 71.1396 44.3992 75.4291 45.4257 79.5413C46.8063 84.7515 47.0805 90.5494 46.769 95.9273C46.7581 96.3799 46.147 96.3253 46.1579 95.8728L46.241 95.8557Z" fill="#CB8587" fill-opacity="0.2"/>
<path d="M59.7935 182.755C59.5117 177.946 58.7017 173.065 57.4356 168.548C56.5819 165.479 55.4497 162.286 53.3366 159.927C52.9169 159.472 52.414 159.035 51.911 158.597C51.6324 158.474 51.3393 158.264 51.0607 158.141C50.782 158.018 50.7278 158.21 51.4225 158.247C51.3393 158.264 51.2416 158.194 51.1439 158.124C50.9774 158.158 50.8653 158.001 50.6988 158.035C50.4346 157.999 50.0873 157.981 49.8231 157.945C49.6566 157.979 49.1283 157.907 48.9908 158.116C48.8243 158.15 48.7845 158.429 48.7302 158.62C48.1692 159.907 47.9845 161.387 48.1327 162.799C48.3893 165.901 49.7279 168.781 51.1895 171.364C51.1606 171.19 50.4803 171.24 50.2704 171.012C48.3564 169.333 46.2903 167.775 44.17 166.408C42.5381 165.391 40.7542 164.496 38.8218 164.263C37.682 164.136 35.974 164.217 35.2031 165.277C34.653 166.111 34.9098 167.14 35.2064 167.89C35.6876 169.233 36.5704 170.404 37.4388 171.487C39.5264 174.213 41.9036 176.608 44.3495 178.9C45.2722 179.792 46.1805 180.596 47.0886 181.401L48.1777 182.259C48.1777 182.259 47.6784 182.361 47.5952 182.379C47.0958 182.481 46.6796 182.567 46.1802 182.669C44.6821 182.977 43.2672 183.268 41.8523 183.559C38.8994 184.437 35.1721 185.834 33.623 188.946C33.0475 190.146 32.7795 191.644 33.3294 192.882C33.5826 193.371 33.9192 193.843 34.3244 194.21C34.5198 194.35 34.7297 194.578 35.0083 194.701C35.0916 194.683 35.2036 194.841 35.3846 194.894C35.3846 194.894 35.5655 194.947 35.58 195.034C35.58 195.034 35.7464 194.999 35.7754 195.174C35.9563 195.227 35.8586 195.157 35.5945 195.121C35.6777 195.104 35.9563 195.227 36.1372 195.28C36.3037 195.245 36.4991 195.386 36.68 195.438C37.0418 195.544 37.4725 195.546 37.8199 195.565C38.6124 195.672 39.4736 195.675 40.3204 195.591C42.2781 195.459 44.1778 194.979 46.0342 194.237C50.4129 192.615 54.4914 189.704 57.5785 186.005C58.4471 185.015 59.2035 183.868 59.9599 182.721C59.9599 182.721 60.7958 183.09 60.879 183.073C58.0198 187.627 53.9738 191.252 49.349 193.465C45.846 195.177 41.7279 196.294 37.8343 195.652C35.6234 195.295 32.5187 194.221 32.2367 191.485C31.8789 187.773 35.3639 185.434 38.1901 184.312C41.0164 183.19 43.8318 182.521 46.7882 182.184L47.3708 182.064C47.3708 182.064 47.0778 181.854 47.0633 181.767C46.2673 181.119 45.5544 180.455 44.8271 179.703C42.298 177.429 39.8231 174.963 37.5834 172.359C36.6029 171.118 35.6224 169.878 34.8771 168.499C34.385 167.608 33.8496 166.456 34.2044 165.482C34.5989 164.229 36.1803 163.904 37.2225 163.96C38.945 163.967 40.6022 164.618 42.1763 165.285C45.3243 166.621 48.1719 168.74 50.7698 170.91C50.9652 171.05 51.0774 171.207 51.2728 171.347L50.3537 170.995C48.3312 167.626 46.1461 162.757 47.7025 158.651C47.7568 158.46 47.8509 157.99 48.0862 157.851C48.3069 157.626 49.0849 157.646 49.4323 157.665C50.6409 157.687 51.9363 158.232 52.9965 158.915C55.5221 160.649 56.9187 163.877 57.9099 166.738C59.0566 170.017 59.7184 173.487 60.1994 176.903C60.5321 178.908 60.6983 180.947 60.8501 182.899C60.8356 182.811 59.9599 182.721 59.931 182.547L59.7935 182.755Z" fill="#CB8587" fill-opacity="0.2"/>
<path d="M59.4635 182.823C59.1962 178.101 58.4296 173.482 57.1635 168.965C56.5667 166.925 55.9698 164.884 54.9858 163.103C54.4793 162.126 53.8896 161.166 53.1479 160.327C52.616 159.715 51.5667 158.579 50.7887 158.558L51.0927 158.316C51.0783 158.228 51.0493 158.054 51.0349 157.967L51.3967 158.073L51.2483 158.734C50.7887 158.558 50.1628 158.417 49.6634 158.519C48.9144 158.673 48.7369 159.16 48.5053 159.839C48.1252 161.179 48.1758 162.52 48.3928 163.828C48.8412 166.53 49.9409 169.008 51.3447 171.243C51.4713 171.487 51.0985 171.834 50.9031 171.694C50.7077 171.554 50.3604 171.535 50.0818 171.412C49.8032 171.289 49.6765 171.045 49.4667 170.818C48.7683 170.24 48.07 169.663 47.3862 169.172C46.004 168.104 44.4699 167.158 42.9502 166.299C41.4305 165.439 39.9397 164.754 38.2028 164.661C37.4248 164.64 36.3972 164.671 35.706 165.174C34.7253 166.007 35.1919 167.263 35.6007 168.17C36.9971 171.398 39.8628 174.144 42.3231 176.522C43.7632 177.939 45.1887 179.268 46.6143 180.598C47.1172 181.035 48.0652 181.561 48.4306 182.207C48.4596 182.381 48.4197 182.66 48.17 182.711C47.5042 182.848 46.643 182.845 45.9772 182.982C44.8952 183.204 43.8964 183.41 42.8145 183.632C41.0667 183.991 39.279 184.629 37.7012 185.494C36.1234 186.359 34.5204 187.59 33.782 189.365C32.7975 191.73 33.8394 193.859 35.9706 194.773C36.347 194.966 36.1008 195.558 35.739 195.452C35.6557 195.469 35.558 195.399 35.4603 195.329C35.0985 195.223 35.2614 194.649 35.6088 194.667C36.7486 194.794 37.7509 195.128 38.8762 195.167C40.3345 195.138 41.6806 194.951 43.0955 194.661C45.7588 194.113 48.3209 192.955 50.7419 191.466C53.1628 189.977 55.0411 188.329 56.8614 186.332C57.4405 185.673 57.9362 185.03 58.4321 184.387C58.7759 183.866 59.2139 182.875 59.6843 182.598C60.1547 182.321 60.3935 182.722 60.8385 182.811C61.0882 182.76 61.2294 183.091 61.0918 183.3C56.6512 190.251 49.1167 195.676 41.0364 196.256C38.232 196.472 33.9369 196.002 32.3486 193.174C30.7604 190.346 32.9209 187.288 35.1465 185.659C36.7641 184.515 38.5373 183.79 40.3394 183.24C41.5589 182.809 42.8073 182.552 44.0557 182.295C45.0545 182.09 46.1799 182.129 47.1642 181.836L47.0012 182.411C45.7566 181.134 44.2767 179.996 42.9633 178.824C41.4256 177.338 39.8879 175.851 38.5166 174.331C37.1454 172.81 35.8573 171.272 34.8045 169.596C34.1026 168.478 33.2162 166.767 33.8459 165.376C34.3527 164.281 35.7531 163.902 36.7808 163.871C38.572 163.774 40.2147 164.337 41.8032 165.092C45.3131 166.534 48.4537 168.863 51.2759 171.347C51.569 171.557 51.3917 172.044 51.0298 171.938C50.4726 171.692 50.1252 171.674 49.7887 171.202C49.4233 170.556 49.0579 169.91 48.678 169.177C48.016 167.781 47.4227 166.281 47.0935 164.816C46.7644 163.351 46.6017 161.853 46.8696 160.355C47.0579 159.415 47.2282 157.848 48.3101 157.626C49.4753 157.386 51.0204 157.88 52.0516 158.389C53.2638 158.951 54.2841 159.913 55.1524 160.996C57.0302 163.494 58.0649 166.617 58.8208 169.616C59.9891 174.062 60.6581 178.612 61.0774 183.212C61.1352 183.561 60.7335 183.734 60.5236 183.507C60.3138 183.279 59.9121 183.452 59.6046 183.155C59.297 182.857 59.8218 182.389 60.1294 182.686C60.3392 182.914 60.7409 182.741 61.0485 183.038L60.4947 183.332C60.2455 179.237 59.6489 175.124 58.6506 171.183C57.8223 167.748 56.7408 163.824 54.389 161.063C53.1986 159.595 51.4835 158.596 49.6345 158.345C49.3848 158.396 48.6611 158.184 48.4259 158.323C48.093 158.391 47.9445 159.053 47.8214 159.348C47.5355 160.218 47.4305 161.141 47.4086 162.047C47.4483 163.842 48.0017 165.621 48.624 167.295C48.9206 168.046 49.2859 168.692 49.6658 169.425C50.1579 170.315 50.3424 170.908 51.3447 171.243L51.0986 171.834C48.5694 169.56 45.8196 167.511 42.7403 166.071C41.2496 165.386 39.5778 164.648 37.9242 164.538C36.437 164.393 34.0921 164.785 34.4537 166.964C34.743 168.707 36.031 170.245 37.1092 171.555C38.2019 172.953 39.3489 174.159 40.5103 175.453C41.7694 176.816 43.0973 178.076 44.4107 179.248C45.431 180.21 46.6034 181.05 47.6382 182.1C47.8336 182.24 47.7105 182.535 47.4752 182.674C46.8926 182.794 46.2956 182.826 45.6985 182.859C44.6166 183.081 43.6178 183.287 42.5358 183.509C40.788 183.868 39.0005 184.506 37.3394 185.388C34.9583 186.599 31.8352 189.044 32.7178 192.287C33.6004 195.531 38.7568 196.003 41.4635 195.717C45.1146 195.417 48.661 193.967 51.8564 191.958C55.3558 189.707 58.3776 186.652 60.6323 183.124L60.8855 183.612C60.7191 183.647 60.3138 183.279 60.1473 183.314C59.9809 183.348 59.3222 184.565 59.1847 184.773C58.4139 185.833 57.5453 186.823 56.6767 187.813C54.8419 189.722 52.714 191.421 50.4306 192.702C48.1471 193.983 45.5706 195.053 42.9906 195.583C41.7421 195.84 40.4105 196.114 39.1042 196.022C37.8956 196 36.8101 195.682 35.6702 195.556L35.8186 194.895C35.9018 194.877 35.9996 194.948 36.0972 195.018L35.8656 195.696C34.1939 194.958 32.8371 193.525 32.8518 191.539C32.8665 189.553 34.1874 187.659 35.7073 186.445C37.2272 185.231 39.1669 184.472 41.121 183.8C42.4237 183.352 43.7554 183.078 45.087 182.804C46.0858 182.599 47.2943 182.621 48.2786 182.328L48.018 182.833C47.8914 182.588 47.4174 182.325 47.222 182.185C46.7191 181.748 46.2162 181.31 45.7132 180.873C44.4975 179.771 43.365 178.652 42.1493 177.55C39.8843 175.311 37.6881 172.969 35.9478 170.262C34.8805 168.498 33.7084 165.585 36.2994 164.601C38.5575 163.687 41.2315 164.759 43.2252 165.882C44.8282 166.724 46.3767 167.757 47.8421 168.808C48.5404 169.386 49.2244 169.876 49.9227 170.454C50.328 170.821 50.621 171.031 51.0805 171.207C51.2614 171.26 51.3591 171.33 51.5401 171.383L51.0986 171.834C49.4126 168.936 47.9185 165.638 47.9225 162.032C47.9298 161.039 48.0965 158.931 48.9252 158.22C49.5332 157.735 51.0638 158.141 51.7731 158.266C52.1349 158.372 51.972 158.946 51.6246 158.927C51.3749 158.979 51.1795 158.838 50.9009 158.715C50.8176 158.733 50.7742 158.471 50.8285 158.28C50.8828 158.088 51.0493 158.054 51.1325 158.037C52.6197 158.182 54.1611 160.208 54.9462 161.309C56.1944 163.125 56.9866 165.306 57.6956 167.504C59.2149 172.509 60.0683 177.651 60.4224 182.896C60.4947 183.332 59.8289 183.469 59.7566 183.033L59.4635 182.823Z" fill="#CB8587" fill-opacity="0.2"/>
<path d="M46.5379 27.175C47.7271 28.6414 48.8331 30.125 49.8559 31.6256C51.6487 34.1385 53.4558 36.7385 54.5292 39.5794C54.5147 39.4924 53.7917 39.2808 53.7086 39.2979C49.7288 37.5948 45.6803 35.9958 41.7005 34.2927C41.1438 34.047 40.5871 33.8013 39.9473 33.5726C40.1281 33.6255 40.5872 33.8013 40.7679 33.8541C44.7477 35.5573 48.7962 37.1562 52.776 38.8593C53.3327 39.105 53.8894 39.3508 54.5292 39.5794L53.7086 39.2979C52.5377 36.387 50.7305 33.787 49.0354 31.344C48.0125 29.8434 46.8921 28.2728 45.7174 26.8935C45.927 27.1205 46.4259 27.018 46.6355 27.245L46.5379 27.175Z" fill="#CB8587" fill-opacity="0.2"/>
<path d="M46.759 26.9481C48.2989 28.9729 49.8388 30.9978 51.2268 33.144C52.6148 35.2901 53.8763 37.1921 54.7798 39.5279C54.8376 39.8762 54.534 40.1188 54.2412 39.9088C54.0459 39.7688 53.5181 39.6972 53.2398 39.5743C52.5855 39.2586 51.9455 39.0299 51.2081 38.7313C49.997 38.1697 48.7173 37.7124 47.4231 37.1679C44.8347 36.0791 42.2608 35.0773 39.7556 33.9714C39.3796 33.7785 39.6254 33.1876 40.0014 33.3805C44.8709 35.2611 49.7007 37.4202 54.5847 39.3879C54.9606 39.5808 54.7147 40.1717 54.3387 39.9788C53.7965 39.8201 53.4494 39.8014 53.182 39.226C52.9001 38.5635 52.6325 37.9881 52.2675 37.3427C51.6349 36.1219 50.8361 34.9353 50.1205 33.7316C48.6204 31.4284 46.9539 29.1594 45.3165 27.0645C45.0924 26.7504 45.4503 26.3166 45.7431 26.5265C46.0359 26.7365 46.3685 26.6681 46.6613 26.8781C46.9686 27.1752 46.6251 27.6961 46.3178 27.399C46.1082 27.1719 45.6924 27.2574 45.3996 27.0474L45.8263 26.5094C47.4638 28.6043 49.0326 30.8033 50.5182 33.0195C51.205 34.049 51.8917 35.0785 52.4953 36.1251C52.846 36.6835 53.1135 37.2588 53.381 37.8342C53.4243 38.0955 53.5941 38.6009 53.7893 38.7409C53.999 38.968 54.2629 39.0038 54.5413 39.1267L54.2954 39.7176C49.4801 37.6456 44.6649 35.5737 39.7122 33.7101L39.9581 33.1192C42.644 34.2781 45.3156 35.3498 48.0848 36.4916C49.379 37.036 50.7564 37.5633 52.065 38.1949C52.6217 38.4406 53.1928 38.7735 53.8182 38.9151C54.0966 39.038 54.4437 39.0567 54.6533 39.2837L54.1147 39.6646C53.128 37.3459 51.8375 35.2698 50.464 33.2107C49.0904 31.1517 47.6481 29.1968 46.1227 27.259C45.8986 26.9449 46.3396 26.494 46.6469 26.791L46.759 26.9481Z" fill="#CB8587" fill-opacity="0.2"/>
<path d="M40.4113 86.8304C42.397 89.4799 44.2996 92.1465 46.2853 94.796C46.621 95.2665 47.0398 95.72 47.2925 96.2076L47.3214 96.3816L46.8917 96.38C44.9094 96.3378 42.9812 96.1046 41.0387 95.7845C39.7894 95.5017 38.5401 95.2189 37.345 94.7451C36.2474 94.3412 35.1354 93.8504 34.3122 93.0303C34.5216 93.2571 35.0199 93.1547 35.2293 93.3814C36.8612 94.9345 39.1648 95.3603 41.3709 95.7162C42.9524 95.9307 44.617 96.1281 46.3357 96.1345C46.5849 96.0833 46.5848 96.0833 46.3899 95.9435L45.2851 94.4619L41.8446 89.7733C41.0612 88.6753 40.2921 87.6643 39.5087 86.5663C39.635 86.8101 40.2164 86.6906 40.4258 86.9174L40.4113 86.8304Z" fill="#CB8587" fill-opacity="0.2"/>
<path d="M40.7133 86.5895C41.9444 88.315 43.1612 89.9536 44.4754 91.6621L46.3492 94.1549C46.7969 94.7823 47.5082 95.4456 47.8042 96.1941C47.8331 96.3681 47.7933 96.6461 47.5441 96.6973C47.2119 96.7656 46.7679 96.677 46.4212 96.6583C45.811 96.6039 45.1176 96.5665 44.5074 96.5121C43.2038 96.4203 41.9689 96.2245 40.7196 95.9417C38.4989 95.4988 35.9713 94.7592 34.2563 93.2231C33.9494 92.9264 34.2925 92.4062 34.5994 92.7029C34.7943 92.8427 34.9604 92.8085 35.141 92.8614C35.3215 92.9142 35.419 92.9841 35.614 93.1239C36.0184 93.4905 36.4914 93.753 36.9644 94.0155C37.8129 94.4706 38.7987 94.7177 39.7844 94.9647C40.7702 95.2118 41.8246 95.3548 42.8645 95.4108C43.4748 95.4652 44.085 95.5197 44.7783 95.557C45.3055 95.6286 46.0132 95.7529 46.5115 95.6504L46.2226 95.9796C46.2659 96.2405 46.2226 95.9796 46.0277 95.8399C45.9013 95.596 45.7063 95.4562 45.5799 95.2124L44.7965 94.1143L43.0202 91.6914C41.8035 90.0528 40.5867 88.4142 39.37 86.7757C39.1462 86.4619 39.5037 86.0287 39.7961 86.2384C40.0055 86.4652 40.4064 86.2928 40.7133 86.5895C41.0202 86.8862 40.6771 87.4064 40.3702 87.1097C40.1608 86.8829 39.7599 87.0553 39.453 86.7586L39.8792 86.2213C41.2078 88.0168 42.5364 89.8122 43.7676 91.5377L45.6415 94.0305C45.9628 94.4142 46.2985 94.8848 46.5368 95.2855C46.6487 95.4424 46.8582 95.6691 46.9015 95.93C46.9304 96.104 46.7787 96.2251 46.6126 96.2592C46.1142 96.3617 45.5871 96.2901 45.0599 96.2186C44.3666 96.1813 43.7563 96.1269 43.063 96.0895C41.9256 95.9636 40.6907 95.7677 39.5388 95.5548C38.553 95.3078 37.5673 95.0607 36.6357 94.6227C36.1627 94.3601 35.7727 94.0806 35.3828 93.801C34.9928 93.5214 34.9928 93.5214 34.6317 93.4157C34.4656 93.4499 34.3537 93.293 34.1731 93.2402L34.5162 92.72C36.2313 94.2561 38.6614 94.9258 40.8821 95.3686C41.9509 95.5986 43.0884 95.7246 44.2258 95.8505C44.8361 95.9049 45.4463 95.9594 46.0421 95.9268C46.3887 95.9455 46.9304 96.104 47.3312 95.9316L47.0711 96.4348C46.7751 95.6862 46.0638 95.023 45.5186 94.3256L43.6448 91.8328C42.4281 90.1942 41.2114 88.5556 40.0778 86.9C39.8539 86.5862 40.2945 86.1359 40.6014 86.4326L40.7133 86.5895Z" fill="#CB8587" fill-opacity="0.2"/>
<path d="M50.637 171.573C53.5021 174.855 56.3673 178.136 59.1638 181.522C59.4998 181.992 59.9044 182.359 60.2404 182.83C60.2404 182.83 60.5476 183.127 60.562 183.214L60.4788 183.231C60.3126 183.266 60.0489 183.23 59.7851 183.194L58.6613 183.155C56.4968 183.06 54.3324 182.965 52.0848 182.887C50.531 182.846 48.9772 182.806 47.409 182.678C47.1597 182.729 46.8381 182.345 46.4912 182.327C50.0433 182.496 53.4978 182.596 57.0498 182.766L59.2142 182.861C59.2142 182.861 59.5611 182.88 59.6442 182.863C59.6442 182.863 58.9866 182.008 58.8891 181.938C57.1548 179.774 55.3519 177.715 53.549 175.655C52.2772 174.206 51.0055 172.758 49.7337 171.309C49.9432 171.536 50.4419 171.433 50.6515 171.66L50.637 171.573Z" fill="#CB8587" fill-opacity="0.2"/>
<path d="M50.9402 171.331C52.7431 173.39 54.5604 175.537 56.3633 177.596C57.2304 178.678 58.1662 179.656 59.0333 180.738C59.4524 181.192 59.8859 181.733 60.2219 182.204C60.4315 182.431 60.7386 182.728 60.865 182.972C60.9083 183.233 60.771 183.441 60.5217 183.492C58.2886 183.501 56.0267 183.336 53.7791 183.258C52.4891 183.253 51.2678 183.144 49.9778 183.14L48.1602 183.063C47.8278 183.132 47.4809 183.113 47.2027 182.99C46.9389 182.954 46.7293 182.727 46.4656 182.692C46.1042 182.586 46.1006 182.047 46.5306 182.048C48.8613 182.109 51.1089 182.187 53.3708 182.352L56.7422 182.469L58.2128 182.527C58.6428 182.528 59.0872 182.617 59.5172 182.619L59.2427 183.035C59.2138 182.861 58.809 182.494 58.6139 182.354C58.2779 181.883 57.8588 181.429 57.5372 181.045C56.6846 180.051 55.8175 178.969 54.9649 177.974C53.1475 175.827 51.247 173.698 49.4297 171.551C49.2057 171.237 49.5635 170.804 49.8561 171.013C50.1488 171.223 50.4812 171.155 50.7739 171.365C51.0666 171.575 50.7377 172.182 50.4306 171.885C50.1379 171.676 49.8055 171.744 49.5128 171.534L49.9393 170.996C51.9518 173.283 53.8667 175.499 55.796 177.803C56.7462 178.868 57.6133 179.95 58.5635 181.014C58.8851 181.398 59.1921 181.695 59.4306 182.096C59.6257 182.236 59.8353 182.463 59.8786 182.724C59.9219 182.985 59.7701 183.107 59.6039 183.141C58.8559 183.295 57.9671 183.117 57.1758 183.01L53.5406 182.857C51.1124 182.726 48.7818 182.665 46.368 182.622L46.4331 181.978C46.6824 181.927 46.7945 182.084 47.0727 182.207C47.434 182.312 47.7809 182.331 48.1278 182.35L49.9453 182.426C51.2353 182.431 52.4566 182.54 53.7466 182.545C55.9942 182.623 58.2562 182.788 60.4893 182.779L60.146 183.299C59.9907 182.881 59.5028 182.532 59.2933 182.305C58.8742 181.851 58.5382 181.38 58.1191 180.926C57.2664 179.931 56.4137 178.936 55.5611 177.941C53.8413 175.865 52.0528 173.892 50.25 171.833C49.9428 171.536 50.4668 171.068 50.7739 171.365L50.9402 171.331Z" fill="#CB8587" fill-opacity="0.2"/>
<path d="M54.5643 39.825C58.885 47.8663 62.3307 56.5368 65.416 65.1884C71.9695 83.6871 76.4842 103.32 76.8501 123.236C76.9133 128.312 77.063 133.37 77.5731 138.447C77.7906 140.766 78.023 143.173 78.2406 145.492C78.8294 151.553 79.4182 157.614 80.007 163.675C81.4022 178.115 82.9851 192.61 84.6543 207.087C85.4045 213.57 86.2411 220.035 87.164 226.484C87.8581 231.07 88.4659 235.673 89.4904 240.103C89.6105 240.805 89.7456 241.596 90.0384 242.265C90.0084 242.089 89.2162 242.156 89.0848 241.91C88.064 238.025 87.4448 233.878 86.8558 229.907C85.9216 223.915 85.1601 217.889 84.3985 211.862C82.6429 197.403 81.0751 182.996 79.5786 168.485C78.9147 161.985 78.2658 155.572 77.6883 149.055C77.1295 143.17 76.398 137.319 76.1996 131.453C75.9599 125.867 75.9943 120.318 75.6682 114.75C75.3008 109.462 74.573 104.156 73.6725 98.8841C72.0516 89.3949 69.6534 80.0609 66.6657 70.9356C63.2502 60.351 59.1287 49.8166 53.9748 40.0336C53.9447 39.8578 53.8284 39.6994 53.727 39.6287C53.7721 39.8923 54.5493 39.7371 54.6807 39.9834L54.5643 39.825Z" fill="#CB8587" fill-opacity="0.2"/>
<path d="M54.9125 39.6718C61.0378 50.9858 65.5573 63.3476 69.2852 75.7767C73.1594 88.54 75.8555 101.721 76.7957 115.07C77.2452 121.886 77.1469 128.629 77.5964 135.444C78.0459 142.259 78.8255 148.918 79.4476 155.698C80.808 169.418 82.1684 183.139 83.7164 196.912C84.5747 204.554 85.5193 212.179 86.4789 219.892C87.4385 227.604 88.3532 235.054 90.217 242.313C90.262 242.577 89.9469 242.821 89.7443 242.68C89.5267 242.451 89.1102 242.625 88.8926 242.396C88.5738 242.096 88.5401 241.376 88.4502 240.849C88.0639 239.109 87.6926 237.457 87.3927 235.7C86.8228 232.361 86.2529 229.023 85.8556 225.649C84.8584 218.762 84.0337 211.84 83.2091 204.918C81.5598 191.074 80.0831 177.195 78.6927 163.3C77.9844 156.536 77.3623 149.755 76.6539 142.992C75.9456 136.228 75.6837 129.466 75.4931 122.599C75.1531 108.584 72.8998 94.861 69.2659 81.4137C65.3806 67.0172 60.2723 52.7742 53.2992 39.6309C53.1529 39.2967 53.5544 39.0347 53.7569 39.1759C53.9595 39.3172 54.406 39.3188 54.7098 39.5306C55.0287 39.8303 54.6722 40.3558 54.3534 40.0561C54.1358 39.8271 53.7043 39.9133 53.4005 39.7015L53.8582 39.2465C60.0136 50.7362 64.6344 63.1686 68.3773 75.6856C72.1202 88.2026 75.0375 102.157 75.8502 115.804C76.2846 122.532 76.1151 129.38 76.6359 136.09C77.1566 142.8 77.925 149.915 78.6484 156.767C80.0088 170.487 81.3692 184.207 82.9885 197.875C83.8468 205.517 84.8065 213.23 85.8374 220.838C86.3097 224.65 86.8682 228.445 87.5131 232.223C87.8281 234.068 88.143 235.913 88.473 237.846C88.6379 238.813 88.8179 239.867 89.1554 240.799C89.3317 241.309 89.2454 241.326 89.7369 241.591C89.8381 241.662 90.0108 241.627 90.127 241.786L89.6543 242.153C88.0117 235.667 87.2171 228.921 86.2799 222.385C85.3989 215.656 84.503 208.839 83.7946 202.075C82.1753 188.407 80.7999 174.599 79.4395 160.879C78.7312 154.115 78.1092 147.335 77.4871 140.554C76.865 133.773 76.7794 127.521 76.5475 120.935C76.11 107.394 73.8303 94.0391 70.2713 81.031C68.3212 73.7888 65.8534 66.6501 63.2279 59.6337C60.6025 52.6174 57.808 46.1799 54.3947 39.7753C54.1471 39.3705 54.8075 39.0568 54.9688 39.4789L54.9125 39.6718Z" fill="#CB8587" fill-opacity="0.2"/>
<path d="M83.419 52.2436C81.953 55.8857 80.5705 59.5107 79.0899 63.0656L72.2823 80.266C71.7199 81.5554 71.2554 82.915 70.6929 84.2044L69.7715 83.8519C71.2375 80.2097 72.6201 76.5847 74.1006 73.0299L80.9082 55.8295C81.4707 54.5401 81.9352 53.1805 82.4976 51.8911L83.419 52.2436Z" fill="#CB8587" fill-opacity="0.2"/>
<path d="M83.6983 52.3678C79.5219 63.0677 75.2475 73.6974 70.9877 84.4144C70.9333 84.6061 70.7664 84.6404 70.585 84.5874C70.3202 84.5515 70.0264 84.341 69.6637 84.2349C69.4968 84.2692 69.4388 83.9199 69.5078 83.8155C73.6842 73.1156 77.9584 62.4859 82.2182 51.7689C82.2727 51.5772 82.4395 51.5429 82.6209 51.5959C82.8857 51.6318 83.1795 51.8423 83.5423 51.9484C83.905 52.0545 83.6728 52.7342 83.2956 52.5408C83.0163 52.4176 82.737 52.2944 82.3743 52.1883L82.7914 52.1026C78.586 62.6279 74.3262 73.3449 70.0519 83.9746L69.9793 83.538C70.1752 83.6784 70.4545 83.8016 70.7338 83.9248L70.3166 84.0105C74.522 73.4852 78.7818 62.7682 83.0562 52.1386C83.2485 51.7379 83.8071 51.9843 83.6983 52.3678Z" fill="#CB8587" fill-opacity="0.2"/>
<path d="M47.408 96.7322C50.1921 98.4187 52.8672 100.489 55.3753 102.593C60.9941 107.311 66.1846 112.568 70.3912 118.659C73.1061 122.528 75.3635 126.761 76.9675 131.219C76.9385 131.044 76.1725 131.111 76.0455 130.867C73.2621 122.947 68.493 116.068 62.9215 110.076C58.8236 105.679 54.2683 101.646 49.3681 98.1363C48.486 97.5044 47.506 96.8024 46.5404 96.1878C46.8199 96.311 47.1684 96.3298 47.4624 96.5404L47.408 96.7322Z" fill="#CB8587" fill-opacity="0.2"/>
<path d="M47.6185 96.4203C54.0679 100.425 59.9546 105.719 65.05 111.447C70.1454 117.174 74.6056 123.755 77.2182 131.167C77.2617 131.429 76.9858 131.847 76.7753 131.619C76.4668 131.321 76.0638 131.494 75.7553 131.197C75.5303 130.881 75.3998 130.095 75.2583 129.763C75.0878 129.256 74.8482 128.854 74.6777 128.347C73.8431 126.441 72.9395 124.639 71.9524 122.855C69.8948 119.303 67.5322 115.995 64.8502 112.843C59.5008 106.625 53.2076 100.963 46.3662 96.6775C46.0722 96.4669 46.2501 95.9788 46.613 96.0849C46.8925 96.2081 47.2554 96.3142 47.5349 96.4375C47.9124 96.6309 47.6656 97.2235 47.2881 97.0301C47.0086 96.9068 46.6457 96.8007 46.3662 96.6775L46.613 96.0849C53.3564 100.3 59.5517 105.892 64.7886 111.952C67.3581 114.947 69.7751 118.063 71.8182 121.528C72.8888 123.295 73.7923 125.096 74.6125 126.915C75.0225 127.824 75.4471 128.821 75.7737 129.748C75.9587 130.342 76.0857 130.587 76.5612 130.85C76.7426 130.903 76.8261 130.886 76.9387 131.044L76.4958 131.496C73.8832 124.084 69.5211 117.574 64.4402 111.933C59.3593 106.293 53.4725 100.999 47.1211 97.0644C46.7436 96.8709 47.1575 96.244 47.466 96.5419L47.6185 96.4203Z" fill="#CB8587" fill-opacity="0.2"/>
<path d="M60.555 183.475C63.0604 184.498 65.4857 186.08 67.6747 187.8C73.1182 191.927 77.6487 197.326 80.9137 203.436C83.5278 208.234 85.3492 213.466 86.5014 218.835C86.4723 218.66 85.705 218.727 85.5778 218.482C83.6913 209.738 79.9793 201.458 74.267 194.675C70.8201 190.59 66.7621 186.993 62.1803 184.407C61.3258 183.95 60.4713 183.492 59.6313 183.122C59.8131 183.175 60.2749 183.352 60.4567 183.405L60.555 183.475Z" fill="#CB8587" fill-opacity="0.2"/>
<path d="M60.6799 183.18C64.1231 184.643 67.2644 186.892 70.1002 189.383C72.8234 191.717 75.2556 194.382 77.3824 197.291C82.0577 203.564 85.1076 210.984 86.8339 218.766C86.8775 219.028 86.5721 219.271 86.3757 219.131C86.0667 218.833 85.6775 219.093 85.354 218.708C85.1286 218.392 85.2086 217.834 85.1505 217.484C85.0633 216.959 84.9761 216.435 84.7216 215.945C84.2201 213.968 83.5512 212.026 82.8824 210.084C81.4611 206.217 79.538 202.453 77.2404 199.038C74.9428 195.622 72.3688 192.624 69.4348 190.062C66.5008 187.5 63.2322 185.007 59.6072 183.491C59.2291 183.297 59.4764 182.704 59.84 182.81C60.12 182.933 60.3854 182.969 60.6654 183.093C61.029 183.199 60.7962 183.879 60.4326 183.773C60.1526 183.65 59.8872 183.614 59.6072 183.491L59.84 182.81C65.2284 185.049 69.9876 189.226 73.9104 193.574C78.0732 198.324 81.3341 203.893 83.537 209.86C84.1476 211.452 84.6746 213.061 85.1326 214.775C85.3616 215.632 85.5906 216.489 85.8341 217.434C85.9213 217.958 85.9504 218.133 86.4121 218.31C86.5103 218.38 86.6776 218.346 86.7903 218.503L86.3321 218.869C84.6204 211.174 81.5995 203.929 77.0224 197.726C74.9101 194.905 72.478 192.24 69.853 189.976C67.0317 187.572 63.9739 185.307 60.5307 183.844C60.1526 183.65 60.3999 183.057 60.7635 183.163L60.6799 183.18Z" fill="#CB8587" fill-opacity="0.2"/>
<path d="M72.2522 192.32C72.7987 190.946 73.3307 189.485 73.6963 188.058C74.4419 185.291 74.9922 182.384 74.7646 179.457C74.5875 177.871 74.244 176.319 73.3468 175.062L74.2658 175.414C73.618 176.178 73.0824 177.099 72.6445 178.09C71.548 180.298 71.0231 182.84 71.0119 185.365C71.0371 187.073 71.2432 188.833 71.6844 190.454C71.6989 190.542 71.9955 191.292 71.9123 191.309C71.9123 191.309 71.9123 191.309 71.8291 191.326C71.6626 191.36 71.413 191.411 71.3298 191.429C69.6365 191.596 67.8888 191.956 66.38 192.716C63.7495 193.978 61.9039 196.34 61.2849 199.352L60.3659 199C61.7553 199.075 63.17 198.784 64.5558 198.319C67.7435 197.303 70.4791 195.118 72.4043 192.199C72.4043 192.199 73.24 192.568 73.3232 192.551C71.3836 195.383 68.648 197.567 65.4748 198.67C64.1722 199.118 62.6743 199.426 61.2849 199.352C61.2849 199.352 60.3804 199.087 60.3659 199C60.9451 196.267 62.4722 194.06 64.741 192.693C66.3873 191.724 68.1892 191.173 69.9658 190.988C70.1322 190.954 70.9245 191.061 71.0765 190.94C71.0765 190.94 70.9608 190.243 70.8631 190.173C70.7763 189.65 70.6064 189.144 70.5196 188.621C70.3894 187.837 70.2448 186.965 70.1146 186.181C69.9303 183.515 70.3431 180.816 71.3962 178.347C71.8884 177.164 72.5471 175.947 73.3468 175.062C73.3468 175.062 74.1681 175.344 74.2658 175.414C75.8647 177.789 75.9404 180.837 75.6253 183.606C75.3646 186.183 74.6587 188.671 73.772 191.107C73.5946 191.594 73.4173 192.081 73.1567 192.585C73.1567 192.585 72.321 192.216 72.2378 192.233L72.2522 192.32Z" fill="#CB8587" fill-opacity="0.2"/>
<path d="M71.9907 192.282C73.0981 189.621 73.9124 186.75 74.2962 183.877C74.68 181.005 74.6732 177.852 73.0597 175.39C72.8499 175.162 73.1249 174.745 73.4035 174.868L74.3225 175.22C74.5034 175.273 74.63 175.517 74.4093 175.743C72.6181 177.914 71.5685 180.923 71.2534 183.692C71.0687 185.172 71.1482 186.687 71.3941 188.169C71.5243 188.953 71.6544 189.738 71.8678 190.505C71.9112 190.766 72.1354 191.081 72.0956 191.359C72.139 191.621 71.987 191.742 71.7374 191.793C67.0158 191.863 62.464 194.511 61.331 199.61C61.3599 199.785 61.1103 199.836 60.9294 199.783L60.0104 199.431C59.6486 199.325 59.8115 198.751 60.1589 198.77C63.104 198.885 66.2482 197.608 68.5966 195.683C69.7436 194.817 70.6808 193.723 71.6035 192.542C71.8242 192.316 71.864 192.038 72.1969 191.969C72.5297 191.901 72.7685 192.302 73.0182 192.251C73.2678 192.2 73.4089 192.531 73.2714 192.74C71.6069 195.155 69.4394 197.132 66.8922 198.377C64.9817 199.311 62.0581 200.362 60.0792 199.327C59.8983 199.274 59.8694 199.1 59.9236 198.908C60.463 196.454 61.8236 194.282 63.7449 192.896C64.8232 192.133 66.0281 191.615 67.2619 191.271C68.0109 191.117 68.6766 190.981 69.4255 190.827C69.7584 190.758 70.4676 190.883 70.786 190.727L70.5942 191.127C70.4929 190.517 70.2108 189.854 70.1096 189.244C69.9505 188.285 69.7914 187.327 69.6323 186.368C69.5384 184.765 69.6109 183.128 69.9475 181.527C70.2842 179.926 70.8018 178.377 71.5979 176.952C71.9959 176.239 72.6654 174.569 73.5699 174.834C74.6553 175.152 75.1219 176.408 75.3787 177.436C75.791 178.884 75.8849 180.487 75.8812 182.019C75.7107 185.659 74.6792 189.296 73.3402 192.635C73.3546 192.723 73.1194 192.861 73.0362 192.878C72.6889 192.859 72.3958 192.649 72.034 192.543C71.6723 192.438 71.9039 191.759 72.2657 191.865C72.5443 191.988 72.8228 192.111 73.0869 192.147L72.783 192.389C73.9447 189.537 74.8278 186.562 75.1827 183.515C75.3674 182.035 75.3856 180.589 75.2374 179.178C75.1217 178.481 74.6011 175.343 73.5048 175.478C72.7558 175.632 71.9089 177.789 71.5941 178.485C70.9788 179.963 70.6133 181.39 70.3599 182.974C70.1065 184.558 70.1714 185.987 70.4028 187.381C70.533 188.166 70.6632 188.95 70.7933 189.734C70.8512 190.083 71.0899 190.485 71.1477 190.833C71.1767 191.007 71.1912 191.095 70.956 191.233C70.3192 191.544 69.3459 191.384 68.6801 191.521C67.1822 191.829 65.7965 192.294 64.4686 193.107C62.2831 194.458 60.9225 196.63 60.3831 199.084L60.3108 198.649C62.1089 199.631 65.018 198.492 66.8452 197.576C69.226 196.365 71.1582 194.526 72.6853 192.319L72.9385 192.808C72.7721 192.842 72.7576 192.755 72.5767 192.702C72.3126 192.666 72.2981 192.579 72.1317 192.614C71.7156 192.699 71.2778 193.69 70.9883 194.02C70.0511 195.114 69.0705 195.946 67.909 196.726C65.5861 198.285 62.7457 199.32 59.967 199.17L60.1155 198.508L61.0344 198.86L60.6183 198.946C61.8201 193.742 66.7591 190.834 71.6616 190.818L71.3034 191.252C71.2455 190.903 71.0754 190.397 70.9199 189.979C70.7897 189.194 70.5764 188.427 70.5294 187.626C70.2835 186.144 70.2729 184.524 70.5408 183.027C70.939 180.242 71.9054 177.249 73.7798 175.061L73.8666 175.584L73.0308 175.215L73.3746 174.694C74.8903 177.086 75.1179 180.013 74.8173 182.869C74.4914 186.09 73.554 189.257 72.3236 192.214C72.1318 192.614 71.5745 192.368 71.6831 191.985L71.9907 192.282Z" fill="#CB8587" fill-opacity="0.2"/>
<path d="M77.6037 147.887C75.9434 147.235 74.4208 146.374 72.9526 145.322C70.1286 143.375 67.4678 140.853 66.1376 137.516C65.9818 137.097 65.826 136.677 65.6701 136.258C65.6411 136.084 65.257 134.809 65.4093 134.687C65.4093 134.687 65.576 134.653 65.6594 134.636C66.1597 134.533 66.8014 134.762 67.2618 134.938C69.2412 135.434 71.1952 136.296 72.7903 137.593C75.8825 140.117 77.6621 144.084 78.4122 148.081C78.3832 147.907 77.5349 147.991 77.4914 147.729C76.7304 144.185 75.3857 140.76 72.9896 138.274C72.1486 137.364 71.1698 136.663 70.1221 136.065C69.6472 135.802 69.1868 135.626 68.7119 135.362C68.6285 135.379 69.2557 135.521 68.7953 135.345C68.7119 135.362 68.6141 135.292 68.5162 135.222C68.3349 135.169 68.1536 135.116 67.8889 135.08C67.443 134.991 66.8993 134.832 66.4678 134.831L66.3011 134.865C66.2177 134.882 66.475 135.912 66.504 136.087C66.5765 136.523 66.7323 136.942 66.8881 137.362C68.1059 140.541 70.5166 143.115 73.1593 145.009C74.8232 146.201 76.5416 147.202 78.3977 147.994C78.2164 147.941 77.8394 147.748 77.5747 147.712L77.6037 147.887Z" fill="#CB8587" fill-opacity="0.2"/>
<path d="M77.4812 148.182C74.2442 146.862 71.1415 144.792 68.7312 142.218C67.5822 141.011 66.6543 139.577 65.9621 138.004C65.6794 137.34 65.4801 136.659 65.2808 135.978C65.2228 135.629 64.9547 135.052 65.0634 134.669C65.1178 134.477 65.2012 134.46 65.368 134.426C66.9122 134.379 68.6557 135.014 70.0658 135.717C71.5592 136.403 73.0127 137.368 74.1617 138.575C76.5721 141.149 77.9165 144.573 78.6774 148.117C78.7353 148.466 78.333 148.639 78.1228 148.411C78.0938 148.237 77.5101 148.357 77.2999 148.129C76.9918 147.831 76.9158 146.854 76.8434 146.418C76.4158 144.881 75.8903 143.274 75.1438 141.894C74.3972 140.513 73.3859 139.096 72.1825 138.08C71.5808 137.571 70.9791 137.063 70.3085 136.66C69.7358 136.326 69.0108 136.114 68.4236 135.693C68.13 135.483 68.3077 134.995 68.6702 135.101C68.6702 135.101 68.837 135.067 68.9494 135.224C69.2285 135.347 69.1631 135.993 68.8006 135.887C67.9089 135.709 67.0716 135.339 66.1255 135.353L66.43 135.11C66.3067 135.406 66.6039 136.157 66.7307 136.402C66.8611 137.188 67.2417 137.922 67.6222 138.656C68.3688 140.037 69.2677 141.296 70.4022 142.417C72.6856 144.745 75.4948 146.605 78.4527 147.802C78.8152 147.908 78.5831 148.588 78.2206 148.481C77.9415 148.358 77.6769 148.322 77.3977 148.199C77.0353 148.093 77.2673 147.414 77.6298 147.52C77.9089 147.643 78.1736 147.679 78.4527 147.802L78.2206 148.481C75.067 147.144 71.9787 145.161 69.5684 142.588C68.4194 141.38 67.5061 140.033 66.8139 138.461C66.5313 137.797 66.3175 137.029 66.1037 136.26C66.0312 135.824 65.7775 135.334 65.8863 134.951C65.8573 134.777 66.0241 134.742 66.1908 134.708C67.137 134.694 67.9743 135.064 68.866 135.241L68.7173 135.904C68.7173 135.904 68.536 135.851 68.4381 135.78L68.6847 135.188C69.2574 135.522 69.9824 135.734 70.5696 136.155C71.2402 136.558 71.8419 137.067 72.4436 137.575C73.5636 138.608 74.4479 139.78 75.2634 141.057C76.0789 142.333 76.6733 143.836 77.1008 145.372C77.1588 145.721 77.2168 146.07 77.3726 146.49C77.4161 146.751 77.5175 147.362 77.561 147.624C77.6044 147.886 78.2715 147.749 78.3983 147.994L77.8436 148.288C77.1262 145.006 75.8941 141.739 73.5816 139.236C72.4181 137.941 71.0481 136.959 69.4713 136.29C68.1591 135.657 66.4989 135.006 65.0525 135.122L65.3571 134.879C65.2193 135.088 65.5165 135.839 65.56 136.101C65.7737 136.869 66.0564 137.533 66.3536 138.285C67.0313 139.77 68.0135 141.012 69.148 142.133C71.4315 144.461 74.3385 146.391 77.2963 147.588C77.6588 147.694 77.4268 148.374 77.0643 148.268L77.4812 148.182Z" fill="#CB8587" fill-opacity="0.2"/>
<path d="M73.8371 102.713C77.7407 101.37 81.3264 98.1122 82.8124 94.1153C83.5896 92.0648 83.6586 89.8899 83.4636 87.6791L84.3816 88.0306C83.1924 88.6352 82.1152 89.3969 81.067 90.3327C78.8729 92.1342 76.9463 94.5111 75.84 97.1694C75.117 99.0287 74.7697 101.081 74.7551 103.065C74.7406 102.977 73.866 102.887 73.8371 102.713C73.6859 96.6219 77.3984 91.5371 82.2058 88.3879C82.5925 88.1283 82.9793 87.8688 83.4636 87.6791C83.4636 87.6791 84.3672 87.9436 84.3816 88.0306C84.8077 91.6344 84.0267 95.2162 81.7566 98.1138C80.2709 100.04 78.2828 101.529 76.1249 102.513C75.6406 102.702 75.2539 102.962 74.7551 103.065C74.5057 103.116 74.0865 102.662 73.8371 102.713Z" fill="#CB8587" fill-opacity="0.2"/>
<path d="M73.7793 102.365C76.5482 101.436 79.075 99.5657 80.8067 97.0487C82.7589 94.3063 83.4171 91.0195 83.0343 87.6767C82.9909 87.4154 83.2114 87.19 83.4897 87.3129L84.4078 87.6644C84.6861 87.7872 84.6608 88.1526 84.509 88.2739C81.8955 89.6216 79.4265 91.8399 77.6948 94.3569C75.9631 96.8739 75.0122 99.9507 75.1022 103.084C75.1456 103.345 74.6611 103.534 74.5202 103.203C74.5346 103.29 74.5202 103.203 74.354 103.237C74.2708 103.255 74.0901 103.202 73.9925 103.132C73.8262 103.166 73.7142 103.009 73.6166 102.939C73.5045 102.782 73.5443 102.503 73.5154 102.329C73.4432 101.894 73.5372 101.424 73.5481 100.972C73.6639 99.5976 74.0292 98.1719 74.5896 96.8862C75.6959 94.2276 77.4565 91.8848 79.6363 89.996C80.1604 89.528 80.699 89.1472 81.2377 88.7663C81.5413 88.5238 81.7764 88.3855 82.0945 88.23C82.4813 87.9704 82.9367 87.6067 83.3524 87.5212C83.685 87.4528 84.0464 87.5586 84.3392 87.7685C84.8958 88.0143 84.7475 88.6751 84.751 89.2146C84.9098 92.2433 84.1395 95.373 82.3247 97.9071C81.1968 99.3996 79.8593 100.665 78.3122 101.703C77.4554 102.24 76.5987 102.776 75.7131 103.138C75.3805 103.206 74.925 103.57 74.578 103.552C74.3286 103.603 74.0901 103.202 73.8407 103.253C73.425 103.338 73.4757 102.608 73.9058 102.609C74.0721 102.575 74.1697 102.645 74.3648 102.785C74.7407 102.978 74.907 102.944 75.3082 102.771C76.0276 102.443 76.6638 102.132 77.3687 101.717C78.6953 100.904 79.91 99.9342 80.9294 98.8242C82.8165 96.7255 83.9228 94.067 84.1255 91.144C84.1762 90.4132 84.1438 89.6996 84.1113 88.9859C84.0969 88.8989 84.068 88.7247 84.0391 88.5506C84.0246 88.4635 83.5656 88.2877 83.4824 88.3048C83.3162 88.339 82.7776 88.7199 82.6258 88.8411C82.3908 88.9795 82.0871 89.222 81.8522 89.3603C81.3135 89.7412 80.7748 90.1221 80.2507 90.59C78.3745 92.2363 76.7224 94.1966 75.6414 96.4898C75.081 97.7756 74.6182 99.1313 74.4193 100.523C74.3542 101.166 74.1661 102.106 74.2673 102.715C74.2962 102.889 74.101 102.749 74.2817 102.802C74.3649 102.785 74.5456 102.838 74.6432 102.908C74.7408 102.978 74.9214 103.031 75.019 103.101L74.4371 103.22C74.2968 96.6762 78.6567 90.8277 84.2018 87.9769L84.303 88.5863L83.3017 88.252L83.7572 87.8882C84.1689 91.4052 83.4564 94.8831 81.3524 97.7468C79.4689 100.385 76.7759 102.289 73.8552 103.34C73.4395 103.425 73.3383 102.816 73.7396 102.643L73.7793 102.365Z" fill="#CB8587" fill-opacity="0.2"/>
<path d="M60.5573 88.8347C61.3786 91.19 61.7981 93.7181 62.0367 96.1932C62.203 98.2324 62.2173 100.393 61.7863 102.465C61.4496 104.067 60.8197 105.458 59.94 106.901C58.3183 109.578 55.4806 111.153 52.52 110.951C51.3944 110.912 50.3919 110.577 49.2917 110.172C48.832 109.996 48.3724 109.82 47.9128 109.644C47.7318 109.591 47.1745 109.345 47.1456 109.171C47.1167 108.996 47.3773 108.492 47.4461 108.388C47.6235 107.9 47.8841 107.396 48.1592 106.979C49.0388 105.536 50.4071 104.444 51.9887 104.118C54.2364 103.656 56.4368 104.466 58.4707 105.31L57.5515 104.958C56.2634 101.347 55.873 96.9194 57.0569 93.1602C57.5457 91.4371 58.4109 89.907 59.6525 88.57C59.7357 88.5529 60.4052 88.9561 60.5717 88.9219C56.847 92.9329 56.8029 98.8918 58.0728 103.949C58.1451 104.385 58.3007 104.804 58.4707 105.31C58.4563 105.223 57.7324 105.011 57.5515 104.958C55.7817 104.15 53.5849 103.88 51.7425 104.71C50.5373 105.228 49.5852 106.235 48.8975 107.278C48.6223 107.695 48.4305 108.095 48.2531 108.582C48.1988 108.774 47.9237 109.191 47.9526 109.365C47.9815 109.54 47.9526 109.365 47.9815 109.54C48.1914 109.767 48.7344 109.926 49.0963 110.032C49.5559 110.208 49.9179 110.314 50.363 110.402C51.3366 110.563 52.379 110.619 53.3924 110.501C55.7233 110.022 57.714 108.531 59.0895 106.445C59.9836 105.089 60.5158 103.628 60.8526 102.026C61.2292 100.145 61.2439 98.1592 61.0921 96.2071C60.9223 93.6277 60.4049 91.0296 59.5691 88.5871C59.5981 88.7615 60.3617 88.6946 60.4884 88.939L60.5573 88.8347Z" fill="#CB8587" fill-opacity="0.2"/>
<path d="M60.8735 88.6794C62.9429 94.9246 64.0603 104.25 58.4937 109.09C56.0904 111.207 52.9671 111.578 50.0575 110.644C49.236 110.362 48.4978 110.063 47.7595 109.764C47.3976 109.659 47.0213 109.465 46.8657 109.047C46.7101 108.628 47.2747 107.881 47.4666 107.481C47.7815 106.785 48.1942 106.159 48.7045 105.604C51.4481 102.426 55.3855 103.329 58.7149 104.718C59.0912 104.911 58.845 105.502 58.4831 105.397C57.4807 105.062 57.3831 104.992 57.1262 103.963C56.8151 103.125 56.6559 102.166 56.5112 101.295C56.1929 99.377 56.1099 97.3208 56.3743 95.2833C56.5844 93.4373 57.1564 91.6971 58.1047 90.15C58.4341 89.5415 59.0097 88.3414 59.6612 88.1174C60.0629 87.9446 60.3162 88.4334 60.6491 88.365C60.9821 88.2965 61.1376 88.7153 60.9169 88.941C57.1526 93.2303 57.2099 99.799 58.9103 104.858C58.9537 105.119 58.6786 105.537 58.4687 105.309C58.2733 105.169 57.9259 105.151 57.6473 105.028C57.1877 104.852 56.8113 104.659 56.3662 104.57C55.2805 104.252 54.0717 104.23 53.004 104.54C51.9364 104.849 50.8433 105.525 50.0579 106.497C49.41 107.262 48.7223 108.305 48.5485 109.332C48.4544 109.802 47.8427 109.747 47.9369 109.277C47.8935 109.016 48.2952 108.843 48.5196 109.157C49.2469 109.909 50.8176 110.037 51.7766 110.11C52.9998 110.22 54.2629 110.05 55.3849 109.549C57.6288 108.547 59.1852 106.514 60.1011 104.253C62.1536 99.5039 61.1263 93.3149 59.567 88.5874C59.5236 88.3259 59.7988 87.9088 60.0086 88.1361C60.2185 88.3634 60.718 88.2607 60.9278 88.488C61.2354 88.7853 60.7106 89.2538 60.403 88.9564C60.2076 88.8163 59.7913 88.9019 59.5815 88.6746L60.0231 88.2233C61.7669 93.5438 62.7434 100.464 59.9019 105.646C58.7218 107.871 56.8723 109.694 54.4872 110.365C53.1699 110.726 51.7947 110.738 50.4593 110.471C49.569 110.294 48.4145 110.08 47.7849 109.399L48.3675 109.279C48.1721 109.139 47.9224 109.19 47.7415 109.137C48.0602 106.908 50.1848 104.669 52.1247 103.909C53.3443 103.478 54.6219 103.396 55.874 103.679C56.5001 103.821 57.0574 104.067 57.698 104.296C57.9766 104.419 58.4073 104.421 58.6172 104.648L58.1756 105.099C56.3341 99.7086 56.3167 92.8613 60.3017 88.3463L60.5695 88.9222C60.3198 88.9735 59.9145 88.6062 59.748 88.6404C59.4983 88.6917 59.0313 89.5089 58.8937 89.7174C58.6874 90.0303 58.5499 90.2388 58.3436 90.5516C57.4785 92.0816 57.0585 93.7004 56.8194 95.3721C56.5804 97.0438 56.6744 98.6471 56.866 100.32C56.9962 101.105 57.1265 101.889 57.2567 102.674C57.329 103.11 57.3868 103.459 57.6256 103.86C57.8789 104.349 58.0599 104.402 58.534 104.665L58.3022 105.344C56.5326 104.536 54.6109 103.849 52.653 103.981C50.876 104.166 49.3415 105.293 48.3099 106.857C48.0348 107.274 47.8574 107.761 47.5823 108.178C47.3905 108.578 47.405 108.665 47.7125 108.963C48.3965 109.453 49.3844 109.701 50.1915 109.896C52.0009 110.425 53.8213 110.501 55.5947 109.776C59.0583 108.343 61.0202 104.605 61.4404 100.912C61.9692 96.8375 61.2603 92.5662 60.0266 88.7634C59.9543 88.3276 60.5081 88.0334 60.5804 88.4693L60.8735 88.6794Z" fill="#CB8587" fill-opacity="0.2"/>
<path d="M78.037 62.9569C76.988 61.8209 76.1309 60.2851 75.5522 58.8722C74.1417 55.5578 73.7007 51.8639 74.5657 48.2619C74.5657 48.2619 75.3868 48.5436 75.4845 48.6136C76.056 48.9467 76.5877 49.5582 76.9386 50.1169C78.143 51.6714 78.9062 53.6772 79.322 55.6642C79.6257 57.4941 79.8461 59.3411 79.8025 61.1522L78.8837 60.8004C80.8446 59.1358 83.6554 57.9272 86.0755 58.511C86.7013 58.6526 87.4392 58.9515 87.9963 59.1974C88.3725 59.3904 88.7632 59.6705 89.1539 59.9506C89.3492 60.0907 89.7398 60.3708 89.6856 60.5622C89.7 60.6493 89.3672 60.7177 89.2153 60.8391C88.8969 60.9946 88.6617 61.1331 88.3433 61.2886C87.5547 61.7211 86.6684 62.0835 85.8508 62.3417C83.6621 63.1521 81.195 63.8395 78.8582 63.2386C78.5941 63.2028 78.3011 62.9927 77.9393 62.8869C79.8312 63.399 81.8281 62.9885 83.7129 62.4208C85.2648 61.9215 86.7191 61.3522 88.2132 60.5044C88.3796 60.4702 88.5461 60.436 88.6836 60.2275C88.8355 60.1062 88.85 60.1933 88.6547 60.0532C88.5136 59.7218 87.9275 59.3016 87.5513 59.1086C87.356 58.9686 87.1607 58.8285 86.8966 58.7927C86.3396 58.5468 86.8966 58.7927 86.9798 58.7756C86.8134 58.8098 86.6181 58.6697 86.4517 58.7039C84.936 58.3848 83.2864 58.814 81.9442 59.5405C81.0723 59.99 80.2837 60.4225 79.5384 61.1164C79.5384 61.1164 78.6341 60.8518 78.6196 60.7646C78.62 56.6195 77.9477 51.5314 74.8044 48.6633C74.6091 48.5233 74.497 48.3661 74.2185 48.2431L75.1373 48.5949C74.3555 52.1798 74.7133 55.8908 76.1237 59.2052C76.8 60.6882 77.5595 62.154 78.6085 63.2899C78.3987 63.0628 77.8995 63.1654 77.6897 62.9382L78.037 62.9569Z" fill="#CB8587" fill-opacity="0.2"/>
<path d="M77.8019 63.0947C74.3189 59.2155 73.0861 53.3419 74.2043 48.1563C74.1754 47.982 74.3961 47.7565 74.6746 47.8794C74.9531 48.0024 75.2172 48.0382 75.4957 48.1611C75.9551 48.337 76.2914 48.8085 76.682 49.0886C77.5211 49.9973 78.2372 51.2017 78.6892 52.3702C79.8175 55.0216 80.1428 58.0182 80.1207 60.9962C80.1497 61.1704 79.8313 61.326 79.6505 61.273L78.7317 60.9213C78.5509 60.8684 78.493 60.5199 78.645 60.3985C80.385 58.9596 82.447 57.9049 84.6824 57.8959C85.7929 57.8478 86.878 58.1653 87.9089 58.6742C88.3683 58.8501 88.759 59.1302 89.1641 59.4974C89.3738 59.7246 89.8332 59.9005 89.9743 60.2319C90.2708 60.9819 88.9541 61.3427 88.5526 61.5153C87.3624 62.1204 86.2265 62.5341 85.0075 62.965C83.7884 63.3958 82.6236 63.6352 81.3467 63.7175C80.0698 63.7998 79.0824 63.5523 77.9828 63.1477C77.6211 63.0418 77.867 62.4506 78.2288 62.5565C80.1893 62.9644 82.186 62.5539 84.1539 61.9691C85.1378 61.6767 86.0241 61.3143 86.9791 60.8477C87.6157 60.5366 88.3067 60.0341 88.9578 59.8101L88.795 60.3842C88.3321 59.6685 87.5797 59.2825 86.925 58.9666L87.1711 58.3754L87.3519 58.4283C87.7136 58.5342 87.7317 59.1612 87.2868 59.0724C86.4114 58.9821 85.6048 58.7875 84.6896 58.9756C83.6912 59.1809 82.7218 59.5604 81.7668 60.027C81.2965 60.3039 80.8262 60.5808 80.3704 60.9449C80.2184 61.0662 79.9977 61.2918 79.7481 61.3431C79.4153 61.4115 79.0247 61.1314 78.7462 61.0084C78.663 61.0255 78.6341 60.8513 78.6884 60.6599C78.6888 56.515 78.0962 50.8702 74.4285 48.4706C74.1356 48.2605 74.3129 47.7736 74.6746 47.8794L75.5933 48.2312C75.6765 48.2141 75.8031 48.4583 75.8175 48.5455C74.7535 53.5397 75.9575 59.239 79.2452 62.9782C79.4695 63.2926 79.0968 63.6395 78.8183 63.5165C78.5253 63.3065 78.1925 63.3749 77.8995 63.1648C77.6065 62.9547 77.9358 62.3464 78.2432 62.6436C78.5362 62.8537 78.869 62.7853 79.162 62.9954L78.7351 63.5336C75.2521 59.6544 74.0193 53.7808 75.1375 48.5952L75.3617 48.9095L74.443 48.5578L74.689 47.9665C78.552 50.5062 79.188 56.4124 79.2165 60.7316L79.1586 60.383C79.1731 60.4702 79.4516 60.5931 79.6324 60.646C79.7988 60.6118 80.1027 60.3691 80.3379 60.2307C81.112 59.7111 81.9006 59.2787 82.7037 58.9334C83.4236 58.6052 84.2556 58.4341 85.0188 58.3673C85.7821 58.3005 86.491 58.4251 87.2 58.5496L87.1348 59.1938C86.9684 59.228 86.7731 59.0879 86.5922 59.035C86.2992 58.8249 86.4766 58.3379 86.8383 58.4438C87.6738 58.8126 88.5238 59.2686 89.0012 60.0715C89.1278 60.3158 89.0735 60.5072 88.8384 60.6456C88.5056 60.714 88.133 61.061 87.8146 61.2165C87.3299 61.4063 86.8597 61.6831 86.3749 61.8729C85.4055 62.2524 84.5192 62.6148 83.5353 62.9072C81.6507 63.4749 79.7081 63.694 77.8453 63.3562L78.0913 62.7649C79.0933 63.0996 79.9831 63.277 81.0104 63.2461C82.0377 63.2151 82.9529 63.0269 83.9368 62.7345C84.9208 62.4422 85.8902 62.0626 86.8597 61.6831C87.1925 61.6147 89.2001 60.7515 89.2399 60.473C89.211 60.2987 88.5418 59.8957 88.4442 59.8256C88.0535 59.5455 87.5797 59.2825 87.0371 59.1238C86.1184 58.772 85.1454 58.6116 84.2013 58.6255C82.342 58.8275 80.5152 59.7437 79.079 60.94L78.9923 60.4172L79.911 60.769L79.4407 61.0459C79.4229 58.3464 79.2098 55.5069 78.1104 53.0298C77.6584 51.8613 77.04 50.727 76.2009 49.8182C75.879 49.4339 75.4738 49.0667 75 48.8037C74.7215 48.6807 74.4575 48.6449 74.2622 48.5048L74.7324 48.228C73.6684 53.2222 74.8723 58.9215 78.16 62.6607C78.4675 62.9579 77.943 63.4262 77.6355 63.1289L77.8019 63.0947Z" fill="#CB8587" fill-opacity="0.2"/>
<path d="M67.9729 43.2675C68.3368 45.975 68.2176 48.8716 67.6404 51.5929C67.2255 53.7424 66.4644 55.8733 65.1337 57.6724C64.8596 58.0877 64.5026 58.5201 64.0482 58.8827C63.8282 59.1074 63.3883 59.5568 63.0566 59.6249C62.8078 59.676 62.4328 59.4838 62.1696 59.4481C58.8019 58.7937 55.2647 57.6356 52.3731 55.7166C50.6353 54.5478 49.0201 53.0846 48.0792 51.0341C47.8124 50.4607 47.9098 50.5304 48.3389 50.532C48.8365 50.4298 49.4315 50.3973 49.9579 50.4687C54.4975 50.4336 59.1343 52.5326 61.7625 56.4802L60.8466 56.1299C60.7965 52.7296 61.7127 48.9514 63.6457 46.131C64.5509 44.868 65.6507 43.7446 66.9056 43.038C67.0715 43.0039 67.5726 43.4395 67.8214 43.3884C63.8513 45.8195 62.1814 50.7399 61.8239 55.3008C61.7986 55.665 61.7877 56.116 61.7625 56.4802C61.748 56.3934 60.9584 56.2864 60.8466 56.1299C59.4911 54.1646 57.6811 52.5619 55.5574 51.6519C55.4745 51.6689 55.2799 51.5294 55.197 51.5464C55.5575 51.6519 54.5588 51.3185 55.197 51.5464C55.0167 51.4937 54.739 51.3712 54.4758 51.3356C54.0323 51.2472 53.5888 51.1588 53.1453 51.0704C52.4386 50.9463 51.6634 50.9261 50.8881 50.9058C50.3761 50.9213 49.8641 50.9367 49.352 50.9522C49.352 50.9522 48.7571 50.9846 48.7715 51.0714C48.7174 51.262 49.1933 52.0618 49.3051 52.2183C49.5575 52.705 49.7953 53.1049 50.1162 53.4877C50.758 54.2534 51.4682 54.9152 52.2614 55.56C55.0016 57.5999 58.2754 58.7223 61.5602 59.3938C61.7261 59.3597 62.0182 59.569 62.184 59.5349C62.5158 59.4668 62.9413 58.9306 63.2442 58.6889C63.6157 58.3433 63.9726 57.911 64.2467 57.4957C65.4403 55.9042 66.1329 53.8771 66.5766 51.9012C67.1394 49.0931 67.3128 46.0059 66.9344 43.2116C66.9633 43.3852 67.8214 43.3884 67.8503 43.562L67.9729 43.2675Z" fill="#CB8587" fill-opacity="0.2"/>
<path d="M68.3041 43.1968C68.8158 47.3109 68.4584 51.8728 66.6837 55.6487C65.9731 57.0515 64.9199 58.9735 63.5134 59.8011C63.0446 60.077 62.5865 59.9018 62.0456 59.7436C61.0611 59.497 60.0767 59.2504 59.0923 59.0038C55.4861 57.9493 51.6132 56.3212 49.1289 53.2407C48.7106 52.7881 47.0916 50.7866 47.9319 50.1651C48.3863 49.8025 49.5366 50.015 50.1317 49.9825C51.0729 49.9687 51.9457 50.0587 52.8328 50.2355C56.5471 50.9087 59.9656 52.8995 62.1326 56.1349C62.3417 56.3612 62.0676 56.7766 61.7899 56.6541L60.874 56.3037C60.7081 56.3378 60.6649 56.0773 60.6505 55.9905C60.658 52.9368 61.2606 49.8506 62.6961 47.1318C63.4211 45.8159 64.2434 44.5697 65.3722 43.6196C65.7437 43.274 66.4037 42.5997 66.9014 42.4975C67.3991 42.3952 67.5542 42.8122 67.9004 42.8309C68.2466 42.8495 68.2357 43.3006 68.0013 43.4385C63.8106 46.0949 62.1295 51.4675 62.1614 56.3085C62.2047 56.5689 61.8873 56.7239 61.6926 56.5844C61.4835 56.358 60.9858 56.4603 60.7767 56.2339C60.4702 55.9378 60.2177 55.4511 59.9942 55.1379C59.7706 54.8247 59.4642 54.5286 59.1577 54.2325C57.9173 52.9613 56.5289 52.3488 55.0144 51.4929C54.7367 51.3704 54.7188 50.7457 55.1623 50.8341C55.2453 50.8171 55.3426 50.8869 55.4399 50.9567C55.7176 51.0791 55.6923 51.4434 55.5408 51.5643C55.3064 51.7022 54.7511 51.4572 54.4735 51.3347C53.5719 51.0711 52.6993 50.9811 51.7436 50.9081C51.3974 50.8895 49.4032 50.7606 49.349 50.9512C49.3635 51.0381 49.5185 51.455 49.6447 51.6984C51.4655 54.9152 54.8551 56.7323 58.198 57.7512C58.9192 57.9621 59.6405 58.173 60.3617 58.3839C61.1659 58.5778 61.9988 58.9453 62.6732 58.3579C64.0365 57.2698 64.9527 55.5555 65.5371 53.9093C66.8429 50.4093 67.121 46.4023 66.6959 42.809C66.6382 42.4618 67.0385 42.2898 67.2476 42.5161C67.4567 42.7425 67.857 42.5705 68.1635 42.8666C68.47 43.1627 67.9471 43.6292 67.6406 43.3331C67.4315 43.1067 67.0312 43.2787 66.7247 42.9826L67.2764 42.6897C67.6728 46.1094 67.4885 49.6483 66.5 52.9933C66.0671 54.5186 65.4539 55.9912 64.4657 57.2714C63.903 58.0154 62.8607 59.4864 61.9194 59.5002C60.5347 59.4256 58.8831 58.7774 57.6066 58.3215C56.1497 57.8129 54.7614 57.2005 53.4272 56.3973C52.093 55.5942 50.7984 54.5136 49.8212 53.278C49.3885 52.7385 48.4113 51.503 48.5449 50.7574C48.5304 50.6705 48.599 50.5667 48.7505 50.4458C49.634 50.0847 50.9359 50.1764 51.8086 50.2664C52.5009 50.3037 53.2907 50.4107 53.9146 50.5519C54.0805 50.5178 54.2752 50.6573 54.5384 50.693C54.7187 50.7457 55.5085 50.8528 55.2741 50.9907L55.375 51.5984C55.375 51.5984 55.2091 51.6325 55.1947 51.5457L55.3426 50.8869C56.7453 51.5862 57.9678 52.2327 59.1649 53.2435C59.7635 53.749 60.2792 54.2714 60.7263 54.8977C61.0472 55.2807 61.1878 55.6108 61.6458 55.7861C61.8261 55.8388 61.992 55.8047 62.1038 55.9613L61.6349 56.2371C61.6427 51.1186 63.4751 45.6252 67.8173 42.8479L67.9182 43.4556C67.6694 43.5067 67.3774 43.2974 67.1142 43.2617C66.5191 43.2942 65.722 44.1761 65.3505 44.5218C64.3191 45.5416 63.4967 46.7878 62.952 48.1565C61.8194 50.6335 61.325 53.3384 61.4113 55.924L61.1878 55.6108L62.1038 55.9613L61.7611 56.4805C60.07 54.0451 57.636 52.3009 54.8197 51.3534C53.4602 50.9145 52.0465 50.6663 50.5788 50.6088C50.0667 50.6242 49.5547 50.6397 49.0426 50.6551C48.7938 50.7062 48.379 50.7915 48.516 50.5838C48.5449 50.7574 48.909 51.4007 49.0208 51.5573C49.2588 51.9572 49.4968 52.3572 49.8177 52.7401C51.9668 55.3508 55.2302 56.9246 58.3098 57.9078C59.7666 58.4164 61.4039 58.9777 62.886 59.1221C63.5784 59.1594 64.3611 58.1906 64.7867 57.6544C65.3637 56.9972 65.829 56.1834 66.1969 55.2999C67.903 51.6278 68.192 47.1697 67.7777 43.1254C67.7056 42.6914 68.3692 42.555 68.4413 42.9891L68.3041 43.1968Z" fill="#CB8587" fill-opacity="0.2"/>
</svg>
