<svg width="79" height="252" viewBox="0 0 79 252" fill="none" xmlns="http://www.w3.org/2000/svg">
<path d="M-3.52952 52.0262C-7.0314 50.8561 -10.5875 49.4949 -13.9629 48.0808C-16.9372 46.8392 -19.8826 45.4236 -22.7304 43.9379C-25.1771 42.6247 -27.6779 41.1204 -29.7597 39.1621C-31.1656 37.7928 -32.9004 35.8158 -32.1923 33.6209L-33.1102 33.9723C-32.1237 33.7251 -30.9599 33.9643 -29.9625 34.1694C-26.3884 34.9042 -22.8902 36.6136 -19.6845 38.5328C-16.3958 40.4692 -13.2479 42.7367 -10.2807 45.0571C-10.1976 45.0742 -9.446 44.6886 -9.36288 44.7057C-10.7508 42.71 -12.0267 40.5573 -13.2339 38.5087C-15.2906 34.8452 -17.3869 30.9035 -17.9836 26.73C-18.291 24.9565 -18.237 23.0772 -17.1313 21.5942L-18.0492 21.9456C-17.1782 22.3947 -16.3506 23.105 -15.6061 23.7981C-13.5244 25.7564 -11.8617 28.1686 -10.5749 30.7737C-9.41105 33.0834 -8.44234 35.533 -7.7374 38.0184C-7.7374 38.0184 -6.83398 37.754 -6.81953 37.667C-6.54527 33.9426 -6.10481 30.2524 -5.24872 26.6476C-4.8189 24.5755 -4.24817 22.1723 -2.93293 20.4623C-2.70891 20.1483 -2.49927 19.9214 -2.20658 19.7115C-2.20658 19.7115 -2.02593 19.6586 -2.01149 19.5715C-2.01149 19.5715 -2.73416 19.783 -2.74861 19.8701L-2.58241 19.9043C-2.33305 19.9555 -2.14152 20.355 -2.0873 20.5462C-1.67882 21.7104 -1.66054 23.1544 -1.6821 24.3202C-1.66744 26.3036 -1.75032 28.357 -1.91635 30.3933C-2.25195 35.0053 -2.76824 39.6701 -3.36764 44.3179C-3.67101 46.1459 -3.79373 47.921 -4.0971 49.749C-4.19822 50.3584 -4.29935 50.9677 -4.38602 51.49C-4.42936 51.7512 -4.50159 52.1864 -4.54493 52.4476L-4.55938 52.5346C-4.53049 52.3605 -3.6704 52.3573 -3.64151 52.1832C-3.25147 49.8329 -2.9445 47.4655 -2.63758 45.0981C-2.02373 40.3633 -1.50746 35.6984 -1.05984 30.9295C-0.879375 28.8061 -0.782047 26.6657 -0.767817 24.5082C-0.800481 23.1512 -0.721094 21.6372 -1.10068 20.2989C-1.22358 20.0036 -1.33209 19.6212 -1.567 19.4829C-1.96815 19.3104 -2.53909 19.6431 -2.90046 19.7488C-3.55452 20.0645 -4.01703 20.7796 -4.38196 21.4247C-4.88778 22.4009 -5.24176 23.4984 -5.58135 24.5088C-6.78792 28.6717 -7.35844 33.1453 -7.74827 37.5661C-7.76271 37.6531 -7.77716 37.7402 -7.7916 37.8272L-6.87374 37.4758C-8.02694 33.548 -9.70781 29.6917 -12.0716 26.3251C-13.2535 24.6419 -14.7135 23.0814 -16.4121 21.9221C-16.7301 21.7667 -16.9507 21.5413 -17.2687 21.3859C-17.3518 21.3688 -18.089 21.6673 -18.1866 21.7373C-19.1658 22.9763 -19.274 24.6644 -19.0895 26.1426C-18.9086 28.1602 -18.2001 30.1062 -17.4772 31.9652C-15.9481 35.7003 -13.9602 39.2596 -11.7772 42.679C-11.2964 43.408 -10.8157 44.1369 -10.335 44.8659L-9.41709 44.5145C-12.9227 41.8134 -16.5405 39.2692 -20.3966 37.1262C-22.677 35.8472 -25.1526 34.7081 -27.6172 34.0214C-28.8496 33.678 -30.1795 33.4046 -31.4696 33.4094C-31.9827 33.394 -33.0235 33.4501 -33.2764 33.9382C-33.5438 34.5133 -33.4244 35.3481 -33.2617 35.9216C-33.0448 36.6863 -32.5642 37.4153 -32.1377 37.9531C-30.8582 39.5664 -29.0909 40.8299 -27.3923 41.9893C-23.0555 44.8613 -18.3393 47.0011 -13.6629 48.8627C-11.7403 49.708 -9.78872 50.3793 -7.85165 51.1376C-7.20115 51.3614 -6.55063 51.5851 -5.90013 51.8089C-5.56765 51.8772 -5.18101 52.1367 -4.84853 52.2051C-4.51606 52.2734 -4.76535 52.2222 -4.68223 52.2393C-4.43288 52.2905 -4.01373 51.8366 -3.76437 51.8879L-3.52952 52.0262Z" fill="#CB8587" fill-opacity="0.2"/>
<path d="M-3.47428 51.6791C-9.34344 49.7523 -15.0572 47.4073 -20.6012 44.5572C-23.2142 43.2098 -25.8959 41.7582 -28.2559 39.9227C-30.0775 38.468 -32.7122 36.2159 -31.9319 33.5856C-31.8886 33.3245 -32.109 33.0991 -32.3873 33.222L-33.3052 33.5734C-33.6665 33.6792 -33.5184 34.3398 -33.157 34.234C-31.0176 33.7736 -28.3323 34.6858 -26.3121 35.4612C-24.0569 36.3749 -21.8451 37.5498 -19.6477 38.8118C-17.4503 40.0737 -15.2964 41.5968 -13.2254 43.1028C-12.6869 43.4836 -12.2315 43.8473 -11.7761 44.211C-11.3894 44.4705 -10.8942 45.1124 -10.3955 45.215C-9.97988 45.3004 -9.74143 44.8993 -9.40894 44.9677C-9.15958 45.0189 -8.93562 44.7049 -9.07297 44.4966C-11.4368 41.13 -13.5765 37.4493 -15.3549 33.6629C-16.1899 31.9609 -16.8443 30.2059 -17.3034 28.3111C-17.8855 26.121 -18.2436 23.6168 -16.8994 21.7326C-16.6898 21.5056 -16.9645 21.0891 -17.2428 21.2119L-18.1607 21.5633C-18.4389 21.6861 -18.4136 22.0514 -18.2618 22.1727C-15.4826 23.5542 -13.3103 26.5214 -11.7741 29.1778C-10.2379 31.8342 -8.95467 34.9787 -8.08702 38.0377C-8.03279 38.2289 -7.78345 38.2802 -7.58831 38.1403C-7.31006 38.0174 -6.89445 38.1029 -6.67043 37.7889C-6.34883 37.4049 -6.43928 36.396 -6.3526 35.8737C-6.18657 33.8374 -5.92292 31.731 -5.59065 29.7289C-5.28727 27.9008 -4.9984 26.1597 -4.44566 24.3829C-3.89292 22.6061 -3.32565 20.7423 -1.87658 19.7799C-1.58388 19.57 -1.76103 19.0835 -2.12241 19.1892C-2.40066 19.3121 -2.66451 19.3478 -2.85965 19.4878C-3.06923 19.7147 -2.9752 20.1842 -2.61382 20.0784C-1.46101 19.8653 -1.8686 26.9832 -1.88661 27.6097C-2.03086 30.5507 -2.27276 33.5617 -2.5977 36.5556C-3.132 41.8471 -3.84694 47.1914 -4.63061 52.4316C-4.67395 52.6927 -4.37037 52.9352 -4.17524 52.7953C-3.88254 52.5854 -3.48138 52.7579 -3.25735 52.4439C-3.04777 52.2169 -3.12733 51.6604 -3.09844 51.4863C-3.01176 50.964 -2.91063 50.3546 -2.82396 49.8323C-2.47724 47.7431 -2.29672 45.6197 -1.95001 43.5304C-1.40837 39.2307 -0.964317 35.001 -0.588924 30.6671C-0.422897 28.6308 -0.354479 26.6644 -0.271573 24.6109C-0.289792 23.1668 -0.0261748 21.0605 -0.850271 19.8108C-1.38522 18.8907 -2.49829 19.382 -3.26439 19.8547C-4.61589 20.7471 -5.19752 22.698 -5.70692 24.2137C-7.03999 28.6207 -7.65386 33.3556 -8.00392 38.0548C-8.04726 38.316 -7.82671 38.5414 -7.54845 38.4185L-6.63056 38.0671C-6.44987 38.0142 -6.421 37.8401 -6.47523 37.6489C-8.25387 31.792 -11.1782 25.0693 -16.3861 21.7481C-18.5691 20.3991 -19.3277 23.934 -19.2553 25.5693C-19.2079 28.9098 -17.7728 32.1756 -16.3775 35.163C-14.6533 38.7583 -12.6364 42.1436 -10.4244 45.3891C-10.3557 45.4932 -10.1895 45.5274 -10.092 45.4574L-9.17409 45.106C-8.9934 45.0531 -8.85249 44.722 -9.08741 44.5837C-12.8136 41.6571 -16.6663 38.9746 -20.7719 36.7802C-22.8319 35.7265 -24.9063 34.7599 -27.0386 34.1415C-28.6721 33.6257 -30.8044 33.0073 -32.5282 33.5531C-33.9737 33.9761 -33.5976 35.8538 -33.106 37.0351C-32.2855 38.8242 -30.782 40.1236 -29.3327 41.2317C-25.5921 44.0712 -21.3058 46.2127 -17.1424 48.0589C-14.6667 49.198 -12.0791 50.1801 -9.49145 51.1622C-8.27352 51.5926 -6.98694 52.1272 -5.76901 52.5576C-5.43653 52.626 -4.81492 53.0238 -4.46799 53.0052C-4.1355 53.0735 -3.89703 52.6724 -3.55009 52.6537C-3.12004 52.6521 -3.17067 51.9215 -3.61517 52.0102C-3.78141 51.976 -3.89343 52.133 -4.07412 52.1859C-4.69931 52.3274 -5.01738 52.172 -5.58479 51.9654C-6.63647 51.5691 -7.68807 51.1729 -8.7542 50.8637C-10.6913 50.1053 -12.6285 49.347 -14.5656 48.5887C-18.2592 47.0191 -22.0214 45.3454 -25.4476 43.2007C-27.1607 42.1284 -28.7907 41.0731 -30.2942 39.7737C-31.1074 38.9764 -34.7434 34.9881 -32.2969 34.2308C-30.6707 33.7549 -28.4697 34.4775 -26.9193 34.9763C-24.9533 35.5605 -23.0451 36.4929 -21.2344 37.4953C-17.1288 39.6897 -13.3592 42.3551 -9.70169 45.1776L-9.61501 44.6553L-10.5329 45.0067L-10.2004 45.075C-12.3582 42.0208 -14.3895 38.7225 -16.045 35.2314C-17.5777 32.0356 -19.5621 27.9368 -18.8723 24.2977C-18.7567 23.6013 -18.3305 22.0685 -17.4161 22.2565C-16.668 22.4103 -15.7861 23.3118 -15.1934 23.8838C-13.8417 25.0619 -12.714 26.554 -11.767 28.099C-9.77539 31.1191 -8.36925 34.5589 -7.32447 38.1045L-7.25223 37.6692C-7.16911 37.6863 -8.00392 38.0548 -8.00392 38.0548L-7.54845 38.4185C-7.22729 33.8935 -6.73996 29.4026 -5.42133 25.0826C-5.05284 23.898 -4.6699 22.6264 -3.98337 21.5973C-3.52087 20.8822 -2.19464 19.6245 -1.55123 20.927C-1.0994 21.8301 -1.26187 23.3271 -1.25454 24.3188C-1.2761 25.4847 -1.29768 26.6505 -1.31925 27.8163C-1.55729 32.3585 -2.04474 36.8494 -2.53215 41.3403C-2.82464 43.6207 -3.11709 45.9011 -3.39513 48.0945C-3.58293 49.2262 -3.7563 50.2708 -3.9441 51.4025C-4.04523 52.0118 -4.08858 52.273 -4.4933 52.6399C-4.59087 52.7098 -4.75713 52.6756 -4.86915 52.8327L-4.41367 53.1963C-3.48554 47.0857 -2.70922 40.8538 -2.11357 34.6747C-1.9511 33.1778 -0.391327 19.6351 -3.04388 20.08L-2.79805 20.6707C-2.60291 20.5308 -2.35359 20.582 -2.15845 20.4421L-2.40428 19.8514C-4.91215 21.4964 -5.46465 25.3437 -6.01006 28.1123C-6.35678 30.2015 -6.68905 32.2037 -7.02132 34.2059C-7.18023 35.1634 -7.27041 36.2252 -7.3462 37.1998C-7.44733 37.8092 -7.26668 37.7563 -7.74007 38.0191C-7.83764 38.089 -8.0039 38.0548 -8.11592 38.2118L-7.61721 38.3144C-8.63666 35.1341 -9.82226 31.9196 -11.5789 29.0379C-13.1982 26.3644 -15.3994 23.5713 -18.081 22.1198L-18.1822 22.7292L-17.1812 22.3948L-17.5245 21.8741C-19.8624 25.0844 -17.9537 30.1579 -16.5187 33.4236C-14.7294 37.6624 -12.3005 41.6726 -9.66193 45.4558L-9.32584 44.9848C-9.57521 44.9335 -9.60408 45.1076 -9.86789 45.1434C-9.95101 45.1263 -10.0631 45.2833 -10.1606 45.3533C-10.3269 45.3191 -10.6992 44.9725 -10.851 44.8513C-11.8449 44.1068 -12.9074 43.2582 -13.9844 42.4967C-15.9867 41.0948 -18.072 39.6758 -20.2007 38.518C-22.3294 37.3602 -24.4581 36.2024 -26.7277 35.3758C-28.6793 34.7045 -31.0464 33.9477 -33.0882 34.3382L-32.9401 34.9988L-32.0222 34.6474L-32.4775 34.2837C-33.1025 36.4958 -31.6314 38.5086 -30.1568 39.982C-27.869 42.2528 -25.0355 43.8256 -22.2708 45.2942C-16.2714 48.508 -9.90701 51.0768 -3.55357 53.1931C-3.13797 53.2786 -3.03684 52.6692 -3.438 52.4967L-3.47428 51.6791Z" fill="#CB8587" fill-opacity="0.2"/>
<path d="M24.7218 39.0185C24.8623 34.5463 25.4473 29.9854 26.3503 25.58C27.0366 22.4803 27.9181 19.2407 29.573 16.5202C30.2739 15.404 31.058 14.3049 32.1168 13.6223C32.3119 13.4824 32.6046 13.2725 32.8829 13.1497C33.1612 13.0268 33.6888 12.9553 32.8829 13.1497C32.8829 13.1497 33.0636 13.0968 33.1468 13.1139C33.313 13.1481 33.3926 13.7046 33.4468 13.8958C34.8747 18.2403 33.8994 23.081 31.9592 27.0031C31.9881 26.829 32.6819 26.7916 32.8771 26.6517C34.6079 25.0271 36.5738 23.5408 38.5107 22.2286C39.2768 21.7559 40.0429 21.2833 40.8921 20.8277C41.268 20.6349 41.7413 20.3722 42.2002 20.1964C42.2833 20.2135 42.381 20.1436 42.4785 20.0736L42.6447 20.1078C42.5616 20.0907 42.5616 20.0907 42.6592 20.0207C42.923 19.9849 43.1182 19.845 43.382 19.8092C44.1047 19.5977 44.8817 19.5774 45.6442 19.6442C45.8936 19.6954 46.3237 19.6938 46.4755 19.815C46.6815 20.1275 46.6635 20.7539 46.6888 21.1192C46.7106 22.0239 46.4686 22.9644 46.2265 23.9049C44.6874 27.9995 41.1027 30.9534 37.8541 33.4363C37.5614 33.6462 37.8252 33.6104 38.089 33.5746C38.4215 33.643 38.8372 33.7284 39.1841 33.7097C40.4454 33.879 41.7066 34.0483 42.9535 34.3046C44.2003 34.561 45.7796 34.8856 47.1349 35.5244C48.1865 35.9206 49.3755 36.5251 50.0767 37.4795C50.6406 38.2256 50.7166 39.3215 50.2397 40.1236C50.0156 40.4376 49.7084 40.7346 49.4302 40.8574C49.4302 40.8574 48.8593 41.1902 48.7761 41.1731C48.7761 41.1731 49.4158 40.9445 49.1376 41.0673C49.1376 41.0673 48.9712 41.0331 48.9568 41.1202C48.7906 41.086 48.6785 41.243 48.5123 41.2088C45.7477 41.8108 42.8494 41.665 40.0631 41.3623C35.0578 40.9634 29.9585 40.0951 25.0687 38.9998L24.8193 38.9485C24.57 38.8972 24.1508 39.3512 23.9014 39.2999C28.4587 40.3269 33.1279 41.1968 37.7863 41.6143C40.822 41.9684 43.9698 42.1654 46.9693 41.7018C48.0245 41.5587 49.1087 41.2414 50.0554 40.7159C50.8071 40.3303 51.4358 39.6494 51.4971 38.7618C51.6018 37.613 50.7887 36.8157 49.9466 36.1924C48.7033 35.3967 47.3191 34.9321 45.9349 34.4675C43.6364 33.8149 41.1969 33.4934 38.7575 33.1719L38.5913 33.1378C38.5913 33.1378 39.7622 32.2982 39.8742 32.1412C40.9619 31.2846 42.064 30.3409 43.0975 29.293C44.4381 27.9483 45.7244 26.4123 46.6241 24.6168C47.3829 23.1524 48.0476 21.2185 47.4764 19.4807C47.4764 19.4807 47.5054 19.3066 47.3391 19.2724C47.2018 19.0642 46.4248 19.0845 46.2585 19.0503C45.8429 18.9648 45.4816 19.0706 45.0516 19.0722C43.4687 19.2869 41.8967 19.954 40.491 20.6552C37.5964 22.0406 34.85 24.0866 32.4217 26.288C32.2266 26.428 32.1145 26.585 32.0169 26.6549L32.9348 26.3035C34.8607 22.4684 35.7926 17.8889 34.5309 13.5785C34.408 13.2832 34.4116 12.7438 34.1911 12.5184C34.0393 12.3972 34.191 12.5184 34.0248 12.4842C33.8585 12.45 33.3852 12.7128 33.2045 12.7657C32.0084 13.24 31.0471 13.8525 30.1112 14.8304C28.084 17.2043 26.9388 20.4797 26.1838 23.4752C25.3023 26.7148 24.822 30.1269 24.4393 33.4691C24.2191 35.3143 24.0819 37.1765 24.0423 38.9688C24.0568 38.8818 24.9313 38.7915 24.9602 38.6174L24.7218 39.0185Z" fill="#CB8587" fill-opacity="0.2"/>
<path d="M25.0729 39.0055C25.2025 34.0815 25.8452 29.173 26.9866 24.367C27.5284 22.1381 28.2363 19.9434 29.2623 17.9041C29.7681 16.9279 30.3716 15.8818 31.1122 15.044C31.6434 14.4331 32.4815 13.5253 33.356 13.435L33.2078 12.7745C33.1247 12.7574 32.944 12.8103 32.8465 12.8802L32.9946 13.5407C32.9946 13.5407 33.5876 16.1829 33.6273 16.4612C33.7576 17.7481 33.8046 19.0179 33.6024 20.2365C33.2955 22.6037 32.5875 24.7984 31.547 26.9248C31.4061 27.2559 31.7928 27.5154 31.9879 27.3755C32.183 27.2356 32.6131 27.234 32.8082 27.0941C33.1984 26.8143 33.6176 26.3604 34.0078 26.0806C34.9003 25.3639 35.7927 24.6473 36.6851 23.9306C38.5387 22.6015 40.4755 21.2894 42.6724 20.4809L42.4266 19.8903L42.3435 19.8733C41.9677 20.066 42.2134 20.6566 42.5748 20.5509C43.5612 20.3036 44.4646 20.0393 45.4764 20.1573C46.4882 20.2753 46.3149 21.3198 46.2536 22.2073C46.0478 23.9652 45.1627 25.6735 44.1546 27.0864C43.2442 28.4295 42.1132 29.5471 40.8992 30.6477C39.6851 31.7483 38.4313 32.5707 37.3149 33.6013C37.2029 33.7583 37.0909 33.9153 37.2427 34.0365C37.38 34.2447 37.4775 34.1748 37.7269 34.226C38.4749 34.3798 39.3349 34.3766 40.0829 34.5304C41.6765 34.768 43.2556 35.0926 44.8203 35.5043C46.3019 35.8989 48.0184 36.4318 49.1351 37.4715C50.5553 38.7536 50.1544 40.6514 48.5139 41.2143L48.7597 41.8049C48.9404 41.752 49.038 41.6821 49.2186 41.6292C49.58 41.5234 49.4173 40.9499 49.0704 40.9686C48.279 41.076 47.5419 41.3745 46.6819 41.3777C45.5437 41.5038 44.4198 41.5427 43.3936 41.5118C40.9942 41.4686 38.6383 41.1642 36.2822 40.8599C33.9262 40.5556 31.6677 40.1812 29.4092 39.8069C28.1625 39.5506 26.9989 39.3114 25.7522 39.0551C25.4198 38.9868 24.9356 38.7972 24.5887 38.8159C24.2418 38.8346 24.0323 39.0616 23.6709 39.1673C23.3096 39.273 23.3205 39.7253 23.5698 39.7766C27.0605 40.4942 30.4681 41.1948 34.0022 41.6513C37.1894 42.1265 40.474 42.5318 43.6647 42.4676C45.1354 42.4099 46.6206 42.2652 47.9684 41.9122C49.0524 41.595 50.4002 41.242 51.0036 40.1959C52.4741 38.0679 50.1287 36.1456 48.3724 35.3345C45.0948 33.8506 41.615 33.5852 38.1785 33.0587L38.3412 33.6322C39.0819 32.7944 40.2092 32.2161 41.0185 31.4823C42.2325 30.3818 43.461 29.1941 44.5377 27.8853C45.6144 26.5765 46.5393 25.1464 47.0631 23.5439C47.4171 22.4465 47.7747 20.8098 47.2831 19.6286C46.9144 18.7427 45.7617 18.9558 44.9848 18.9761C43.2503 19.0696 41.4979 19.7894 39.9116 20.5435C36.8222 22.0686 33.9643 24.2714 31.3411 26.6124C31.1315 26.8394 31.2255 27.3088 31.5868 27.203C32.1288 27.0444 32.3926 27.0086 32.7287 26.5377C33.0791 25.9796 33.3898 25.1434 33.5884 24.4641C34.0689 23.1227 34.4807 21.6772 34.6432 20.1804C34.8056 18.6836 34.856 17.3438 34.6571 15.9528C34.592 15.3093 34.4439 14.6488 34.2956 13.9882C34.1872 13.6059 34.1619 13.2406 34.039 12.9453C33.9847 12.7542 33.8907 12.2848 33.8185 12.72C33.8474 12.5459 33.71 12.3376 33.5438 12.3035C32.8789 12.1668 32.0154 12.7094 31.4445 13.042C30.4147 13.5504 29.6053 14.2841 28.9333 15.2261C27.4086 17.1629 26.4224 19.4805 25.7686 21.8664C24.0672 27.4573 23.2511 33.4103 23.0457 39.3088C22.988 39.657 23.418 39.6554 23.6276 39.4284C23.8372 39.2015 24.2383 39.374 24.5454 39.0771C24.8525 38.7802 24.3284 38.3124 24.0213 38.6093C23.8118 38.8362 23.3962 38.7508 23.1035 38.9606L23.6854 39.0803C23.8438 33.9822 24.5443 28.7255 25.8121 23.6755C26.3539 21.4466 27.0619 19.2519 28.1566 17.3167C28.7744 16.1836 29.544 15.1716 30.4509 14.3679C30.8556 14.0011 31.4264 13.6684 31.9829 13.4228C32.3587 13.23 33.0271 12.8273 33.3596 12.8957L33.0849 12.4792C33.056 12.6533 33.1392 12.6703 33.2078 12.7745C33.4392 13.4521 33.656 14.2168 33.7898 14.9644C34.0718 16.3725 34.1045 17.7294 33.9565 19.1391C33.8085 20.5489 33.5231 21.7504 33.1402 23.0218C32.7573 24.2933 32.4142 25.8429 31.1495 26.213L31.3953 26.8036C33.6282 24.7424 35.9984 22.8893 38.5458 21.5228C39.9658 20.7346 41.3715 20.0335 42.9 19.6276C43.7202 19.3462 44.5947 19.2559 45.4547 19.2527C45.6209 19.2869 46.1485 19.2153 46.3003 19.3365C46.4665 19.3707 46.5026 20.1882 46.4737 20.3623C46.7451 23.3885 44.3532 26.4072 42.4817 28.3627C41.3507 29.4804 40.2198 30.5981 38.9371 31.5945C38.4494 31.9443 37.8785 32.277 37.4593 32.7309C37.2642 32.8708 37.3727 33.2531 37.622 33.3044C40.9754 33.8137 44.4697 33.9921 47.6497 35.5459C49.0049 36.1846 51.3936 37.8458 49.8147 39.5915C48.6549 40.8832 46.2952 41.1182 44.727 41.2458C41.2291 41.6069 37.612 41.1333 34.0779 40.6767C30.3776 40.186 26.7063 39.5213 23.0638 38.6824L22.9627 39.2917C23.3095 39.273 23.6022 39.0632 23.866 39.0274C24.3936 38.9558 24.9465 39.2495 25.5282 39.3691C26.7749 39.6254 27.9385 39.8646 29.1852 40.1209C31.5124 40.5994 33.9515 40.9208 36.3075 41.2251C38.4142 41.4782 40.4523 41.6272 42.5879 41.7062C43.6972 41.7542 44.821 41.7152 45.8761 41.5721C46.7506 41.4818 47.5708 41.2004 48.4453 41.1102L48.297 40.4496C48.1308 40.4154 48.0188 40.5724 47.8381 40.6253C47.4623 40.8181 47.7081 41.4087 48.0839 41.2159C49.0848 40.8816 49.9918 40.0779 50.0964 38.9293C50.2589 37.4325 49.0591 36.3758 47.9678 35.7013C46.3235 34.7332 44.4264 34.2532 42.5979 33.8773C41.5175 33.6551 40.437 33.433 39.3421 33.2979C38.8434 33.1954 38.3447 33.0929 37.8316 33.0774C37.6653 33.0432 37.416 32.992 37.2498 32.9578C37.0836 32.9236 37.0005 32.9066 37.2354 33.0449L37.1631 33.4801C38.5867 32.1525 40.2308 31.0503 41.6688 29.6358C43.1068 28.2212 44.4074 26.5984 45.3215 24.716C45.7297 23.8098 46.1668 22.7295 46.2426 21.755C46.3582 21.0587 46.4484 19.9971 46.022 19.4594C45.6786 18.9387 45.0679 18.9932 44.5548 18.9777C43.6117 18.9638 42.6397 19.1241 41.7364 19.3884L41.9822 19.979L42.0653 19.9961C42.441 19.8033 42.2097 19.1257 41.8339 19.3184C39.8032 20.1611 37.8954 21.2991 36.0418 22.6282C35.1638 23.2578 34.2714 23.9745 33.3789 24.6911C32.9742 25.058 32.4287 25.7559 31.8722 26.0015C31.594 26.1244 31.3446 26.0731 31.052 26.283L31.4928 26.7336C32.7862 24.1192 33.6098 21.2281 33.6854 18.1833C33.6491 17.3657 33.5185 11.9382 32.0442 12.5353C31.6829 12.641 31.8311 13.3015 32.1924 13.1958C32.3586 13.23 32.5538 13.0901 32.7345 13.0372C33.0958 12.9315 32.9331 12.358 32.5862 12.3767C31.0035 12.5913 29.6596 14.4753 28.8611 15.6613C27.5713 17.7364 26.6826 19.984 26.0288 22.3699C24.5514 27.6469 23.8906 33.1817 23.66 38.715C23.5877 39.1502 24.2816 39.1128 24.2707 38.6605L25.0729 39.0055Z" fill="#CB8587" fill-opacity="0.2"/>
<path d="M31.837 95.7332C31.6595 93.1746 31.7605 90.4932 31.9157 88.003C32.2515 83.3882 32.9778 78.4934 35.1288 74.3418C35.6494 73.2779 36.3364 72.2482 37.1608 71.4268C37.5657 71.0597 37.9706 70.6926 38.3756 70.3255C38.5708 70.1855 38.8638 69.9755 39.0446 69.9225C39.1422 69.8525 39.3229 69.7996 39.4205 69.7296C39.6013 69.6767 40.1582 69.4309 39.6014 69.6767L39.435 69.6425C40.0425 70.1277 40.4404 70.84 40.6719 71.5181C41.5869 73.778 41.222 76.4952 40.6654 78.8128C40.051 81.4788 39.0206 84.0592 37.9216 86.5355C37.9505 86.3613 38.6303 86.411 38.84 86.1839C40.2393 84.4899 41.8736 82.9344 43.5766 81.483C44.9722 80.3288 46.451 79.1916 48.0673 78.2628C48.4578 77.9828 48.917 77.807 49.3762 77.6312C49.3762 77.6312 49.557 77.5783 49.5714 77.4912C49.8354 77.4554 50.0307 77.3154 50.2946 77.2796C51.0033 77.1551 51.7952 77.0476 52.5437 77.2015C57.2157 78.0719 49.2903 86.4408 48.2273 87.6635C46.6618 89.3232 45.0963 90.983 43.462 92.5386C43.462 92.5386 43.0715 92.8186 43.057 92.9057C43.057 92.9057 43.057 92.9057 43.2233 92.9399C44.055 93.1109 44.9156 93.1076 45.7618 93.1915C47.8699 93.4448 60.2693 94.9131 57.5614 99.3104C56.8744 100.34 55.8006 101.11 54.6869 101.602C54.5061 101.655 54.3109 101.795 54.0325 101.918C54.0325 101.918 53.5732 102.093 53.8372 102.058C54.1011 102.022 53.6564 102.111 53.6564 102.111C53.1972 102.286 52.6693 102.358 52.2101 102.534C51.2229 102.781 50.2647 102.854 49.2233 102.911C44.2803 103.155 39.3913 101.52 35.2182 98.6802C33.9887 97.7969 32.7735 96.8265 31.6706 95.699C31.5187 95.5777 30.9185 96.0848 30.7521 96.0506C34.9037 100.057 40.1327 102.753 45.7375 103.185C49.3029 103.467 53.1937 102.826 56.2598 100.934C57.2072 100.409 58.2954 99.5514 58.5665 98.4362C58.8232 97.408 58.2735 96.5744 57.5141 95.9679C56.3677 95.1017 54.9827 94.6369 53.7496 94.2933C52.1983 93.7942 50.6037 93.5564 48.9258 93.3016C47.6783 93.0451 46.3186 92.9457 45.0566 92.7763C44.7239 92.7079 44.3913 92.6396 43.961 92.6412C43.8778 92.6241 43.7946 92.607 43.7946 92.607C43.8091 92.5199 44.1996 92.2399 44.1996 92.2399C44.5069 91.9427 44.7998 91.7327 45.024 91.4185C45.946 90.5272 46.7848 89.6187 47.7067 88.7274C48.8529 87.5218 57.628 78.6972 53.8491 77.1096C52.5617 76.5747 50.949 76.9637 49.669 77.4212C48.0274 77.9844 46.5232 78.7561 45.0733 79.719C42.4664 81.4349 40.2031 83.6718 38.0916 86.03C37.9795 86.1872 37.8674 86.3442 37.7553 86.5013L38.6737 86.1497C39.8993 83.4292 41.0706 80.5174 41.6452 77.5731C41.9199 75.9181 42.2089 74.1761 41.8038 72.4714C41.6012 71.6191 41.3155 70.7497 40.7513 70.0032C40.6139 69.7948 40.3245 69.4651 40.075 69.4138C39.8255 69.3625 39.3374 69.7125 39.0735 69.7483C38.7119 69.8541 38.3358 70.0471 37.9597 70.24C37.2076 70.6258 36.5098 71.2029 35.9639 71.9013C34.7057 73.264 33.82 74.9735 33.1838 76.7342C31.7848 80.4999 31.1885 84.6108 30.9394 88.703C30.7987 91.1061 30.7266 93.6134 30.8354 96.0677C30.8498 95.9806 31.7393 95.8032 31.7538 95.7161L31.837 95.7332Z" fill="#CB8587" fill-opacity="0.2"/>
<path d="M32.185 95.7129C31.8988 90.7005 32.2525 85.4593 33.3114 80.6333C34.2547 76.5041 36.0078 71.6407 40.0029 69.8501C40.3645 69.7443 40.2017 69.1705 39.8546 69.1892C39.6882 69.155 39.493 69.295 39.3122 69.3479C39.0339 69.4708 39.0592 69.8363 39.2111 69.9576C41.5325 71.5156 41.005 75.7303 40.5461 77.9777C39.9715 80.9218 38.8437 83.572 37.7015 86.3094C37.6436 86.6577 37.9329 86.9874 38.1426 86.7603C38.3523 86.5332 38.7681 86.6187 39.0609 86.4087C39.4514 86.1287 39.802 85.5703 40.2069 85.2033C41.2409 84.1549 42.2748 83.1066 43.392 82.0753C45.3045 80.397 47.3689 78.84 49.7768 77.8039L49.5309 77.2129L49.3645 77.1787C48.974 77.4587 49.22 78.0497 49.5815 77.9439C50.847 77.5736 54.3071 76.934 53.8193 79.3555C53.5446 81.0103 52.2575 82.547 51.2778 83.7866C50.3957 84.9563 49.445 86.0217 48.4942 87.0872C47.753 87.9255 47.0264 88.6768 46.2021 89.4981C45.6707 90.1093 45.0705 90.6164 44.4559 91.2106C43.9534 91.6476 43.3532 92.1547 42.9194 92.696C42.905 92.7831 42.8616 93.0444 42.8472 93.1315C43.1364 93.4611 43.5812 93.3724 43.9283 93.3537C44.5936 93.4905 45.2878 93.4531 45.87 93.5728C46.4521 93.6925 46.9655 93.708 47.5476 93.8276C49.3085 94.0996 51.0692 94.3715 52.8699 94.9218C54.3523 95.3167 56.3194 95.9012 57.3102 97.1857C58.8507 99.3037 55.0906 101.233 53.7131 101.76C53.3515 101.866 53.583 102.544 53.959 102.351C54.335 102.158 54.0891 101.567 53.7131 101.76C49.36 103.117 44.6994 102.699 40.4075 101.096C38.3031 100.303 36.2565 99.1619 34.5173 97.7235C34.0617 97.3597 33.606 96.9958 33.1504 96.6319C32.778 96.2852 32.2826 95.6429 31.8812 95.4704C31.3967 95.2807 31.2412 95.699 30.811 95.7007C30.5615 95.6494 30.4892 96.0848 30.7098 96.3103C35.8409 101.148 42.5663 104.152 49.4685 103.499C52.3574 103.193 55.68 102.345 57.9143 100.282C58.7241 99.5479 59.4255 98.4312 59.0312 97.1793C58.5683 95.8232 56.9773 95.0457 55.8419 94.6322C53.987 93.8906 51.908 93.4632 49.9953 93.0699C48.9142 92.8477 47.8186 92.7125 46.7231 92.5773C46.2241 92.4747 45.7107 92.4593 45.1973 92.4438C45.031 92.4096 44.1849 92.3257 44.2536 92.4299L44.1813 92.8654C44.6983 92.3412 45.3816 91.8512 45.8986 91.327C46.7229 90.5058 47.5327 89.7716 48.2738 88.9332C48.6931 88.4791 49.1957 88.042 49.6295 87.5007C51.1949 85.8411 52.6772 84.1644 53.8557 82.2451C54.557 81.1284 55.9162 79.1562 55.2183 77.6617C54.8349 76.8623 53.9346 76.5872 53.1717 76.5204C51.3133 76.3185 49.4621 77.1087 47.7773 77.9332C43.851 79.828 40.5828 82.9388 37.7015 86.3094C37.4918 86.5365 37.7666 86.9532 38.045 86.8303C38.6849 86.6016 39.032 86.5829 39.2995 86.0074C39.7079 85.1007 40.102 84.2811 40.4273 83.3572C41.049 81.6837 41.6852 79.9231 41.9888 78.0941C42.4911 75.5855 43.1161 71.3008 40.6862 69.3602C40.01 68.7708 38.9363 69.5408 38.1987 69.8395C36.7923 70.5411 35.6607 71.6594 34.7497 73.0032C32.718 75.918 31.7638 79.5946 31.1712 83.1655C30.4775 87.346 30.2538 91.8033 30.4893 96.0848C30.4459 96.3461 30.7641 96.5016 30.9593 96.3616C31.2522 96.1516 31.668 96.2371 31.8777 96.01C32.1849 95.7129 31.6607 95.2449 31.3534 95.542C31.1581 95.6819 30.7423 95.5965 30.5326 95.8235L31.0027 96.1003C30.7383 91.993 31.0019 87.8141 31.5836 83.7907C32.1653 79.7672 33.1772 75.7422 35.6391 72.8258C36.2826 72.0575 36.9948 71.3933 37.7613 70.9204C38.2349 70.6575 39.1134 70.0275 39.7245 69.973C40.5163 69.8656 41.0335 71.413 41.265 72.0911C41.605 73.1517 41.5979 74.231 41.5908 75.3103C41.4246 77.3477 40.9259 79.3167 40.3584 81.1814C40.0331 82.1053 39.7078 83.0291 39.3138 83.8488C38.8909 84.8426 38.7174 85.8878 37.6183 86.2923L37.9619 86.8132C40.2973 84.1411 42.9508 81.6244 45.9335 79.7157C47.5641 78.7 49.3465 77.8055 51.2085 77.4678C52.1811 77.3075 54.2095 77.0039 54.5061 78.3258C54.857 79.839 53.2337 81.847 52.5469 82.8767C51.4262 84.4476 50.1536 85.8972 48.7979 87.3298C48.3786 87.7839 47.9737 88.151 47.5543 88.6052C46.8277 89.3565 46.1009 90.1077 45.2911 90.8419C44.7741 91.366 43.9932 91.926 43.545 92.5544C43.5161 92.7286 43.4871 92.9028 43.5558 93.007C44.0114 93.3708 44.8864 93.2805 45.3998 93.296C46.4122 93.4141 47.4246 93.5322 48.5057 93.7544C50.5161 94.0776 52.5119 94.488 54.3957 95.0554C56.2795 95.6228 59.8628 97.3502 57.4876 99.744C56.2439 101.019 54.3097 101.793 52.6827 102.269C44.9925 104.561 36.81 101.527 30.9484 95.909L30.8473 96.5187C31.0136 96.5529 31.1401 96.3087 31.3209 96.2558C31.7656 96.1671 32.1778 96.7923 32.5647 97.0519C33.3928 97.7626 34.304 98.4903 35.2297 99.1309C37.081 100.412 39.142 101.466 41.2608 102.172C45.3322 103.55 49.7723 103.742 53.847 102.508C55.5029 101.858 57.6612 100.77 58.16 98.8014C58.3479 97.6692 57.7983 96.8357 57.0534 96.1422C54.7066 94.2187 51.1704 93.7619 48.314 93.3547C47.6487 93.218 46.9834 93.0812 46.3037 93.0315C45.971 92.9631 45.6384 92.8947 45.2913 92.9135C44.8755 92.828 44.4453 92.8296 44.015 92.8312C43.7655 92.7799 43.1146 92.556 43.3352 92.7815L43.263 93.217C43.7944 92.6057 44.5753 92.0457 45.1899 91.4515C45.9166 90.7003 46.7265 89.9661 47.4531 89.2149C48.0822 88.5336 48.7112 87.8523 49.3402 87.171C50.6128 85.7214 51.8998 84.1847 52.9374 82.5967C53.6387 81.48 54.7882 79.7348 54.3397 78.2916C53.7285 76.2746 50.601 76.9826 49.3356 77.3529L49.5815 77.9439L49.7479 77.9781C50.1384 77.6981 49.8924 77.1071 49.5309 77.2129C47.2206 78.179 45.1706 79.649 43.3558 81.2573C42.3652 82.0444 41.4433 82.9356 40.6046 83.844C40.1852 84.2982 39.7513 84.8394 39.2488 85.2765C38.8439 85.6436 38.3016 85.8023 37.8966 86.1694L38.3378 86.6203C39.7186 83.4817 41.0308 80.2389 41.5113 76.8251C41.9016 74.4736 41.8 70.9401 39.6449 69.4163L39.5437 70.0259C39.7101 70.0601 39.8908 70.0072 39.9885 69.9372L39.8401 69.2763C35.9426 70.9969 34.0268 75.2864 33.0004 79.3985C31.6197 84.6087 31.3455 90.4066 31.657 95.7845C31.6679 96.2371 32.279 96.1826 32.2681 95.73L32.185 95.7129Z" fill="#CB8587" fill-opacity="0.2"/>
<path d="M18.6325 182.612C18.9143 177.803 19.7244 172.922 20.9904 168.405C21.8441 165.336 22.9764 162.144 25.0894 159.784C25.5091 159.329 26.0121 158.892 26.515 158.455C26.7936 158.332 27.0867 158.121 27.3654 157.998C27.644 157.875 27.6983 158.067 27.0035 158.104C27.0867 158.121 27.1845 158.051 27.2821 157.981C27.4486 158.016 27.5608 157.858 27.7272 157.893C27.9914 157.857 28.3388 157.838 28.6029 157.802C28.7694 157.836 29.2977 157.765 29.4352 157.973C29.6017 158.007 29.6415 158.286 29.6958 158.477C30.2569 159.765 30.4416 161.245 30.2933 162.656C30.0367 165.758 28.6981 168.638 27.2365 171.222C27.2654 171.047 27.9457 171.097 28.1556 170.87C30.0697 169.19 32.1357 167.632 34.2561 166.265C35.8879 165.249 37.6719 164.353 39.6042 164.12C40.744 163.994 42.4521 164.074 43.2229 165.134C43.7731 165.968 43.5162 166.997 43.2196 167.747C42.7385 169.091 41.8556 170.261 40.9873 171.344C38.8996 174.07 36.5224 176.466 34.0765 178.757C33.1538 179.649 32.2456 180.454 31.3374 181.258L30.2483 182.116C30.2483 182.116 30.7476 182.219 30.8309 182.236C31.3302 182.338 31.7464 182.424 32.2458 182.527C33.744 182.835 35.1588 183.125 36.5738 183.416C39.5266 184.294 43.2539 185.691 44.803 188.804C45.3785 190.004 45.6465 191.501 45.0966 192.74C44.8434 193.228 44.5069 193.7 44.1016 194.067C43.9062 194.208 43.6963 194.435 43.4177 194.558C43.3345 194.541 43.2224 194.698 43.0415 194.751C43.0415 194.751 42.8605 194.804 42.846 194.891C42.846 194.891 42.6796 194.857 42.6507 195.031C42.4697 195.084 42.5674 195.014 42.8315 194.978C42.7483 194.961 42.4697 195.084 42.2888 195.137C42.1223 195.103 41.927 195.243 41.746 195.296C41.3842 195.402 40.9535 195.403 40.6061 195.422C39.8137 195.529 38.9524 195.533 38.1057 195.449C36.148 195.317 34.2482 194.836 32.3918 194.094C28.0131 192.473 23.9346 189.561 20.8475 185.862C19.979 184.872 19.2225 183.725 18.4661 182.578C18.4661 182.578 17.6303 182.947 17.547 182.93C20.4062 187.484 24.4522 191.11 29.0771 193.322C32.5801 195.034 36.6981 196.151 40.5917 195.509C42.8026 195.152 45.9073 194.078 46.1893 191.342C46.5472 187.63 43.0622 185.291 40.2359 184.169C37.4096 183.047 34.5943 182.379 31.6378 182.041L31.0552 181.921C31.0552 181.921 31.3483 181.711 31.3627 181.624C32.1588 180.976 32.8716 180.312 33.5989 179.56C36.1281 177.286 38.6029 174.82 40.8426 172.216C41.8231 170.975 42.8037 169.735 43.549 168.356C44.041 167.465 44.5764 166.314 44.2217 165.339C43.8271 164.087 42.2457 163.761 41.2035 163.818C39.4811 163.824 37.8238 164.475 36.2498 165.143C33.1017 166.479 30.2542 168.597 27.6562 170.767C27.4608 170.907 27.3487 171.064 27.1533 171.205L28.0724 170.853C30.0948 167.483 32.2799 162.614 30.7235 158.508C30.6692 158.317 30.5751 157.847 30.3399 157.709C30.1191 157.483 29.3411 157.503 28.9937 157.522C27.7851 157.544 26.4897 158.089 25.4295 158.772C22.9039 160.506 21.5074 163.734 20.5162 166.595C19.3694 169.875 18.7076 173.344 18.2267 176.76C17.894 178.765 17.7277 180.804 17.576 182.756C17.5904 182.669 18.4661 182.578 18.4951 182.404L18.6325 182.612Z" fill="#CB8587" fill-opacity="0.2"/>
<path d="M18.9625 182.68C19.2298 177.958 19.9965 173.339 21.2625 168.822C21.8593 166.782 22.4562 164.741 23.4403 162.961C23.9468 161.983 24.5365 161.023 25.2782 160.184C25.81 159.572 26.8593 158.436 27.6373 158.416L27.3333 158.173C27.3478 158.086 27.3767 157.911 27.3912 157.824L27.0293 157.93L27.1778 158.591C27.6373 158.416 28.2632 158.274 28.7626 158.376C29.5117 158.53 29.6891 159.018 29.9208 159.696C30.3009 161.036 30.2503 162.378 30.0333 163.685C29.5849 166.387 28.4851 168.865 27.0813 171.1C26.9547 171.344 27.3275 171.691 27.5229 171.551C27.7183 171.411 28.0656 171.392 28.3442 171.269C28.6228 171.146 28.7495 170.902 28.9594 170.675C29.6577 170.097 30.356 169.52 31.0398 169.03C32.422 167.962 33.9562 167.015 35.4759 166.156C36.9956 165.297 38.4863 164.612 40.2232 164.518C41.0012 164.498 42.0289 164.529 42.7201 165.031C43.7008 165.864 43.2342 167.12 42.8254 168.027C41.4289 171.255 38.5633 174.001 36.1029 176.38C34.6629 177.796 33.2373 179.125 31.8118 180.455C31.3088 180.892 30.3608 181.418 29.9954 182.064C29.9665 182.239 30.0063 182.517 30.256 182.569C30.9218 182.705 31.783 182.702 32.4488 182.839C33.5308 183.062 34.5296 183.267 35.6116 183.489C37.3594 183.849 39.147 184.486 40.7248 185.352C42.3026 186.217 43.9057 187.448 44.644 189.222C45.6285 191.587 44.5866 193.717 42.4554 194.63C42.0791 194.824 42.3252 195.415 42.6871 195.309C42.7703 195.326 42.868 195.256 42.9657 195.186C43.3276 195.08 43.1646 194.506 42.8172 194.525C41.6774 194.651 40.6752 194.986 39.5498 195.025C38.0915 194.995 36.7454 194.809 35.3305 194.518C32.6672 193.97 30.1051 192.813 27.6842 191.323C25.2632 189.834 23.3849 188.186 21.5646 186.19C20.9855 185.53 20.4898 184.887 19.994 184.244C19.6502 183.723 19.2122 182.732 18.7417 182.455C18.2713 182.178 18.0326 182.579 17.5875 182.668C17.3378 182.617 17.1967 182.948 17.3342 183.157C21.7749 190.109 29.3093 195.533 37.3896 196.113C40.194 196.329 44.4892 195.86 46.0774 193.032C47.6657 190.203 45.5051 187.146 43.2795 185.516C41.6619 184.373 39.8887 183.647 38.0866 183.097C36.8672 182.666 35.6187 182.409 34.3703 182.152C33.3716 181.947 32.2461 181.986 31.2619 181.694L31.4248 182.268C32.6694 180.992 34.1493 179.854 35.4627 178.682C37.0005 177.195 38.5381 175.709 39.9094 174.188C41.2807 172.667 42.5687 171.129 43.6216 169.453C44.3234 168.335 45.2099 166.625 44.5801 165.233C44.0734 164.138 42.6729 163.76 41.6452 163.729C39.854 163.631 38.2113 164.195 36.6228 164.95C33.113 166.391 29.9724 168.72 27.1501 171.204C26.8571 171.414 27.0344 171.902 27.3962 171.796C27.9534 171.55 28.3008 171.531 28.6373 171.059C29.0027 170.413 29.3682 169.767 29.748 169.034C30.4101 167.638 31.0034 166.138 31.3325 164.673C31.6616 163.209 31.8243 161.71 31.5564 160.213C31.3681 159.273 31.1978 157.705 30.1159 157.483C28.9507 157.243 27.4056 157.737 26.3744 158.246C25.1623 158.808 24.142 159.77 23.2736 160.853C21.3958 163.352 20.3612 166.474 19.6052 169.473C18.4369 173.92 17.7679 178.469 17.3486 183.07C17.2908 183.418 17.6925 183.591 17.9024 183.364C18.1122 183.137 18.5139 183.309 18.8214 183.012C19.129 182.715 18.6042 182.246 18.2967 182.544C18.0868 182.771 17.6851 182.598 17.3776 182.895L17.9313 183.189C18.1806 179.095 18.7771 174.981 19.7754 171.04C20.6037 167.605 21.6853 163.681 24.037 160.92C25.2274 159.452 26.9425 158.453 28.7915 158.202C29.0412 158.253 29.7649 158.042 30.0002 158.18C30.3331 158.249 30.4815 158.91 30.6046 159.206C30.8905 160.076 30.9956 160.999 31.0174 161.904C30.9778 163.699 30.4243 165.478 29.8021 167.153C29.5054 167.903 29.1401 168.549 28.7602 169.282C28.2682 170.172 28.0836 170.765 27.0813 171.1L27.3274 171.691C29.8566 169.417 32.6064 167.369 35.6857 165.929C37.1765 165.244 38.8482 164.506 40.5019 164.395C41.9891 164.25 44.3339 164.642 43.9723 166.821C43.683 168.564 42.395 170.102 41.3168 171.413C40.2241 172.81 39.0771 174.017 37.9157 175.31C36.6566 176.674 35.3288 177.933 34.0154 179.105C32.995 180.067 31.8227 180.908 30.7879 181.957C30.5925 182.097 30.7156 182.393 30.9508 182.531C31.5334 182.651 32.1304 182.683 32.7275 182.716C33.8095 182.939 34.8082 183.144 35.8902 183.366C37.638 183.726 39.4256 184.363 41.0866 185.246C43.4677 186.456 46.5908 188.901 45.7082 192.145C44.8257 195.388 39.6693 195.86 36.9626 195.574C33.3114 195.274 29.765 193.824 26.5696 191.815C23.0703 189.564 20.0484 186.509 17.7937 182.981L17.5405 183.47C17.707 183.504 18.1122 183.137 18.2787 183.171C18.4452 183.205 19.1038 184.422 19.2413 184.631C20.0122 185.69 20.8807 186.68 21.7493 187.67C23.5841 189.579 25.712 191.279 27.9955 192.559C30.2789 193.84 32.8554 194.91 35.4355 195.441C36.6839 195.697 38.0155 195.971 39.3218 195.879C40.5304 195.857 41.616 195.539 42.7558 195.413L42.6074 194.752C42.5242 194.735 42.4265 194.805 42.3288 194.875L42.5605 195.553C44.2321 194.815 45.5889 193.382 45.5742 191.396C45.5596 189.41 44.2386 187.516 42.7187 186.302C41.1988 185.089 39.2591 184.329 37.3051 183.657C36.0023 183.209 34.6706 182.935 33.339 182.662C32.3402 182.456 31.1317 182.478 30.1474 182.186L30.408 182.69C30.5347 182.446 31.0086 182.182 31.204 182.042C31.7069 181.605 32.2099 181.168 32.7128 180.73C33.9285 179.628 35.061 178.509 36.2767 177.407C38.5417 175.168 40.738 172.826 42.4782 170.119C43.5455 168.356 44.7176 165.442 42.1266 164.459C39.8685 163.544 37.1945 164.616 35.2008 165.739C33.5979 166.581 32.0493 167.615 30.5839 168.665C29.8856 169.243 29.2016 169.733 28.5033 170.311C28.0981 170.678 27.805 170.888 27.3455 171.064C27.1646 171.117 27.0669 171.187 26.886 171.24L27.3274 171.691C29.0134 168.793 30.5076 165.495 30.5036 161.889C30.4962 160.896 30.3295 158.789 29.5008 158.078C28.8928 157.592 27.3622 157.998 26.653 158.123C26.2911 158.229 26.4541 158.803 26.8014 158.784C27.0511 158.836 27.2466 158.696 27.5252 158.573C27.6084 158.59 27.6518 158.328 27.5975 158.137C27.5432 157.945 27.3767 157.911 27.2935 157.894C25.8063 158.039 24.2649 160.066 23.4798 161.166C22.2316 162.983 21.4394 165.163 20.7304 167.361C19.2111 172.366 18.3577 177.509 18.0036 182.754C17.9313 183.189 18.5971 183.326 18.6694 182.891L18.9625 182.68Z" fill="#CB8587" fill-opacity="0.2"/>
<path d="M31.8881 27.0323C30.6989 28.4987 29.5929 29.9822 28.5701 31.4828C26.7774 33.9957 24.9702 36.5957 23.8969 39.4367C23.9113 39.3496 24.6343 39.138 24.7174 39.1551C28.6972 37.452 32.7457 35.8531 36.7255 34.15C37.2822 33.9042 37.8389 33.6585 38.4787 33.4298C38.298 33.4827 37.8389 33.6585 37.6581 33.7114C33.6783 35.4145 29.6298 37.0134 25.65 38.7165C25.0934 38.9623 24.5367 39.208 23.8969 39.4367L24.7174 39.1551C25.8883 36.2442 27.6955 33.6442 29.3907 31.2013C30.4135 29.7007 31.534 28.1301 32.7087 26.7507C32.499 26.9778 32.0002 26.8752 31.7905 27.1022L31.8881 27.0323Z" fill="#CB8587" fill-opacity="0.2"/>
<path d="M31.667 26.8053C30.1271 28.8302 28.5873 30.8551 27.1992 33.0012C25.8112 35.1473 24.5498 37.0493 23.6462 39.3851C23.5884 39.7335 23.8921 39.976 24.1849 39.766C24.3801 39.6261 24.9079 39.5545 25.1862 39.4316C25.8406 39.1158 26.4805 38.8872 27.218 38.5885C28.429 38.027 29.7087 37.5696 31.0029 37.0252C33.5913 35.9363 36.1652 34.9345 38.6704 33.8286C39.0464 33.6357 38.8006 33.0448 38.4246 33.2377C33.5551 35.1184 28.7253 37.2774 23.8414 39.2451C23.4654 39.438 23.7113 40.0289 24.0873 39.836C24.6296 39.6774 24.9766 39.6586 25.244 39.0832C25.526 38.4207 25.7935 37.8454 26.1586 37.2C26.7911 35.9792 27.5899 34.7926 28.3056 33.5889C29.8057 31.2857 31.4721 29.0166 33.1096 26.9218C33.3337 26.6076 32.9757 26.1738 32.6829 26.3838C32.3901 26.5938 32.0575 26.5254 31.7647 26.7353C31.4574 27.0324 31.8009 27.5533 32.1082 27.2562C32.3179 27.0292 32.7336 27.1147 33.0264 26.9047L32.5997 26.3667C30.9622 28.4615 29.3935 30.6606 27.9078 32.8767C27.2211 33.9062 26.5343 34.9358 25.9307 35.9824C25.5801 36.5407 25.3125 37.1161 25.0451 37.6915C25.0017 37.9527 24.8319 38.4582 24.6367 38.5982C24.427 38.8252 24.1631 38.861 23.8847 38.9839L24.1306 39.5748C28.9459 37.5029 33.7611 35.4309 38.7138 33.5674L38.468 32.9765C35.782 34.1353 33.1104 35.2071 30.3412 36.3488C29.0471 36.8933 27.6697 37.4206 26.361 38.0521C25.8043 38.2979 25.2332 38.6307 24.6078 38.7723C24.3294 38.8952 23.9824 38.9139 23.7727 39.141L24.3114 39.5219C25.2981 37.2032 26.5885 35.127 27.9621 33.068C29.3356 31.0089 30.7779 29.054 32.3034 27.1162C32.5275 26.8021 32.0864 26.3512 31.7791 26.6483L31.667 26.8053Z" fill="#CB8587" fill-opacity="0.2"/>
<path d="M38.0147 86.6876C36.029 89.3371 34.1264 92.0037 32.1408 94.6532C31.805 95.1238 31.3862 95.5772 31.1335 96.0649L31.1046 96.2388L31.5343 96.2372C33.5166 96.195 35.4448 95.9619 37.3873 95.6417C38.6366 95.3589 39.8859 95.0762 41.081 94.6024C42.1786 94.1985 43.2907 93.7076 44.1138 92.8876C43.9044 93.1143 43.4061 93.0119 43.1967 93.2387C41.5648 94.7918 39.2613 95.2176 37.0551 95.5734C35.4736 95.7879 33.809 95.9854 32.0903 95.9918C31.8412 95.9406 31.8412 95.9406 32.0362 95.8008L33.1409 94.3192L36.5814 89.6305C37.3649 88.5325 38.1339 87.5215 38.9173 86.4235C38.791 86.6673 38.2096 86.5479 38.0002 86.7746L38.0147 86.6876Z" fill="#CB8587" fill-opacity="0.2"/>
<path d="M37.7128 86.4467C36.4816 88.1723 35.2649 89.8108 33.9506 91.5193L32.0769 94.0121C31.6292 94.6396 30.9178 95.3028 30.6218 96.0514C30.5929 96.2253 30.6327 96.5033 30.8819 96.5545C31.2141 96.6228 31.6582 96.5342 32.0048 96.5156C32.6151 96.4611 33.3084 96.4238 33.9187 96.3693C35.2222 96.2776 36.4571 96.0817 37.7064 95.7989C39.9271 95.356 42.4547 94.6165 44.1698 93.0803C44.4767 92.7837 44.1336 92.2635 43.8267 92.5601C43.6317 92.6999 43.4656 92.6658 43.2851 92.7186C43.1045 92.7714 43.007 92.8413 42.8121 92.9811C42.4077 93.3477 41.9346 93.6102 41.4616 93.8727C40.6131 94.3278 39.6274 94.5749 38.6416 94.822C37.6558 95.069 36.6014 95.212 35.5615 95.268C34.9513 95.3225 34.341 95.3769 33.6477 95.4143C33.1206 95.4858 32.4128 95.6101 31.9145 95.5077L32.2034 95.8369C32.1601 96.0978 32.2034 95.8369 32.3984 95.6971C32.5247 95.4533 32.7197 95.3134 32.8461 95.0696L33.6295 93.9715L35.4058 91.5486C36.6225 89.91 37.8393 88.2715 39.056 86.6329C39.2799 86.3192 38.9224 85.8859 38.6299 86.0956C38.4205 86.3224 38.0197 86.1501 37.7128 86.4467C37.4059 86.7434 37.7489 87.2636 38.0558 86.9669C38.2653 86.7402 38.6661 86.9125 38.973 86.6158L38.5469 86.0786C37.2182 87.874 35.8896 89.6694 34.6584 91.395L32.7845 93.8878C32.4632 94.2714 32.1275 94.742 31.8892 95.1427C31.7773 95.2996 31.5678 95.5264 31.5245 95.7873C31.4957 95.9612 31.6473 96.0823 31.8135 96.1165C32.3118 96.2189 32.8389 96.1474 33.3661 96.0759C34.0594 96.0385 34.6697 95.9841 35.363 95.9468C36.5004 95.8208 37.7354 95.625 38.8872 95.4121C39.873 95.165 40.8587 94.918 41.7903 94.4799C42.2633 94.2174 42.6533 93.9378 43.0433 93.6582C43.4332 93.3786 43.4332 93.3786 43.7943 93.273C43.9604 93.3071 44.0724 93.1503 44.2529 93.0974L43.9098 92.5772C42.1948 94.1134 39.7646 94.783 37.544 95.2259C36.4751 95.4559 35.3377 95.5818 34.2002 95.7077C33.59 95.7622 32.9797 95.8166 32.3839 95.7841C32.0373 95.8027 31.4957 95.9612 31.0948 95.7889L31.3549 96.292C31.6509 95.5434 32.3622 94.8802 32.9074 94.1828L34.7812 91.69C35.9979 90.0515 37.2146 88.4129 38.3483 86.7572C38.5721 86.4435 38.1316 85.9932 37.8247 86.2898L37.7128 86.4467Z" fill="#CB8587" fill-opacity="0.2"/>
<path d="M27.789 171.43C24.9239 174.712 22.0587 177.993 19.2623 181.379C18.9263 181.85 18.5216 182.217 18.1856 182.688C18.1856 182.688 17.8784 182.984 17.864 183.072L17.9472 183.089C18.1134 183.123 18.3771 183.087 18.6409 183.051L19.7647 183.012C21.9292 182.917 24.0936 182.822 26.3412 182.744C27.895 182.703 29.4488 182.663 31.017 182.535C31.2663 182.586 31.5879 182.203 31.9348 182.184C28.3828 182.354 24.9283 182.454 21.3762 182.623L19.2118 182.719C19.2118 182.719 18.8649 182.737 18.7818 182.72C18.7818 182.72 19.4394 181.865 19.537 181.795C21.2712 179.631 23.0741 177.572 24.877 175.512C26.1488 174.064 27.4206 172.615 28.6924 171.166C28.4828 171.393 27.9841 171.291 27.7746 171.517L27.789 171.43Z" fill="#CB8587" fill-opacity="0.2"/>
<path d="M27.4858 171.188C25.6829 173.247 23.8656 175.394 22.0627 177.454C21.1956 178.536 20.2599 179.513 19.3928 180.595C18.9736 181.049 18.5401 181.59 18.2041 182.061C17.9945 182.288 17.6875 182.585 17.561 182.829C17.5177 183.09 17.655 183.298 17.9043 183.349C20.1374 183.358 22.3994 183.193 24.6469 183.115C25.9369 183.111 27.1583 183.002 28.4483 182.997L30.2658 182.92C30.5982 182.989 30.9451 182.97 31.2233 182.847C31.4871 182.811 31.6967 182.585 31.9605 182.549C32.3218 182.443 32.3254 181.904 31.8954 181.905C29.5647 181.966 27.3172 182.044 25.0552 182.209L21.6838 182.326L20.2132 182.384C19.7832 182.386 19.3388 182.474 18.9088 182.476L19.1834 182.892C19.2123 182.718 19.617 182.351 19.8121 182.211C20.1481 181.741 20.5672 181.287 20.8888 180.903C21.7414 179.908 22.6085 178.826 23.4611 177.831C25.2785 175.685 27.179 173.555 28.9963 171.408C29.2203 171.094 28.8626 170.661 28.5699 170.871C28.2772 171.081 27.9448 171.012 27.6521 171.222C27.3595 171.432 27.6883 172.04 27.9954 171.743C28.2881 171.533 28.6206 171.601 28.9132 171.391L28.4867 170.854C26.4743 173.14 24.5594 175.357 22.63 177.66C21.6798 178.725 20.8127 179.807 19.8625 180.872C19.5409 181.256 19.2339 181.553 18.9954 181.954C18.8003 182.094 18.5908 182.32 18.5474 182.582C18.5041 182.843 18.6559 182.964 18.8221 182.998C19.5701 183.152 20.4589 182.975 21.2503 182.867L24.8854 182.714C27.3136 182.584 29.6442 182.523 32.058 182.479L31.9929 181.835C31.7436 181.784 31.6315 181.941 31.3533 182.064C30.992 182.17 30.6451 182.188 30.2983 182.207L28.4807 182.283C27.1907 182.288 25.9694 182.397 24.6794 182.402C22.4318 182.48 20.1698 182.645 17.9367 182.636L18.28 183.157C18.4354 182.739 18.9232 182.389 19.1327 182.162C19.5519 181.708 19.8878 181.237 20.3069 180.783C21.1596 179.788 22.0123 178.793 22.865 177.799C24.5847 175.722 26.3732 173.749 28.1761 171.69C28.4832 171.393 27.9592 170.925 27.6521 171.222L27.4858 171.188Z" fill="#CB8587" fill-opacity="0.2"/>
<path d="M23.8617 39.6822C19.5411 47.7236 16.0954 56.394 13.01 65.0456C6.4565 83.5443 1.94179 103.177 1.57597 123.093C1.51268 128.169 1.36302 133.227 0.852935 138.304C0.635418 140.623 0.402981 143.03 0.185464 145.349C-0.403356 151.41 -0.99218 157.471 -1.581 163.532C-2.97616 177.973 -4.55906 192.467 -6.2283 206.944C-6.97852 213.427 -7.81508 219.893 -8.73802 226.341C-9.43212 230.927 -10.0399 235.531 -11.0644 239.96C-11.1845 240.663 -11.3196 241.453 -11.6124 242.122C-11.5824 241.946 -10.7902 242.013 -10.6588 241.767C-9.63794 237.882 -9.01882 233.736 -8.42978 229.764C-7.49553 223.772 -6.73405 217.746 -5.97252 211.72C-4.21692 197.26 -2.64907 182.854 -1.15255 168.342C-0.488685 161.842 0.16019 155.43 0.737698 148.912C1.2965 143.027 2.02806 137.176 2.22643 131.31C2.46612 125.724 2.43176 120.175 2.75781 114.607C3.12519 109.319 3.85298 104.013 4.75351 98.7413C6.37447 89.2521 8.77265 79.9182 11.7603 70.7928C15.1758 60.2083 19.2973 49.6738 24.4513 39.8908C24.4813 39.7151 24.5976 39.5566 24.699 39.486C24.654 39.7496 23.8768 39.5943 23.7454 39.8407L23.8617 39.6822Z" fill="#CB8587" fill-opacity="0.2"/>
<path d="M23.5135 39.5291C17.3882 50.843 12.8687 63.2048 9.14083 75.6339C5.26666 88.3973 2.57055 101.578 1.6303 114.928C1.18082 121.743 1.27908 128.486 0.829599 135.301C0.38012 142.116 -0.399478 148.775 -1.02154 155.556C-2.38195 169.276 -3.74239 182.996 -5.29038 196.769C-6.14871 204.411 -7.09328 212.036 -8.0529 219.749C-9.01252 227.462 -9.92716 234.911 -11.791 242.17C-11.836 242.434 -11.5208 242.679 -11.3183 242.537C-11.1007 242.308 -10.6842 242.482 -10.4666 242.253C-10.1478 241.954 -10.1141 241.233 -10.0241 240.706C-9.63789 238.966 -9.26659 237.314 -8.96664 235.557C-8.39673 232.218 -7.82688 228.88 -7.42956 225.507C-6.43234 218.619 -5.60769 211.697 -4.78306 204.775C-3.13377 190.931 -1.6571 177.053 -0.266695 163.157C0.441659 156.393 1.06374 149.612 1.77209 142.849C2.48045 136.085 2.74237 129.323 2.93297 122.456C3.27288 108.442 5.52618 94.7183 9.16016 81.2709C13.0454 66.8744 18.1538 52.6315 25.1268 39.4881C25.2731 39.1539 24.8717 38.892 24.6691 39.0332C24.4665 39.1744 24.0201 39.176 23.7162 39.3878C23.3973 39.6875 23.7538 40.2131 24.0727 39.9134C24.2902 39.6843 24.7217 39.7705 25.0256 39.5587L24.5678 39.1038C18.4125 50.5935 13.7916 63.0258 10.0487 75.5428C6.30585 88.0599 3.38853 102.014 2.57587 115.662C2.14139 122.389 2.31095 129.237 1.79017 135.947C1.2694 142.658 0.501022 149.773 -0.222328 156.624C-1.58274 170.344 -2.94315 184.064 -4.56244 197.732C-5.42077 205.374 -6.38043 213.087 -7.41134 220.695C-7.88365 224.507 -8.4422 228.302 -9.0871 232.08C-9.40205 233.925 -9.717 235.771 -10.0469 237.703C-10.2119 238.67 -10.3918 239.724 -10.7294 240.656C-10.9057 241.166 -10.8194 241.183 -11.3108 241.449C-11.4121 241.519 -11.5847 241.485 -11.701 241.643L-11.2283 242.01C-9.58571 235.524 -8.79107 228.778 -7.85383 222.242C-6.9729 215.513 -6.07694 208.696 -5.36859 201.932C-3.7493 188.264 -2.3739 174.456 -1.01348 160.736C-0.30513 153.973 0.316866 147.192 0.938928 140.411C1.56099 133.63 1.64665 127.378 1.87855 120.792C2.31606 107.251 4.5957 93.8963 8.1547 80.8883C10.1048 73.6461 12.5726 66.5073 15.1981 59.491C17.8236 52.4746 20.618 46.0372 24.0314 39.6326C24.2789 39.2278 23.6185 38.914 23.4573 39.3361L23.5135 39.5291Z" fill="#CB8587" fill-opacity="0.2"/>
<path d="M-4.99302 52.1008C-3.527 55.743 -2.14444 59.368 -0.663922 62.9228L6.14372 80.1232C6.70617 81.4126 7.17065 82.7722 7.7331 84.0616L8.65453 83.7091C7.18851 80.067 5.80595 76.442 4.32543 72.8871L-2.48221 55.6867C-3.04466 54.3973 -3.50914 53.0377 -4.07159 51.7483L-4.99302 52.1008Z" fill="#CB8587" fill-opacity="0.2"/>
<path d="M-5.27225 52.225C-1.09586 62.9249 3.17849 73.5546 7.43832 84.2716C7.49275 84.4634 7.65962 84.4977 7.84099 84.4446C8.1058 84.4087 8.39961 84.1982 8.76235 84.0921C8.92922 84.1264 8.9872 83.7772 8.91827 83.6727C4.74187 72.9728 0.467627 62.3432 -3.7922 51.6262C-3.84664 51.4344 -4.01351 51.4001 -4.19488 51.4532C-4.45969 51.4891 -4.75349 51.6996 -5.11623 51.8056C-5.47897 51.9117 -5.24682 52.5915 -4.86958 52.3981C-4.59027 52.2749 -4.31097 52.1516 -3.94822 52.0456L-4.3654 51.9599C-0.160002 62.4851 4.09984 73.2021 8.37417 83.8318L8.44668 83.3953C8.25081 83.5356 7.97157 83.6588 7.69226 83.782L8.10943 83.8677C3.90404 73.3425 -0.355814 62.6255 -4.63014 51.9958C-4.82245 51.5951 -5.38112 51.8415 -5.27225 52.225Z" fill="#CB8587" fill-opacity="0.2"/>
<path d="M31.018 96.5895C28.234 98.2759 25.5589 100.346 23.0507 102.45C17.4319 107.168 12.2414 112.425 8.03481 118.516C5.31994 122.385 3.06252 126.618 1.4585 131.076C1.48753 130.902 2.25348 130.969 2.38051 130.724C5.16393 122.805 9.93306 115.925 15.5046 109.934C19.6024 105.536 24.1578 101.504 29.058 97.9935C29.94 97.3617 30.9201 96.6597 31.8856 96.045C31.6061 96.1683 31.2576 96.187 30.9636 96.3976L31.018 96.5895Z" fill="#CB8587" fill-opacity="0.2"/>
<path d="M30.8076 96.2775C24.3581 100.282 18.4714 105.576 13.376 111.304C8.28062 117.032 3.82043 123.612 1.20786 131.024C1.16433 131.286 1.44022 131.704 1.65071 131.477C1.9592 131.179 2.36219 131.352 2.67068 131.054C2.89568 130.739 3.0262 129.953 3.16772 129.62C3.33826 129.113 3.5778 128.711 3.74834 128.204C4.58296 126.298 5.48653 124.497 6.47361 122.712C8.53124 119.161 10.8938 115.852 13.5758 112.7C18.9252 106.482 25.2184 100.82 32.0598 96.5347C32.3538 96.3241 32.176 95.836 31.813 95.9421C31.5335 96.0653 31.1706 96.1715 30.8911 96.2947C30.5137 96.4881 30.7605 97.0808 31.1379 96.8873C31.4174 96.7641 31.7803 96.658 32.0598 96.5347L31.813 95.9421C25.0696 100.157 18.8744 105.749 13.6374 111.809C11.068 114.804 8.65091 117.921 6.60778 121.385C5.53723 123.152 4.63368 124.954 3.81357 126.772C3.40351 127.682 2.97891 128.678 2.65234 129.605C2.46729 130.199 2.34031 130.444 1.86486 130.708C1.68338 130.761 1.59988 130.744 1.48737 130.901L1.93022 131.353C4.54279 123.941 8.90489 117.431 13.9858 111.791C19.0667 106.15 24.9535 100.856 31.3049 96.9216C31.6824 96.7282 31.2686 96.1012 30.9601 96.3992L30.8076 96.2775Z" fill="#CB8587" fill-opacity="0.2"/>
<path d="M-23.666 137.438C-21.1811 140.114 -18.8375 143.121 -16.6604 146.094C-12.1687 152.249 -8.19486 158.928 -5.51756 166.153C-4.04304 170.245 -3.04292 174.599 -3.08592 179.01C-3.07145 178.923 -2.19496 178.833 -2.16601 178.658C-2.14148 170.726 -5.32954 162.945 -9.10784 156.125C-12.2812 150.332 -16.0412 144.959 -20.2902 139.936C-21.1595 138.946 -21.9456 137.972 -22.8149 136.982C-22.8982 136.965 -23.5682 137.368 -23.7348 137.334L-23.666 137.438Z" fill="#CB8587" fill-opacity="0.2"/>
<path d="M-23.8762 137.665C-18.6169 143.346 -13.9334 149.901 -10.1552 156.721C-6.46038 163.523 -3.32686 171.112 -3.33691 178.957C-3.38034 179.219 -2.97833 179.392 -2.86607 179.234C-2.65604 179.007 -2.17071 179.197 -1.9462 178.882C-1.63838 178.585 -1.77243 177.836 -1.88112 177.453C-1.92477 175.64 -2.13506 173.793 -2.52639 171.998C-3.24023 168.515 -4.33066 165.224 -5.7833 162.039C-8.71395 155.303 -12.6768 149.077 -17.1574 143.376C-18.4397 141.759 -19.7218 140.143 -21.0041 138.526C-21.3627 138.092 -22.1053 136.857 -22.6739 136.65C-23.0905 136.564 -23.3294 136.966 -23.5793 136.915C-23.9959 136.829 -24.1117 137.527 -23.6952 137.612C-23.4453 137.664 -23.2352 137.436 -22.9708 137.4C-22.5253 137.312 -21.5619 138.772 -21.2033 139.207C-20.1275 140.51 -19.1205 141.709 -18.0448 143.013C-15.9077 145.707 -13.8829 148.559 -12.0536 151.55C-8.58704 157.133 -5.44272 163.101 -3.6638 169.51C-3.18917 171.321 -2.82685 173.29 -2.6166 175.137C-2.497 175.973 -2.33746 177.088 -2.48224 177.96C-2.62702 178.833 -2.44242 178.239 -2.80457 178.345C-2.97118 178.311 -3.06898 178.381 -3.18124 178.538L-2.7103 178.816C-2.70025 170.971 -5.73612 163.311 -9.44544 156.596C-13.2779 149.585 -18.0158 142.838 -23.4273 137.036C-23.717 136.706 -24.1515 137.248 -23.8617 137.578L-23.8762 137.665Z" fill="#CB8587" fill-opacity="0.2"/>
<path d="M17.8711 183.332C15.3656 184.355 12.9403 185.937 10.7513 187.657C5.30787 191.784 0.777292 197.183 -2.48766 203.294C-5.10182 208.091 -6.92316 213.323 -8.07538 218.692C-8.0463 218.517 -7.279 218.584 -7.15174 218.339C-5.2653 209.595 -1.55328 201.316 4.15898 194.532C7.60597 190.447 11.6639 186.85 16.2457 184.264C17.1002 183.807 17.9547 183.349 18.7947 182.979C18.6129 183.032 18.1511 183.209 17.9693 183.262L17.8711 183.332Z" fill="#CB8587" fill-opacity="0.2"/>
<path d="M17.7461 183.037C14.3029 184.5 11.1617 186.749 8.32582 189.241C5.60267 191.575 3.17041 194.24 1.04363 197.148C-3.63166 203.421 -6.68155 210.841 -8.40786 218.623C-8.45147 218.885 -8.14603 219.129 -7.9497 218.988C-7.64067 218.69 -7.25151 218.951 -6.92794 218.565C-6.70254 218.25 -6.78259 217.691 -6.72445 217.341C-6.63724 216.817 -6.55007 216.292 -6.2956 215.802C-5.79403 213.825 -5.1252 211.883 -4.45637 209.941C-3.03508 206.075 -1.11199 202.311 1.18563 198.895C3.48325 195.479 6.05719 192.481 8.9912 189.919C11.9252 187.357 15.1938 184.864 18.8188 183.348C19.1969 183.154 18.9496 182.561 18.586 182.667C18.306 182.791 18.0406 182.827 17.7606 182.95C17.397 183.056 17.6298 183.737 17.9934 183.63C18.2734 183.507 18.5388 183.471 18.8188 183.348L18.586 182.667C13.1976 184.906 8.43844 189.083 4.5156 193.431C0.352837 198.182 -2.90811 203.75 -5.11093 209.717C-5.72161 211.309 -6.24859 212.919 -6.70655 214.633C-6.93553 215.49 -7.16455 216.347 -7.40807 217.291C-7.49528 217.816 -7.52435 217.991 -7.98611 218.167C-8.08428 218.237 -8.25156 218.203 -8.36426 218.361L-7.9061 218.726C-6.19433 211.031 -3.17347 203.786 1.40365 197.584C3.5159 194.762 5.94807 192.097 8.57305 189.834C11.3944 187.429 14.4521 185.164 17.8953 183.701C18.2734 183.507 18.0261 182.914 17.6625 183.02L17.7461 183.037Z" fill="#CB8587" fill-opacity="0.2"/>
<path d="M6.1738 192.178C5.62731 190.804 5.0953 189.342 4.72972 187.915C3.98409 185.148 3.43381 182.241 3.66145 179.314C3.83857 177.728 4.18207 176.177 5.07925 174.919L4.16027 175.271C4.808 176.035 5.3436 176.956 5.7815 177.947C6.87803 180.156 7.40297 182.697 7.41408 185.223C7.38893 186.93 7.18284 188.69 6.7416 190.312C6.72713 190.399 6.43054 191.149 6.51376 191.166C6.51376 191.166 6.51374 191.166 6.59696 191.183C6.7634 191.217 7.01304 191.269 7.09626 191.286C8.78957 191.454 10.5372 191.813 12.046 192.574C14.6766 193.835 16.5221 196.198 17.1411 199.209L18.0601 198.857C16.6707 198.932 15.256 198.641 13.8702 198.176C10.6825 197.16 7.94693 194.975 6.02177 192.056C6.02177 192.056 5.18601 192.425 5.10279 192.408C7.04241 195.24 9.778 197.425 12.9512 198.528C14.2538 198.976 15.7518 199.284 17.1411 199.209C17.1411 199.209 18.0457 198.944 18.0601 198.857C17.4809 196.124 15.9538 193.918 13.6851 192.55C12.0387 191.581 10.2368 191.03 8.46025 190.845C8.29381 190.811 7.50152 190.918 7.34954 190.797C7.34954 190.797 7.46522 190.1 7.56291 190.03C7.64969 189.507 7.81967 189.001 7.90645 188.478C8.03662 187.694 8.18126 186.822 8.31144 186.038C8.49568 183.372 8.08293 180.674 7.02979 178.204C6.5376 177.021 5.87895 175.805 5.07925 174.919C5.07925 174.919 4.25796 175.201 4.16027 175.271C2.5613 177.646 2.48563 180.695 2.8007 183.463C3.06147 186.04 3.76735 188.529 4.65405 190.964C4.83139 191.451 5.00873 191.938 5.26929 192.442C5.26929 192.442 6.10505 192.073 6.18827 192.09L6.1738 192.178Z" fill="#CB8587" fill-opacity="0.2"/>
<path d="M6.43536 192.139C5.32796 189.478 4.51365 186.607 4.12984 183.735C3.74602 180.862 3.75287 177.709 5.36628 175.247C5.5761 175.02 5.30109 174.603 5.02251 174.726L4.10355 175.077C3.92265 175.13 3.79604 175.375 4.01677 175.6C5.80794 177.771 6.85756 180.781 7.17262 183.549C7.3573 185.029 7.27782 186.545 7.03194 188.026C6.90177 188.81 6.77162 189.595 6.55824 190.362C6.51485 190.624 6.29058 190.938 6.33041 191.216C6.28702 191.478 6.43898 191.599 6.68864 191.651C11.4102 191.72 15.962 194.368 17.095 199.468C17.0661 199.642 17.3158 199.693 17.4966 199.64L18.4156 199.288C18.7774 199.183 18.6145 198.608 18.2672 198.627C15.322 198.743 12.1778 197.465 9.82945 195.541C8.68243 194.674 7.74526 193.58 6.82252 192.399C6.6018 192.173 6.56203 191.895 6.22916 191.826C5.89629 191.758 5.65752 192.16 5.40787 192.108C5.15821 192.057 5.01709 192.388 5.15459 192.597C6.81916 195.012 8.98659 196.99 11.5338 198.234C13.4443 199.168 16.3679 200.219 18.3469 199.184C18.5278 199.131 18.5567 198.957 18.5024 198.766C17.963 196.312 16.6024 194.139 14.6811 192.753C13.6028 191.991 12.3979 191.472 11.1641 191.129C10.4152 190.975 9.74945 190.838 9.00049 190.684C8.66762 190.615 7.95841 190.74 7.64 190.584L7.83184 190.984C7.93308 190.374 8.21518 189.711 8.31643 189.101C8.47552 188.143 8.63462 187.184 8.79371 186.225C8.88762 184.623 8.81514 182.985 8.4785 181.384C8.14185 179.783 7.62426 178.234 6.82814 176.809C6.43008 176.096 5.7606 174.427 4.85611 174.691C3.77072 175.009 3.30414 176.265 3.04737 177.294C2.63505 178.741 2.54109 180.344 2.54487 181.877C2.71529 185.517 3.74682 189.153 5.08586 192.493C5.07139 192.58 5.3066 192.718 5.38982 192.735C5.73715 192.717 6.03018 192.507 6.39198 192.401C6.75377 192.295 6.52212 191.616 6.16032 191.722C5.88174 191.845 5.60325 191.968 5.33913 192.004L5.643 192.247C4.4813 189.394 3.59818 186.419 3.24329 183.372C3.05861 181.892 3.04045 180.446 3.18865 179.035C3.30435 178.338 3.82497 175.2 4.92126 175.336C5.67022 175.49 6.51711 177.646 6.83196 178.342C7.44718 179.82 7.8127 181.247 8.06613 182.831C8.31956 184.416 8.25462 185.844 8.02321 187.239C7.89304 188.023 7.76287 188.807 7.6327 189.592C7.57485 189.94 7.33614 190.342 7.27829 190.69C7.24936 190.865 7.23483 190.952 7.47002 191.09C8.10683 191.401 9.08014 191.241 9.74588 191.378C11.2438 191.686 12.6295 192.151 13.9575 192.965C16.1429 194.315 17.5036 196.487 18.0429 198.942L18.1152 198.506C16.3171 199.488 13.408 198.349 11.5808 197.433C9.2 196.222 7.26781 194.383 5.74076 192.177L5.48749 192.665C5.65392 192.7 5.6684 192.612 5.84929 192.56C6.11341 192.524 6.12788 192.437 6.29431 192.471C6.7104 192.556 7.14827 193.548 7.43775 193.877C8.37495 194.971 9.35551 195.804 10.517 196.583C12.84 198.142 15.6803 199.177 18.459 199.027L18.3105 198.366L17.3916 198.717L17.8077 198.803C16.6059 193.599 11.6669 190.691 6.76444 190.675L7.12267 191.109C7.18052 190.76 7.35058 190.255 7.50612 189.836C7.63628 189.052 7.84967 188.284 7.89663 187.483C8.1425 186.001 8.15316 184.381 7.88527 182.884C7.48699 180.099 6.52062 177.106 4.64623 174.919L4.55944 175.442L5.39521 175.073L5.05143 174.551C3.53571 176.943 3.30809 179.871 3.60869 182.726C3.93465 185.947 4.87202 189.114 6.10247 192.071C6.29427 192.471 6.85149 192.225 6.74291 191.842L6.43536 192.139Z" fill="#CB8587" fill-opacity="0.2"/>
<path d="M0.822296 147.744C2.48266 147.092 4.00527 146.232 5.47344 145.179C8.29743 143.232 10.9582 140.71 12.2884 137.373C12.4443 136.954 12.6 136.535 12.7559 136.115C12.7849 135.941 13.169 134.666 13.0168 134.544C13.0168 134.544 12.85 134.51 12.7667 134.493C12.2663 134.39 11.6246 134.619 11.1642 134.795C9.18481 135.291 7.23078 136.153 5.63574 137.45C2.54353 139.974 0.763879 143.941 0.0138369 147.939C0.0428219 147.764 0.891171 147.848 0.934649 147.586C1.69561 144.042 3.0403 140.618 5.43644 138.132C6.27743 137.221 7.25624 136.52 8.30392 135.923C8.77882 135.659 9.23923 135.483 9.71413 135.22C9.79751 135.237 9.17036 135.379 9.63076 135.202C9.71415 135.22 9.81197 135.149 9.90985 135.079C10.0911 135.026 10.2724 134.973 10.5371 134.937C10.983 134.848 11.5268 134.689 11.9582 134.688L12.1249 134.722C12.2083 134.739 11.951 135.769 11.922 135.944C11.8496 136.38 11.6938 136.8 11.5379 137.219C10.3201 140.399 7.90944 142.972 5.26672 144.866C3.60279 146.059 1.88445 147.059 0.0283258 147.851C0.20959 147.798 0.586632 147.605 0.851283 147.569L0.822296 147.744Z" fill="#CB8587" fill-opacity="0.2"/>
<path d="M0.944827 148.039C4.18178 146.719 7.28453 144.649 9.69487 142.076C10.8439 140.868 11.7717 139.434 12.4639 137.861C12.7466 137.197 12.9459 136.516 13.1452 135.835C13.2032 135.486 13.4714 134.909 13.3626 134.526C13.3082 134.334 13.2248 134.317 13.058 134.283C11.5138 134.236 9.77031 134.871 8.36027 135.574C6.86685 136.26 5.41329 137.225 4.2643 138.433C1.85397 141.006 0.509536 144.43 -0.251337 147.974C-0.309301 148.323 0.0930458 148.496 0.30327 148.269C0.332251 148.094 0.915903 148.214 1.12613 147.986C1.43422 147.689 1.5102 146.712 1.58265 146.275C2.01024 144.738 2.53568 143.132 3.28228 141.751C4.02887 140.37 5.04016 138.953 6.24354 137.937C6.84523 137.429 7.44694 136.921 8.11752 136.517C8.69023 136.183 9.4152 135.971 10.0024 135.55C10.296 135.34 10.1183 134.852 9.75581 134.958C9.75581 134.958 9.58902 134.924 9.47666 135.081C9.19755 135.205 9.26291 135.85 9.62539 135.744C10.5171 135.566 11.3544 135.197 12.3006 135.21L11.996 134.967C12.1193 135.263 11.8222 136.015 11.6953 136.259C11.5649 137.045 11.1844 137.779 10.8038 138.513C10.0572 139.894 9.15836 141.153 8.02386 142.274C5.74038 144.602 2.93119 146.462 -0.0266598 147.659C-0.389145 147.765 -0.157058 148.445 0.205427 148.339C0.484536 148.216 0.749175 148.18 1.02828 148.057C1.39077 147.951 1.15868 147.271 0.796198 147.377C0.517088 147.5 0.25245 147.536 -0.0266598 147.659L0.205427 148.339C3.35901 147.001 6.44729 145.018 8.85762 142.445C10.0066 141.237 10.9199 139.891 11.6121 138.318C11.8948 137.654 12.1086 136.886 12.3224 136.117C12.3948 135.681 12.6485 135.192 12.5397 134.808C12.5687 134.634 12.4019 134.599 12.2352 134.565C11.2891 134.551 10.4517 134.921 9.56002 135.099L9.70875 135.761C9.70875 135.761 9.89003 135.708 9.9879 135.638L9.74133 135.046C9.16862 135.379 8.44365 135.591 7.85645 136.012C7.18587 136.416 6.58416 136.924 5.98247 137.432C4.86246 138.465 3.97811 139.637 3.16263 140.914C2.34714 142.19 1.75276 143.693 1.32518 145.229C1.26722 145.579 1.20927 145.928 1.05344 146.347C1.00997 146.609 0.90853 147.22 0.865057 147.482C0.821585 147.743 0.154561 147.606 0.0277126 147.851L0.582422 148.145C1.29982 144.863 2.53193 141.597 4.8444 139.093C6.00788 137.798 7.37797 136.816 8.95476 136.147C10.2669 135.515 11.9271 134.863 13.3735 134.98L13.0689 134.737C13.2067 134.945 12.9095 135.697 12.8661 135.958C12.6523 136.727 12.3696 137.391 12.0724 138.142C11.3947 139.627 10.4125 140.869 9.27799 141.99C6.9945 144.319 4.08757 146.248 1.12972 147.446C0.767237 147.552 0.999222 148.231 1.36171 148.125L0.944827 148.039Z" fill="#CB8587" fill-opacity="0.2"/>
<path d="M4.58896 102.57C0.685328 101.228 -2.90042 97.9694 -4.38633 93.9726C-5.16362 91.9221 -5.23253 89.7471 -5.03758 87.5364L-5.95559 87.8879C-4.76641 88.4925 -3.68921 89.2541 -2.64095 90.1899C-0.446863 91.9915 1.47974 94.3683 2.58601 97.0266C3.30907 98.8859 3.65628 100.938 3.67094 102.922C3.68539 102.835 4.56006 102.744 4.58896 102.57C4.74013 96.4791 1.02766 91.3943 -3.77974 88.2452C-4.1665 87.9856 -4.55324 87.726 -5.03758 87.5364C-5.03758 87.5364 -5.94114 87.8008 -5.95559 87.8879C-6.38171 91.4916 -5.60063 95.0734 -3.33053 97.971C-1.84483 99.8971 0.143226 101.386 2.30109 102.37C2.78543 102.56 3.17215 102.819 3.67094 102.922C3.92034 102.973 4.33956 102.519 4.58896 102.57Z" fill="#CB8587" fill-opacity="0.2"/>
<path d="M4.6467 102.222C1.87779 101.293 -0.648987 99.4229 -2.38066 96.9059C-4.33284 94.1635 -4.99106 90.8767 -4.60826 87.5339C-4.56491 87.2727 -4.78541 87.0473 -5.06372 87.1701L-5.98179 87.5216C-6.26011 87.6445 -6.23477 88.0099 -6.08294 88.1311C-3.46943 89.4788 -1.00043 91.6972 0.731242 94.2142C2.46291 96.7311 3.41384 99.8079 3.3238 102.941C3.28045 103.202 3.76489 103.392 3.90583 103.06C3.89138 103.148 3.90579 103.06 4.07207 103.095C4.1552 103.112 4.33595 103.059 4.43354 102.989C4.59982 103.023 4.71187 102.866 4.80946 102.796C4.9215 102.639 4.88171 102.361 4.91061 102.187C4.98285 101.751 4.88878 101.282 4.87789 100.829C4.76208 99.4548 4.39686 98.0291 3.83645 96.7434C2.7301 94.0848 0.969575 91.742 -1.21024 89.8532C-1.73441 89.3853 -2.27301 89.0044 -2.81163 88.6236C-3.11528 88.3811 -3.35033 88.2427 -3.66844 88.0873C-4.05523 87.8277 -4.51069 87.4639 -4.92638 87.3784C-5.25893 87.3101 -5.62036 87.4158 -5.91313 87.6258C-6.46975 87.8715 -6.32145 88.5323 -6.32501 89.0718C-6.48374 92.1006 -5.7135 95.2303 -3.89869 97.7643C-2.77077 99.2568 -1.4333 100.522 0.113865 101.561C0.970588 102.097 1.82735 102.633 2.71297 102.995C3.04553 103.064 3.50103 103.428 3.84803 103.409C4.09744 103.46 4.33591 103.059 4.58532 103.11C5.00101 103.196 4.95037 102.465 4.52023 102.466C4.35396 102.432 4.25637 102.502 4.06119 102.642C3.68529 102.835 3.51904 102.801 3.11779 102.628C2.39845 102.3 1.76226 101.99 1.05737 101.574C-0.269286 100.761 -1.48397 99.7915 -2.50341 98.6815C-4.39046 96.5828 -5.49677 93.9242 -5.6995 91.0012C-5.75018 90.2705 -5.71774 89.5568 -5.68528 88.8432C-5.67083 88.7561 -5.64193 88.582 -5.61303 88.4078C-5.59858 88.3207 -5.13956 88.145 -5.05642 88.1621C-4.89015 88.1963 -4.35155 88.5771 -4.19972 88.6984C-3.96476 88.8367 -3.6611 89.0792 -3.42614 89.2176C-2.88752 89.5984 -2.34882 89.9793 -1.82465 90.4472C0.0515133 92.0935 1.70361 94.0539 2.78462 96.3471C3.34502 97.6328 3.80779 98.9885 4.00674 100.38C4.07187 101.024 4.2599 101.963 4.15876 102.572C4.12986 102.746 4.32504 102.606 4.14431 102.659C4.06117 102.642 3.88043 102.695 3.78284 102.765C3.68525 102.835 3.50461 102.888 3.40702 102.958L3.98895 103.078C4.12924 96.5335 -0.230655 90.6849 -5.77579 87.8341L-5.87694 88.4436L-4.87564 88.1092L-5.3312 87.7454C-5.7429 91.2624 -5.0304 94.7404 -2.92639 97.604C-1.04289 100.242 1.65015 102.147 4.57087 103.197C4.98657 103.283 5.08771 102.673 4.68647 102.501L4.6467 102.222Z" fill="#CB8587" fill-opacity="0.2"/>
<path d="M17.8688 88.692C17.0474 91.0473 16.6279 93.5753 16.3893 96.0504C16.223 98.0897 16.2088 100.25 16.6397 102.322C16.9764 103.924 17.6064 105.315 18.486 106.758C20.1077 109.436 22.9455 111.011 25.906 110.808C27.0316 110.769 28.0341 110.434 29.1343 110.029C29.594 109.853 30.0536 109.677 30.5133 109.501C30.6942 109.448 31.2515 109.202 31.2804 109.028C31.3094 108.854 31.0487 108.349 30.98 108.245C30.8026 107.758 30.5419 107.253 30.2668 106.836C29.3872 105.393 28.019 104.301 26.4373 103.976C24.1896 103.514 21.9893 104.323 19.9553 105.167L20.8746 104.815C22.1627 101.204 22.553 96.7766 21.3691 93.0175C20.8803 91.2943 20.0151 89.7642 18.7736 88.4272C18.6903 88.4101 18.0208 88.8134 17.8543 88.7791C21.579 92.7902 21.6231 98.749 20.3532 103.807C20.2809 104.243 20.1253 104.661 19.9553 105.167C19.9698 105.08 20.6936 104.868 20.8746 104.815C22.6443 104.007 24.8412 103.738 26.6835 104.567C27.8888 105.085 28.8408 106.092 29.5286 107.135C29.8037 107.552 29.9955 107.952 30.1729 108.44C30.2273 108.631 30.5024 109.048 30.4734 109.223C30.4445 109.397 30.4734 109.223 30.4445 109.397C30.2346 109.624 29.6917 109.783 29.3297 109.889C28.8701 110.065 28.5082 110.171 28.063 110.26C27.0894 110.42 26.0471 110.476 25.0336 110.358C22.7028 109.879 20.7121 108.388 19.3365 106.302C18.4424 104.946 17.9102 103.485 17.5734 101.883C17.1968 100.003 17.1821 98.0164 17.3339 96.0643C17.5038 93.485 18.0211 90.8868 18.8569 88.4443C18.828 88.6187 18.0643 88.5519 17.9376 88.7963L17.8688 88.692Z" fill="#CB8587" fill-opacity="0.2"/>
<path d="M17.5526 88.5367C15.4831 94.7818 14.3658 104.107 19.9324 108.947C22.3356 111.064 25.4589 111.436 28.3685 110.501C29.19 110.22 29.9282 109.921 30.6665 109.622C31.0284 109.516 31.4048 109.323 31.5603 108.904C31.7159 108.485 31.1513 107.738 30.9594 107.338C30.6445 106.642 30.2318 106.017 29.7215 105.461C26.9779 102.283 23.0405 103.186 19.7112 104.575C19.3348 104.768 19.581 105.36 19.9429 105.254C20.9453 104.919 21.043 104.849 21.2998 103.82C21.611 102.983 21.7702 102.024 21.9148 101.152C22.2331 99.2343 22.3161 97.1781 22.0517 95.1406C21.8416 93.2945 21.2696 91.5544 20.3213 90.0073C19.9919 89.3987 19.4163 88.1987 18.7648 87.9746C18.3631 87.8019 18.1098 88.2907 17.7769 88.2222C17.4439 88.1538 17.2884 88.5725 17.5092 88.7982C21.2734 93.0876 21.2161 99.6562 19.5157 104.715C19.4723 104.977 19.7475 105.394 19.9573 105.167C20.1528 105.027 20.5001 105.008 20.7788 104.885C21.2384 104.709 21.6147 104.516 22.0599 104.427C23.1455 104.109 24.3543 104.087 25.422 104.397C26.4896 104.707 27.5827 105.382 28.3681 106.355C29.016 107.119 29.7037 108.162 29.8775 109.189C29.9716 109.659 30.5833 109.605 30.4892 109.135C30.5326 108.873 30.1308 108.7 29.9064 109.015C29.1791 109.767 27.6085 109.894 26.6494 109.968C25.4262 110.077 24.1631 109.907 23.0411 109.406C20.7972 108.404 19.2408 106.371 18.325 104.11C16.2725 99.3611 17.2997 93.1721 18.859 88.4447C18.9024 88.1832 18.6273 87.766 18.4174 87.9933C18.2075 88.2206 17.7081 88.1179 17.4982 88.3452C17.1906 88.6426 17.7155 89.111 18.0231 88.8137C18.2185 88.6736 18.6347 88.7591 18.8446 88.5318L18.4029 88.0805C16.6591 93.401 15.6827 100.322 18.5242 105.503C19.7042 107.729 21.5538 109.551 23.9388 110.222C25.2562 110.583 26.6314 110.595 27.9668 110.329C28.857 110.151 30.0115 109.938 30.6411 109.256L30.0585 109.136C30.2539 108.996 30.5036 109.047 30.6845 108.994C30.3658 106.765 28.2412 104.526 26.3014 103.766C25.0817 103.335 23.8042 103.253 22.552 103.537C21.9259 103.678 21.3686 103.924 20.728 104.153C20.4494 104.276 20.0187 104.278 19.8089 104.505L20.2504 104.956C22.0919 99.5659 22.1094 92.7186 18.1243 88.2035L17.8565 88.7794C18.1062 88.8308 18.5115 88.4634 18.678 88.4976C18.9277 88.5489 19.3948 89.3661 19.5323 89.5747C19.7386 89.8875 19.8761 90.096 20.0824 90.4089C20.9475 91.9389 21.3676 93.5576 21.6066 95.2293C21.8456 96.9011 21.7516 98.5043 21.56 100.178C21.4298 100.962 21.2996 101.747 21.1694 102.531C21.097 102.967 21.0392 103.316 20.8004 103.717C20.5471 104.206 20.3661 104.259 19.8921 104.522L20.1238 105.201C21.8934 104.393 23.8151 103.706 25.773 103.838C27.55 104.023 29.0846 105.15 30.1161 106.714C30.3912 107.131 30.5686 107.618 30.8437 108.036C31.0355 108.436 31.0211 108.523 30.7135 108.82C30.0295 109.31 29.0416 109.558 28.2346 109.753C26.4251 110.282 24.6047 110.359 22.8313 109.634C19.3677 108.2 17.4058 104.462 16.9856 100.77C16.4568 96.6947 17.1657 92.4235 18.3994 88.6206C18.4718 88.1848 17.918 87.8907 17.8456 88.3265L17.5526 88.5367Z" fill="#CB8587" fill-opacity="0.2"/>
<path d="M0.389035 62.8141C1.43799 61.6781 2.29515 60.1423 2.8738 58.7294C4.28428 55.415 4.72531 51.7211 3.86036 48.1191C3.86036 48.1191 3.03922 48.4008 2.94155 48.4709C2.37003 48.8039 1.8383 49.4155 1.48746 49.9741C0.282995 51.5287 -0.48015 53.5344 -0.895955 55.5215C-1.19963 57.3513 -1.42011 59.1983 -1.37651 61.0094L-0.457706 60.6577C-2.41856 58.993 -5.22942 57.7844 -7.64946 58.3682C-8.27527 58.5099 -9.01319 58.8087 -9.57025 59.0546C-9.94645 59.2476 -10.3372 59.5277 -10.7278 59.8078C-10.9232 59.9479 -11.3138 60.228 -11.2595 60.4194C-11.274 60.5065 -10.9412 60.575 -10.7893 60.6963C-10.4709 60.8519 -10.2357 60.9903 -9.91732 61.1459C-9.12866 61.5783 -8.24235 61.9408 -7.42477 62.199C-5.23611 63.0093 -2.76897 63.6968 -0.432128 63.0959C-0.168055 63.06 0.124937 62.85 0.486676 62.7441C-1.40522 63.2563 -3.40206 62.8457 -5.28683 62.2781C-6.83879 61.7788 -8.29306 61.2095 -9.78717 60.3617C-9.95358 60.3274 -10.1201 60.2932 -10.2576 60.0847C-10.4095 59.9634 -10.424 60.0505 -10.2286 59.9105C-10.0876 59.579 -9.50151 59.1589 -9.12531 58.9659C-8.92998 58.8258 -8.73469 58.6857 -8.47062 58.6499C-7.91355 58.404 -8.4706 58.6499 -8.55381 58.6328C-8.3874 58.667 -8.19209 58.527 -8.02568 58.5612C-6.50998 58.242 -4.86034 58.6712 -3.51817 59.3977C-2.64631 59.8473 -1.85767 60.2798 -1.1124 60.9736C-1.1124 60.9736 -0.208052 60.709 -0.193591 60.6219C-0.194022 56.4767 0.478281 51.3886 3.62158 48.5206C3.81691 48.3805 3.92902 48.2233 4.20756 48.1004L3.28875 48.4522C4.0705 52.037 3.71277 55.7481 2.30229 59.0625C1.62598 60.5454 0.86648 62.0112 -0.182474 63.1472C0.0273164 62.92 0.526538 63.0226 0.736329 62.7954L0.389035 62.8141Z" fill="#CB8587" fill-opacity="0.2"/>
<path d="M0.624144 62.952C4.10715 59.0727 5.33996 53.1991 4.22169 48.0135C4.25061 47.8393 4.02996 47.6137 3.75144 47.7366C3.47293 47.8596 3.20885 47.8954 2.93034 48.0184C2.47096 48.1942 2.13465 48.6657 1.74401 48.9458C0.904906 49.8546 0.188856 51.0589 -0.263179 52.2274C-1.39148 54.8788 -1.71673 57.8755 -1.69471 60.8534C-1.72363 61.0277 -1.40532 61.1832 -1.22446 61.1303L-0.305718 60.7786C-0.124861 60.7256 -0.0670208 60.3771 -0.218958 60.2558C-1.959 58.8168 -4.02095 57.7622 -6.25641 57.7531C-7.36691 57.705 -8.45202 58.0225 -9.48289 58.5314C-9.94226 58.7073 -10.3329 58.9874 -10.738 59.3547C-10.9478 59.5818 -11.4072 59.7577 -11.5483 60.0891C-11.8448 60.8391 -10.5281 61.1999 -10.1265 61.3726C-8.93639 61.9777 -7.80051 62.3914 -6.58145 62.8222C-5.36239 63.253 -4.19759 63.4925 -2.9207 63.5748C-1.6438 63.6571 -0.656377 63.4096 0.443224 63.0049C0.804939 62.8991 0.558986 62.3079 0.197273 62.4137C-1.76323 62.8216 -3.76 62.4111 -5.72784 61.8263C-6.71177 61.534 -7.59803 61.1715 -8.55303 60.7049C-9.1897 60.3938 -9.88064 59.8913 -10.5318 59.6674L-10.369 60.2415C-9.90606 59.5257 -9.1537 59.1397 -8.49901 58.8238L-8.74506 58.2326L-8.92588 58.2855C-9.28759 58.3914 -9.30565 59.0184 -8.86074 58.9297C-7.98538 58.8393 -7.17875 58.6447 -6.26357 58.8329C-5.26518 59.0381 -4.29574 59.4176 -3.34074 59.8843C-2.87047 60.1612 -2.40016 60.4381 -1.94435 60.8021C-1.79241 60.9234 -1.57169 61.149 -1.3221 61.2003C-0.989305 61.2687 -0.59869 60.9886 -0.320175 60.8657C-0.236976 60.8828 -0.208057 60.7085 -0.262336 60.5171C-0.262766 56.3723 0.329856 50.7275 3.9975 48.3279C4.29047 48.1178 4.11316 47.6308 3.75144 47.7366L2.8327 48.0884C2.7495 48.0713 2.62296 48.3156 2.6085 48.4027C3.67249 53.397 2.46848 59.0963 -0.819213 62.8355C-1.04345 63.1498 -0.670756 63.4967 -0.392242 63.3738C-0.0992662 63.1637 0.233529 63.2321 0.526504 63.022C0.81948 62.8119 0.490246 62.2036 0.182812 62.5008C-0.110164 62.7109 -0.442959 62.6425 -0.735934 62.8526L-0.309064 63.3909C3.17394 59.5116 4.40675 53.638 3.28849 48.4524L3.06429 48.7667L3.98304 48.415L3.73698 47.8238C-0.125976 50.3635 -0.761938 56.2697 -0.790428 60.5888L-0.732589 60.2403C-0.747049 60.3274 -1.02556 60.4504 -1.20642 60.5033C-1.37282 60.4691 -1.67671 60.2264 -1.91184 60.0879C-2.68599 59.5684 -3.4746 59.1359 -4.27766 58.7906C-4.99753 58.4624 -5.82955 58.2914 -6.5928 58.2246C-7.35604 58.1578 -8.06501 58.2823 -8.77398 58.4069L-8.70875 59.051C-8.54235 59.0852 -8.34705 58.9452 -8.16619 58.8922C-7.87322 58.6822 -8.05053 58.1952 -8.41225 58.301C-9.24779 58.6699 -10.0978 59.1259 -10.5752 59.9288C-10.7017 60.1731 -10.6475 60.3644 -10.4124 60.5029C-10.0796 60.5713 -9.70693 60.9182 -9.3886 61.0738C-8.90387 61.2635 -8.43366 61.5404 -7.94892 61.7301C-6.97946 62.1096 -6.0932 62.4721 -5.10928 62.7644C-3.22463 63.3321 -1.28209 63.5513 0.580761 63.2134L0.334707 62.6222C-0.667236 62.9568 -1.5571 63.1343 -2.5844 63.1033C-3.6117 63.0723 -4.52689 62.8842 -5.51081 62.5918C-6.49473 62.2994 -7.46417 61.9199 -8.43363 61.5404C-8.76643 61.472 -10.7741 60.6087 -10.8139 60.3302C-10.785 60.1559 -10.1158 59.7529 -10.0181 59.6829C-9.62751 59.4028 -9.15368 59.1398 -8.61111 58.981C-7.69236 58.6293 -6.71938 58.4689 -5.77527 58.4827C-3.91599 58.6848 -2.08916 59.601 -0.652989 60.7972L-0.566233 60.2745L-1.48497 60.6262L-1.01472 60.9031C-0.996919 58.2036 -0.783794 55.3641 0.315592 52.887C0.767627 51.7185 1.38604 50.5842 2.22515 49.6755C2.54704 49.2911 2.95219 48.9239 3.42603 48.6609C3.70454 48.5379 3.96854 48.5021 4.16385 48.3621L3.6936 48.0852C4.75759 53.0794 3.55368 58.7788 0.265989 62.5179C-0.0414452 62.8152 0.483065 63.2834 0.790499 62.9862L0.624144 62.952Z" fill="#CB8587" fill-opacity="0.2"/>
<path d="M10.4531 43.1247C10.0892 45.8323 10.2085 48.7288 10.7857 51.4502C11.2006 53.5997 11.9617 55.7305 13.2924 57.5297C13.5665 57.945 13.9235 58.3773 14.3778 58.7399C14.5978 58.9646 15.0377 59.414 15.3694 59.4821C15.6182 59.5333 15.9932 59.341 16.2564 59.3054C19.6241 58.6509 23.1613 57.4928 26.0529 55.5738C27.7907 54.4051 29.4059 52.9418 30.3468 50.8914C30.6136 50.3179 30.5162 50.3877 30.0871 50.3893C29.5895 50.287 28.9946 50.2545 28.4681 50.3259C23.9285 50.2908 19.2917 52.3898 16.6636 56.3375L17.5794 55.9871C17.6295 52.5869 16.7133 48.8086 14.7803 45.9882C13.8752 44.7253 12.7753 43.6018 11.5204 42.8953C11.3545 42.8612 10.8534 43.2967 10.6046 43.2456C14.5748 45.6767 16.2447 50.5971 16.6021 55.1581C16.6274 55.5223 16.6383 55.9733 16.6636 56.3375C16.678 56.2507 17.4676 56.1436 17.5794 55.9871C18.9349 54.0218 20.7449 52.4191 22.8686 51.5091C22.9515 51.5261 23.1461 51.3866 23.2291 51.4037C22.8685 51.5091 23.8673 51.1758 23.2291 51.4037C23.4094 51.351 23.687 51.2285 23.9502 51.1928C24.3937 51.1044 24.8372 51.016 25.2807 50.9276C25.9874 50.8036 26.7627 50.7833 27.5379 50.7631C28.0499 50.7785 28.562 50.794 29.074 50.8094C29.074 50.8094 29.6689 50.8419 29.6545 50.9286C29.7086 51.1193 29.2327 51.919 29.1209 52.0755C28.8686 52.5622 28.6307 52.9621 28.3098 53.3449C27.6681 54.1106 26.9578 54.7725 26.1646 55.4173C23.4245 57.4571 20.1506 58.5796 16.8658 59.251C16.7 59.217 16.4079 59.4262 16.242 59.3922C15.9103 59.324 15.4847 58.7878 15.1818 58.5461C14.8104 58.2005 14.4534 57.7682 14.1794 57.3529C12.9857 55.7614 12.2931 53.7344 11.8494 51.7585C11.2866 48.9503 11.1133 45.8632 11.4916 43.0688C11.4628 43.2424 10.6046 43.2456 10.5758 43.4192L10.4531 43.1247Z" fill="#CB8587" fill-opacity="0.2"/>
<path d="M10.1219 43.054C9.61023 47.1681 9.96766 51.7301 11.7423 55.506C12.4529 56.9087 13.5061 58.8308 14.9126 59.6583C15.3815 59.9342 15.8395 59.759 16.3804 59.6008C17.3649 59.3542 18.3493 59.1076 19.3338 58.861C22.9399 57.8065 26.8128 56.1784 29.2972 53.098C29.7154 52.6453 31.3345 50.6439 30.4941 50.0224C30.0397 49.6597 28.8894 49.8722 28.2944 49.8397C27.3531 49.8259 26.4803 49.9159 25.5932 50.0927C21.8789 50.766 18.4604 52.7567 16.2934 55.9921C16.0843 56.2185 16.3584 56.6339 16.6361 56.5114L17.552 56.1609C17.7179 56.195 17.7611 55.9346 17.7755 55.8478C17.768 52.794 17.1655 49.7078 15.7299 46.9891C15.0049 45.6731 14.1826 44.4269 13.0538 43.4768C12.6823 43.1312 12.0223 42.457 11.5246 42.3547C11.027 42.2525 10.8719 42.6695 10.5257 42.6881C10.1795 42.7067 10.1903 43.1578 10.4248 43.2958C14.6155 45.9522 16.2966 51.3247 16.2646 56.1658C16.2214 56.4262 16.5387 56.5811 16.7334 56.4416C16.9426 56.2153 17.4402 56.3175 17.6494 56.0912C17.9559 55.7951 18.2083 55.3083 18.4319 54.9951C18.6554 54.682 18.9619 54.3859 19.2684 54.0898C20.5088 52.8185 21.8971 52.206 23.4117 51.3502C23.6893 51.2277 23.7073 50.603 23.2637 50.6914C23.1808 50.6743 23.0835 50.7441 22.9861 50.8139C22.7084 50.9364 22.7337 51.3006 22.8852 51.4215C23.1196 51.5595 23.6749 51.3145 23.9526 51.192C24.8541 50.9283 25.7268 50.8383 26.6824 50.7654C27.0286 50.7467 29.0229 50.6178 29.077 50.8085C29.0626 50.8953 28.9075 51.3123 28.7813 51.5557C26.9605 54.7724 23.5709 56.5896 20.228 57.6084C19.5068 57.8193 18.7856 58.0302 18.0643 58.2412C17.2602 58.435 16.4272 58.8025 15.7528 58.2151C14.3895 57.1271 13.4733 55.4127 12.8889 53.7666C11.5831 50.2666 11.305 46.2595 11.7302 42.6663C11.7878 42.319 11.3876 42.147 11.1784 42.3734C10.9693 42.5997 10.569 42.4277 10.2625 42.7238C9.95598 43.0199 10.4789 43.4864 10.7854 43.1903C10.9945 42.964 11.3948 43.136 11.7013 42.8399L11.1496 42.547C10.7533 45.9666 10.9376 49.5055 11.926 52.8506C12.3589 54.3759 12.9721 55.8484 13.9603 57.1287C14.523 57.8727 15.5653 59.3436 16.5066 59.3574C17.8914 59.2829 19.5429 58.6347 20.8194 58.1788C22.2763 57.6702 23.6646 57.0577 24.9988 56.2546C26.3331 55.4514 27.6277 54.3708 28.6048 53.1353C29.0375 52.5958 30.0147 51.3602 29.8812 50.6146C29.8956 50.5278 29.827 50.4239 29.6755 50.303C28.792 49.942 27.4902 50.0336 26.6175 50.1236C25.9251 50.1609 25.1353 50.268 24.5114 50.4091C24.3456 50.375 24.1509 50.5146 23.8876 50.5503C23.7073 50.603 22.9175 50.71 23.1519 50.848L23.051 51.4556C23.051 51.4556 23.2169 51.4897 23.2313 51.4029L23.0834 50.7441C21.6807 51.4434 20.4582 52.09 19.2611 53.1008C18.6625 53.6062 18.1469 54.1287 17.6998 54.755C17.3788 55.1379 17.2382 55.4681 16.7802 55.6433C16.5999 55.696 16.434 55.662 16.3223 55.8185L16.7911 56.0944C16.7833 50.9759 14.9509 45.4824 10.6087 42.7052L10.5078 43.3128C10.7566 43.364 11.0486 43.1546 11.3119 43.119C11.9069 43.1514 12.704 44.0334 13.0755 44.379C14.107 45.3989 14.9293 46.6451 15.474 48.0137C16.6066 50.4907 17.101 53.1956 17.0147 55.7812L17.2382 55.4681L16.3223 55.8185L16.6649 56.3378C18.356 53.9023 20.79 52.1581 23.6063 51.2106C24.9658 50.7718 26.3795 50.5236 27.8472 50.4661C28.3593 50.4815 28.8713 50.4969 29.3834 50.5123C29.6323 50.5635 30.0471 50.6487 29.91 50.441C29.8812 50.6146 29.517 51.2579 29.4052 51.4145C29.1672 51.8145 28.9292 52.2144 28.6083 52.5974C26.4593 55.208 23.1959 56.7818 20.1163 57.765C18.6594 58.2736 17.0222 58.835 15.54 58.9793C14.8476 59.0166 14.065 58.0479 13.6394 57.5116C13.0623 56.8544 12.597 56.0406 12.2291 55.1571C10.523 51.4851 10.2341 47.027 10.6484 42.9826C10.7204 42.5486 10.0568 42.4123 9.98477 42.8463L10.1219 43.054Z" fill="#CB8587" fill-opacity="0.2"/>
</svg>
