<svg width="191" height="122" viewBox="0 0 191 122" fill="none" xmlns="http://www.w3.org/2000/svg">
<g filter="url(#filter0_d_149_590)">
<rect x="14" y="10" width="163" height="94" rx="8" fill="white"/>
<path fill-rule="evenodd" clip-rule="evenodd" d="M33.9456 35.8639H35.9041V55.534C35.9041 55.534 35.9041 56.9633 37.2331 56.9633H47.8652V59.0732H36.3238C36.3238 59.0732 33.9456 59.0732 33.9456 56.5549C33.9456 54.0366 33.9456 35.8639 33.9456 35.8639Z" fill="#AD4582"/>
<path fill-rule="evenodd" clip-rule="evenodd" d="M36.6737 35.8639H38.6323V52.7434C38.6323 52.7434 38.4924 54.0366 39.7514 54.0366C46.1167 54.0366 47.7955 54.0366 47.7955 54.0366V56.1466H37.7929C37.7929 56.1466 36.6038 56.0785 36.6038 54.9214C36.6038 54.1047 36.6038 35.8639 36.6038 35.8639H36.6737Z" fill="#AD4582"/>
<path fill-rule="evenodd" clip-rule="evenodd" d="M39.4016 35.8638H41.3602V50.157C41.3602 50.157 41.2203 51.1099 42.1995 51.1099H47.8653V53.2198H40.241C40.241 53.2198 39.4016 53.0837 39.4016 52.0628V35.7958V35.8638Z" fill="#AD4582"/>
<path fill-rule="evenodd" clip-rule="evenodd" d="M42.1295 35.8639H44.0881V47.4345C44.0881 47.4345 43.9482 48.2513 44.8575 48.2513H47.8653V50.3612H43.2487C42.4093 50.3612 42.0596 50.089 42.0596 49.3403V35.932L42.1295 35.8639Z" fill="#AD4582"/>
<path fill-rule="evenodd" clip-rule="evenodd" d="M58.7774 59.1412H56.8188V39.4711C56.8188 39.4711 56.8188 38.0418 55.4898 38.0418C54.3007 38.0418 44.8577 38.0418 44.8577 38.0418V35.9319H56.3991C56.3991 35.9319 58.7774 35.9319 58.7774 38.4502C58.7774 40.9685 58.7774 59.1412 58.7774 59.1412Z" fill="#EF7D00"/>
<path fill-rule="evenodd" clip-rule="evenodd" d="M56.0493 59.1413H54.0907V42.2618C54.0907 42.2618 54.2306 40.9686 52.9715 40.9686C46.6062 40.9686 44.9275 40.9686 44.9275 40.9686V38.8586H54.9301C54.9301 38.8586 56.1192 38.9267 56.1192 40.0838C56.1192 40.9005 56.1192 59.1413 56.1192 59.1413H56.0493Z" fill="#EF7D00"/>
<path fill-rule="evenodd" clip-rule="evenodd" d="M53.3214 59.1412H51.3628V44.8481C51.3628 44.8481 51.5027 43.8952 50.5235 43.8952C48.8447 43.8952 44.8577 43.8952 44.8577 43.8952V41.7853H52.482C52.482 41.7853 53.3214 41.9214 53.3214 42.9423C53.3214 43.8271 53.3214 59.2093 53.3214 59.2093V59.1412Z" fill="#EF7D00"/>
<path fill-rule="evenodd" clip-rule="evenodd" d="M50.5934 59.1412H48.6349V47.5706C48.6349 47.5706 48.7748 46.7539 47.8654 46.7539C45.6271 46.7539 44.8577 46.7539 44.8577 46.7539V44.6439H49.4742C50.3136 44.6439 50.6634 44.9162 50.5934 45.6649C50.5934 46.5497 50.5934 59.0732 50.5934 59.0732V59.1412Z" fill="#EF7D00"/>
<path fill-rule="evenodd" clip-rule="evenodd" d="M78.9224 40.6963H80.9509V42.8743H78.9224V40.6963Z" fill="#AD4582"/>
<path fill-rule="evenodd" clip-rule="evenodd" d="M78.9224 45.5287H80.9509V59.1412H78.9224V45.5287Z" fill="#AD4582"/>
<path fill-rule="evenodd" clip-rule="evenodd" d="M150.759 40.6282H152.788V59.1412H150.759V40.6282Z" fill="#AD4582"/>
<path fill-rule="evenodd" clip-rule="evenodd" d="M92.2124 45.5287L88.1555 56.4868L84.0285 45.5287H81.7202L86.8264 59.1412H89.4845L94.5207 45.5287H92.2124Z" fill="#AD4582"/>
<path fill-rule="evenodd" clip-rule="evenodd" d="M73.1866 56.9633C72.4871 56.9633 71.9975 56.3507 71.9975 55.6701V40.6963H69.969V56.0104C69.969 57.7119 71.2281 59.1412 72.8369 59.1412H78.1529V56.9633H73.1866Z" fill="#AD4582"/>
<path fill-rule="evenodd" clip-rule="evenodd" d="M111.658 47.7068C110.959 47.7068 110.469 48.3193 110.469 49V59.1413H108.44V48.5916C108.44 46.89 109.7 45.4607 111.308 45.4607H113.407V47.6387H111.588L111.658 47.7068Z" fill="#AD4582"/>
<path fill-rule="evenodd" clip-rule="evenodd" d="M107.321 52.4711V52.0627C107.321 48.1151 104.313 44.9161 100.606 44.9161C96.8989 44.9161 93.8911 48.1151 93.8911 52.0627C93.8911 56.0103 96.8989 59.2093 100.606 59.2093C104.313 59.2093 106.412 56.9632 107.111 53.7643H105.153C104.453 55.8062 102.635 57.1674 100.606 57.1674C98.5776 57.1674 96.0595 55.1936 95.7797 52.4711H107.251H107.321ZM96.0595 50.4973C96.759 48.3193 98.5776 46.958 100.606 46.958C102.635 46.958 104.523 48.3193 105.153 50.4973H95.9896H96.0595Z" fill="#AD4582"/>
<path fill-rule="evenodd" clip-rule="evenodd" d="M142.925 44.848C140.477 44.848 138.378 46.2093 137.189 48.2512C136 46.2093 133.832 44.848 131.454 44.848C129.075 44.848 126.907 46.2093 125.718 48.2512C124.529 46.2093 122.36 44.848 119.982 44.848C116.275 44.848 113.197 48.047 113.197 52.0627V63.7694H115.226V57.2354C116.415 58.5286 118.093 59.2773 119.982 59.2773C121.871 59.2773 124.529 57.916 125.718 55.8741C126.907 57.916 129.075 59.2773 131.454 59.2773C133.832 59.2773 136 57.916 137.189 55.8741C138.378 57.916 140.547 59.2773 142.925 59.2773C146.632 59.2773 149.71 56.0784 149.71 52.0627C149.71 48.047 146.702 44.848 142.925 44.848ZM119.912 57.0993C117.324 57.0993 115.156 54.8532 115.156 52.0627C115.156 49.2721 117.254 47.026 119.912 47.026C122.57 47.026 124.669 49.2721 124.669 52.0627C124.669 54.8532 122.57 57.0993 119.912 57.0993ZM131.454 57.0993C128.865 57.0993 126.697 54.8532 126.697 52.0627C126.697 49.2721 128.795 47.026 131.454 47.026C134.112 47.026 136.21 49.2721 136.21 52.0627C136.21 54.8532 134.112 57.0993 131.454 57.0993ZM142.925 57.0993C140.337 57.0993 138.169 54.8532 138.169 52.0627C138.169 49.2721 140.267 47.026 142.925 47.026C145.583 47.026 147.681 49.2721 147.681 52.0627C147.681 54.8532 145.583 57.0993 142.925 57.0993Z" fill="#AD4582"/>
<path fill-rule="evenodd" clip-rule="evenodd" d="M155.236 43.8952C154.326 43.8952 153.627 43.1465 153.627 42.1936C153.627 41.2408 154.326 40.4921 155.236 40.4921C156.145 40.4921 156.845 41.2408 156.845 42.1936C156.845 43.1465 156.145 43.8952 155.236 43.8952ZM155.236 40.6962C154.466 40.6962 153.907 41.3088 153.907 42.1256C153.907 42.9423 154.536 43.5549 155.236 43.5549C155.935 43.5549 156.565 42.9423 156.565 42.1256C156.565 41.3088 155.935 40.6962 155.236 40.6962ZM154.536 41.2407H155.306C155.725 41.2407 155.865 41.513 155.865 41.7172C155.865 41.9894 155.655 42.2617 155.376 42.2617C155.516 42.2617 155.655 42.4659 155.795 42.7381L156.005 43.0784H155.655L155.516 42.8062C155.306 42.3978 155.236 42.3297 155.026 42.3297H154.886V43.1465H154.606V41.3088L154.536 41.2407ZM155.236 42.0575C155.446 42.0575 155.585 41.9894 155.585 41.7853C155.585 41.5811 155.446 41.513 155.306 41.513H154.886V42.0575H155.306H155.236Z" fill="#AD4582"/>
<path d="M35.1915 84L31.4715 75.6H32.4315L35.9115 83.508H35.3835L38.8875 75.6H39.7875L36.0675 84H35.1915ZM43.4021 84.06C42.7461 84.06 42.1701 83.924 41.6741 83.652C41.1781 83.372 40.7901 82.992 40.5101 82.512C40.2301 82.024 40.0901 81.468 40.0901 80.844C40.0901 80.22 40.2221 79.668 40.4861 79.188C40.7581 78.708 41.1261 78.332 41.5901 78.06C42.0621 77.78 42.5901 77.64 43.1741 77.64C43.7661 77.64 44.2901 77.776 44.7461 78.048C45.2101 78.312 45.5741 78.688 45.8381 79.176C46.1021 79.656 46.2341 80.212 46.2341 80.844C46.2341 80.884 46.2301 80.928 46.2221 80.976C46.2221 81.016 46.2221 81.06 46.2221 81.108H40.7381V80.472H45.7661L45.4301 80.724C45.4301 80.268 45.3301 79.864 45.1301 79.512C44.9381 79.152 44.6741 78.872 44.3381 78.672C44.0021 78.472 43.6141 78.372 43.1741 78.372C42.7421 78.372 42.3541 78.472 42.0101 78.672C41.6661 78.872 41.3981 79.152 41.2061 79.512C41.0141 79.872 40.9181 80.284 40.9181 80.748V80.88C40.9181 81.36 41.0221 81.784 41.2301 82.152C41.4461 82.512 41.7421 82.796 42.1181 83.004C42.5021 83.204 42.9381 83.304 43.4261 83.304C43.8101 83.304 44.1661 83.236 44.4941 83.1C44.8301 82.964 45.1181 82.756 45.3581 82.476L45.8381 83.028C45.5581 83.364 45.2061 83.62 44.7821 83.796C44.3661 83.972 43.9061 84.06 43.4021 84.06ZM48.3483 84V77.7H49.1643V79.416L49.0803 79.116C49.2563 78.636 49.5523 78.272 49.9683 78.024C50.3843 77.768 50.9003 77.64 51.5163 77.64V78.468C51.4843 78.468 51.4523 78.468 51.4203 78.468C51.3883 78.46 51.3563 78.456 51.3243 78.456C50.6603 78.456 50.1403 78.66 49.7643 79.068C49.3883 79.468 49.2003 80.04 49.2003 80.784V84H48.3483ZM64.9373 77.64C65.4493 77.64 65.8933 77.74 66.2693 77.94C66.6533 78.132 66.9493 78.428 67.1573 78.828C67.3733 79.228 67.4813 79.732 67.4813 80.34V84H66.6293V80.424C66.6293 79.76 66.4693 79.26 66.1493 78.924C65.8373 78.58 65.3933 78.408 64.8173 78.408C64.3853 78.408 64.0093 78.5 63.6893 78.684C63.3773 78.86 63.1333 79.12 62.9573 79.464C62.7893 79.8 62.7053 80.208 62.7053 80.688V84H61.8533V80.424C61.8533 79.76 61.6933 79.26 61.3733 78.924C61.0533 78.58 60.6053 78.408 60.0293 78.408C59.6053 78.408 59.2333 78.5 58.9133 78.684C58.5933 78.86 58.3453 79.12 58.1693 79.464C58.0013 79.8 57.9173 80.208 57.9173 80.688V84H57.0653V77.7H57.8813V79.404L57.7493 79.104C57.9413 78.648 58.2493 78.292 58.6733 78.036C59.1053 77.772 59.6133 77.64 60.1973 77.64C60.8133 77.64 61.3373 77.796 61.7693 78.108C62.2013 78.412 62.4813 78.872 62.6093 79.488L62.2733 79.356C62.4573 78.844 62.7813 78.432 63.2453 78.12C63.7173 77.8 64.2813 77.64 64.9373 77.64ZM72.8479 84.06C72.1919 84.06 71.6159 83.924 71.1199 83.652C70.6239 83.372 70.2359 82.992 69.9559 82.512C69.6759 82.024 69.5359 81.468 69.5359 80.844C69.5359 80.22 69.6679 79.668 69.9319 79.188C70.2039 78.708 70.5719 78.332 71.0359 78.06C71.5079 77.78 72.0359 77.64 72.6199 77.64C73.2119 77.64 73.7359 77.776 74.1919 78.048C74.6559 78.312 75.0199 78.688 75.2839 79.176C75.5479 79.656 75.6799 80.212 75.6799 80.844C75.6799 80.884 75.6759 80.928 75.6679 80.976C75.6679 81.016 75.6679 81.06 75.6679 81.108H70.1839V80.472H75.2119L74.8759 80.724C74.8759 80.268 74.7759 79.864 74.5759 79.512C74.3839 79.152 74.1199 78.872 73.7839 78.672C73.4479 78.472 73.0599 78.372 72.6199 78.372C72.1879 78.372 71.7999 78.472 71.4559 78.672C71.1119 78.872 70.8439 79.152 70.6519 79.512C70.4599 79.872 70.3639 80.284 70.3639 80.748V80.88C70.3639 81.36 70.4679 81.784 70.6759 82.152C70.8919 82.512 71.1879 82.796 71.5639 83.004C71.9479 83.204 72.3839 83.304 72.8719 83.304C73.2559 83.304 73.6119 83.236 73.9399 83.1C74.2759 82.964 74.5639 82.756 74.8039 82.476L75.2839 83.028C75.0039 83.364 74.6519 83.62 74.2279 83.796C73.8119 83.972 73.3519 84.06 72.8479 84.06ZM79.4861 84.06C78.9661 84.06 78.4741 83.988 78.0101 83.844C77.5461 83.692 77.1821 83.504 76.9181 83.28L77.3021 82.608C77.5581 82.8 77.8861 82.968 78.2861 83.112C78.6861 83.248 79.1061 83.316 79.5461 83.316C80.1461 83.316 80.5781 83.224 80.8421 83.04C81.1061 82.848 81.2381 82.596 81.2381 82.284C81.2381 82.052 81.1621 81.872 81.0101 81.744C80.8661 81.608 80.6741 81.508 80.4341 81.444C80.1941 81.372 79.9261 81.312 79.6301 81.264C79.3341 81.216 79.0381 81.16 78.7421 81.096C78.4541 81.032 78.1901 80.94 77.9501 80.82C77.7101 80.692 77.5141 80.52 77.3621 80.304C77.2181 80.088 77.1461 79.8 77.1461 79.44C77.1461 79.096 77.2421 78.788 77.4341 78.516C77.6261 78.244 77.9061 78.032 78.2741 77.88C78.6501 77.72 79.1061 77.64 79.6421 77.64C80.0501 77.64 80.4581 77.696 80.8661 77.808C81.2741 77.912 81.6101 78.052 81.8741 78.228L81.5021 78.912C81.2221 78.72 80.9221 78.584 80.6021 78.504C80.2821 78.416 79.9621 78.372 79.6421 78.372C79.0741 78.372 78.6541 78.472 78.3821 78.672C78.1181 78.864 77.9861 79.112 77.9861 79.416C77.9861 79.656 78.0581 79.844 78.2021 79.98C78.3541 80.116 78.5501 80.224 78.7901 80.304C79.0381 80.376 79.3061 80.436 79.5941 80.484C79.8901 80.532 80.1821 80.592 80.4701 80.664C80.7661 80.728 81.0341 80.82 81.2741 80.94C81.5221 81.052 81.7181 81.216 81.8621 81.432C82.0141 81.64 82.0901 81.916 82.0901 82.26C82.0901 82.628 81.9861 82.948 81.7781 83.22C81.5781 83.484 81.2821 83.692 80.8901 83.844C80.5061 83.988 80.0381 84.06 79.4861 84.06ZM87.9815 84V82.608L87.9455 82.38V80.052C87.9455 79.516 87.7935 79.104 87.4895 78.816C87.1935 78.528 86.7495 78.384 86.1575 78.384C85.7495 78.384 85.3615 78.452 84.9935 78.588C84.6255 78.724 84.3135 78.904 84.0575 79.128L83.6735 78.492C83.9935 78.22 84.3775 78.012 84.8255 77.868C85.2735 77.716 85.7455 77.64 86.2415 77.64C87.0575 77.64 87.6855 77.844 88.1255 78.252C88.5735 78.652 88.7975 79.264 88.7975 80.088V84H87.9815ZM85.8095 84.06C85.3375 84.06 84.9255 83.984 84.5735 83.832C84.2295 83.672 83.9655 83.456 83.7815 83.184C83.5975 82.904 83.5055 82.584 83.5055 82.224C83.5055 81.896 83.5815 81.6 83.7335 81.336C83.8935 81.064 84.1495 80.848 84.5015 80.688C84.8615 80.52 85.3415 80.436 85.9415 80.436H88.1135V81.072H85.9655C85.3575 81.072 84.9335 81.18 84.6935 81.396C84.4615 81.612 84.3455 81.88 84.3455 82.2C84.3455 82.56 84.4855 82.848 84.7655 83.064C85.0455 83.28 85.4375 83.388 85.9415 83.388C86.4215 83.388 86.8335 83.28 87.1775 83.064C87.5295 82.84 87.7855 82.52 87.9455 82.104L88.1375 82.692C87.9775 83.108 87.6975 83.44 87.2975 83.688C86.9055 83.936 86.4095 84.06 85.8095 84.06ZM97.5202 84.06C96.9202 84.06 96.3802 83.924 95.9002 83.652C95.4282 83.38 95.0562 83.004 94.7842 82.524C94.5122 82.036 94.3762 81.476 94.3762 80.844C94.3762 80.204 94.5122 79.644 94.7842 79.164C95.0562 78.684 95.4282 78.312 95.9002 78.048C96.3802 77.776 96.9202 77.64 97.5202 77.64C98.0722 77.64 98.5642 77.764 98.9962 78.012C99.4362 78.26 99.7842 78.624 100.04 79.104C100.304 79.576 100.436 80.156 100.436 80.844C100.436 81.524 100.308 82.104 100.052 82.584C99.7962 83.064 99.4482 83.432 99.0082 83.688C98.5762 83.936 98.0802 84.06 97.5202 84.06ZM97.5802 83.304C98.0282 83.304 98.4282 83.204 98.7802 83.004C99.1402 82.796 99.4202 82.508 99.6202 82.14C99.8282 81.764 99.9322 81.332 99.9322 80.844C99.9322 80.348 99.8282 79.916 99.6202 79.548C99.4202 79.18 99.1402 78.896 98.7802 78.696C98.4282 78.488 98.0282 78.384 97.5802 78.384C97.1402 78.384 96.7442 78.488 96.3922 78.696C96.0402 78.896 95.7602 79.18 95.5522 79.548C95.3442 79.916 95.2402 80.348 95.2402 80.844C95.2402 81.332 95.3442 81.764 95.5522 82.14C95.7602 82.508 96.0402 82.796 96.3922 83.004C96.7442 83.204 97.1402 83.304 97.5802 83.304ZM99.9562 84V82.104L100.04 80.832L99.9202 79.56V75.096H100.772V84H99.9562ZM106.201 84.06C105.545 84.06 104.969 83.924 104.473 83.652C103.977 83.372 103.589 82.992 103.309 82.512C103.029 82.024 102.889 81.468 102.889 80.844C102.889 80.22 103.021 79.668 103.285 79.188C103.557 78.708 103.925 78.332 104.389 78.06C104.861 77.78 105.389 77.64 105.973 77.64C106.565 77.64 107.089 77.776 107.545 78.048C108.009 78.312 108.373 78.688 108.637 79.176C108.901 79.656 109.033 80.212 109.033 80.844C109.033 80.884 109.029 80.928 109.021 80.976C109.021 81.016 109.021 81.06 109.021 81.108H103.537V80.472H108.565L108.229 80.724C108.229 80.268 108.129 79.864 107.929 79.512C107.737 79.152 107.473 78.872 107.137 78.672C106.801 78.472 106.413 78.372 105.973 78.372C105.541 78.372 105.153 78.472 104.809 78.672C104.465 78.872 104.197 79.152 104.005 79.512C103.813 79.872 103.717 80.284 103.717 80.748V80.88C103.717 81.36 103.821 81.784 104.029 82.152C104.245 82.512 104.541 82.796 104.917 83.004C105.301 83.204 105.737 83.304 106.225 83.304C106.609 83.304 106.965 83.236 107.293 83.1C107.629 82.964 107.917 82.756 108.157 82.476L108.637 83.028C108.357 83.364 108.005 83.62 107.581 83.796C107.165 83.972 106.705 84.06 106.201 84.06ZM114.668 84V77.7H115.484V79.416L115.4 79.116C115.576 78.636 115.872 78.272 116.288 78.024C116.704 77.768 117.22 77.64 117.836 77.64V78.468C117.804 78.468 117.772 78.468 117.74 78.468C117.708 78.46 117.676 78.456 117.644 78.456C116.98 78.456 116.46 78.66 116.084 79.068C115.708 79.468 115.52 80.04 115.52 80.784V84H114.668ZM122.388 84.06C121.732 84.06 121.156 83.924 120.66 83.652C120.164 83.372 119.776 82.992 119.496 82.512C119.216 82.024 119.076 81.468 119.076 80.844C119.076 80.22 119.208 79.668 119.472 79.188C119.744 78.708 120.112 78.332 120.576 78.06C121.048 77.78 121.576 77.64 122.16 77.64C122.752 77.64 123.276 77.776 123.732 78.048C124.196 78.312 124.56 78.688 124.824 79.176C125.088 79.656 125.22 80.212 125.22 80.844C125.22 80.884 125.216 80.928 125.208 80.976C125.208 81.016 125.208 81.06 125.208 81.108H119.724V80.472H124.752L124.416 80.724C124.416 80.268 124.316 79.864 124.116 79.512C123.924 79.152 123.66 78.872 123.324 78.672C122.988 78.472 122.6 78.372 122.16 78.372C121.728 78.372 121.34 78.472 120.996 78.672C120.652 78.872 120.384 79.152 120.192 79.512C120 79.872 119.904 80.284 119.904 80.748V80.88C119.904 81.36 120.008 81.784 120.216 82.152C120.432 82.512 120.728 82.796 121.104 83.004C121.488 83.204 121.924 83.304 122.412 83.304C122.796 83.304 123.152 83.236 123.48 83.1C123.816 82.964 124.104 82.756 124.344 82.476L124.824 83.028C124.544 83.364 124.192 83.62 123.768 83.796C123.352 83.972 122.892 84.06 122.388 84.06ZM130.022 86.388C129.446 86.388 128.894 86.304 128.366 86.136C127.838 85.968 127.41 85.728 127.082 85.416L127.514 84.768C127.81 85.032 128.174 85.24 128.606 85.392C129.046 85.552 129.51 85.632 129.998 85.632C130.798 85.632 131.386 85.444 131.762 85.068C132.138 84.7 132.326 84.124 132.326 83.34V81.768L132.446 80.688L132.362 79.608V77.7H133.178V83.232C133.178 84.32 132.91 85.116 132.374 85.62C131.846 86.132 131.062 86.388 130.022 86.388ZM129.866 83.76C129.266 83.76 128.726 83.632 128.246 83.376C127.766 83.112 127.386 82.748 127.106 82.284C126.834 81.82 126.698 81.288 126.698 80.688C126.698 80.088 126.834 79.56 127.106 79.104C127.386 78.64 127.766 78.28 128.246 78.024C128.726 77.768 129.266 77.64 129.866 77.64C130.426 77.64 130.93 77.756 131.378 77.988C131.826 78.22 132.182 78.564 132.446 79.02C132.71 79.476 132.842 80.032 132.842 80.688C132.842 81.344 132.71 81.9 132.446 82.356C132.182 82.812 131.826 83.16 131.378 83.4C130.93 83.64 130.426 83.76 129.866 83.76ZM129.95 83.004C130.414 83.004 130.826 82.908 131.186 82.716C131.546 82.516 131.83 82.244 132.038 81.9C132.246 81.548 132.35 81.144 132.35 80.688C132.35 80.232 132.246 79.832 132.038 79.488C131.83 79.144 131.546 78.876 131.186 78.684C130.826 78.484 130.414 78.384 129.95 78.384C129.494 78.384 129.082 78.484 128.714 78.684C128.354 78.876 128.07 79.144 127.862 79.488C127.662 79.832 127.562 80.232 127.562 80.688C127.562 81.144 127.662 81.548 127.862 81.9C128.07 82.244 128.354 82.516 128.714 82.716C129.082 82.908 129.494 83.004 129.95 83.004ZM139.877 84V82.608L139.841 82.38V80.052C139.841 79.516 139.689 79.104 139.385 78.816C139.089 78.528 138.645 78.384 138.053 78.384C137.645 78.384 137.257 78.452 136.889 78.588C136.521 78.724 136.209 78.904 135.953 79.128L135.569 78.492C135.889 78.22 136.273 78.012 136.721 77.868C137.169 77.716 137.641 77.64 138.137 77.64C138.953 77.64 139.581 77.844 140.021 78.252C140.469 78.652 140.693 79.264 140.693 80.088V84H139.877ZM137.705 84.06C137.233 84.06 136.821 83.984 136.469 83.832C136.125 83.672 135.861 83.456 135.677 83.184C135.493 82.904 135.401 82.584 135.401 82.224C135.401 81.896 135.477 81.6 135.629 81.336C135.789 81.064 136.045 80.848 136.397 80.688C136.757 80.52 137.237 80.436 137.837 80.436H140.009V81.072H137.861C137.253 81.072 136.829 81.18 136.589 81.396C136.357 81.612 136.241 81.88 136.241 82.2C136.241 82.56 136.381 82.848 136.661 83.064C136.941 83.28 137.333 83.388 137.837 83.388C138.317 83.388 138.729 83.28 139.073 83.064C139.425 82.84 139.681 82.52 139.841 82.104L140.033 82.692C139.873 83.108 139.593 83.44 139.193 83.688C138.801 83.936 138.305 84.06 137.705 84.06ZM143.387 84V75.096H144.239V84H143.387ZM149.558 84.06C148.95 84.06 148.402 83.924 147.914 83.652C147.434 83.372 147.054 82.992 146.774 82.512C146.494 82.024 146.354 81.468 146.354 80.844C146.354 80.212 146.494 79.656 146.774 79.176C147.054 78.696 147.434 78.32 147.914 78.048C148.394 77.776 148.942 77.64 149.558 77.64C150.182 77.64 150.734 77.776 151.214 78.048C151.702 78.32 152.082 78.696 152.354 79.176C152.634 79.656 152.774 80.212 152.774 80.844C152.774 81.468 152.634 82.024 152.354 82.512C152.082 82.992 151.702 83.372 151.214 83.652C150.726 83.924 150.174 84.06 149.558 84.06ZM149.558 83.304C150.014 83.304 150.418 83.204 150.77 83.004C151.122 82.796 151.398 82.508 151.598 82.14C151.806 81.764 151.91 81.332 151.91 80.844C151.91 80.348 151.806 79.916 151.598 79.548C151.398 79.18 151.122 78.896 150.77 78.696C150.418 78.488 150.018 78.384 149.57 78.384C149.122 78.384 148.722 78.488 148.37 78.696C148.018 78.896 147.738 79.18 147.53 79.548C147.322 79.916 147.218 80.348 147.218 80.844C147.218 81.332 147.322 81.764 147.53 82.14C147.738 82.508 148.018 82.796 148.37 83.004C148.722 83.204 149.118 83.304 149.558 83.304ZM156.585 84.06C156.065 84.06 155.573 83.988 155.109 83.844C154.645 83.692 154.281 83.504 154.017 83.28L154.401 82.608C154.657 82.8 154.985 82.968 155.385 83.112C155.785 83.248 156.205 83.316 156.645 83.316C157.245 83.316 157.677 83.224 157.941 83.04C158.205 82.848 158.337 82.596 158.337 82.284C158.337 82.052 158.261 81.872 158.109 81.744C157.965 81.608 157.773 81.508 157.533 81.444C157.293 81.372 157.025 81.312 156.729 81.264C156.433 81.216 156.137 81.16 155.841 81.096C155.553 81.032 155.289 80.94 155.049 80.82C154.809 80.692 154.613 80.52 154.461 80.304C154.317 80.088 154.245 79.8 154.245 79.44C154.245 79.096 154.341 78.788 154.533 78.516C154.725 78.244 155.005 78.032 155.373 77.88C155.749 77.72 156.205 77.64 156.741 77.64C157.149 77.64 157.557 77.696 157.965 77.808C158.373 77.912 158.709 78.052 158.973 78.228L158.601 78.912C158.321 78.72 158.021 78.584 157.701 78.504C157.381 78.416 157.061 78.372 156.741 78.372C156.173 78.372 155.753 78.472 155.481 78.672C155.217 78.864 155.085 79.112 155.085 79.416C155.085 79.656 155.157 79.844 155.301 79.98C155.453 80.116 155.649 80.224 155.889 80.304C156.137 80.376 156.405 80.436 156.693 80.484C156.989 80.532 157.281 80.592 157.569 80.664C157.865 80.728 158.133 80.82 158.373 80.94C158.621 81.052 158.817 81.216 158.961 81.432C159.113 81.64 159.189 81.916 159.189 82.26C159.189 82.628 159.085 82.948 158.877 83.22C158.677 83.484 158.381 83.692 157.989 83.844C157.605 83.988 157.137 84.06 156.585 84.06Z" fill="#959595"/>
</g>
<defs>
<filter id="filter0_d_149_590" x="0" y="0" width="191" height="122" filterUnits="userSpaceOnUse" color-interpolation-filters="sRGB">
<feFlood flood-opacity="0" result="BackgroundImageFix"/>
<feColorMatrix in="SourceAlpha" type="matrix" values="0 0 0 0 0 0 0 0 0 0 0 0 0 0 0 0 0 0 127 0" result="hardAlpha"/>
<feOffset dy="4"/>
<feGaussianBlur stdDeviation="7"/>
<feComposite in2="hardAlpha" operator="out"/>
<feColorMatrix type="matrix" values="0 0 0 0 0 0 0 0 0 0 0 0 0 0 0 0 0 0 0.15 0"/>
<feBlend mode="normal" in2="BackgroundImageFix" result="effect1_dropShadow_149_590"/>
<feBlend mode="normal" in="SourceGraphic" in2="effect1_dropShadow_149_590" result="shape"/>
</filter>
</defs>
</svg>
