<svg width="191" height="122" viewBox="0 0 191 122" fill="none" xmlns="http://www.w3.org/2000/svg">
<g filter="url(#filter0_d_149_594)">
<rect x="14" y="10" width="163" height="94" rx="8" fill="white"/>
<path fill-rule="evenodd" clip-rule="evenodd" d="M64.8142 58.1307C62.4465 60.9616 61.5496 61.6774 60.3657 61.6774C59.1819 61.6774 58.9666 61.1568 59.0384 60.1481C57.8904 61.287 57.3522 61.6123 56.5271 61.6123C55.3432 61.6123 54.841 60.7013 55.1997 59.3347C55.8814 56.8943 58.8231 54.1936 60.9039 54.1936C62.9846 54.1936 61.8007 54.4865 61.9084 55.2348L62.5182 54.3238C62.9846 54.3888 63.164 54.3888 63.5586 54.3888C63.9532 54.3888 64.0967 54.3888 64.4555 54.3238L64.0967 54.8769C63.8815 55.2023 63.738 55.4626 63.1281 56.4062C62.877 56.7641 62.6617 57.1546 62.4465 57.48C61.9084 58.2284 61.5137 58.8791 61.2267 59.3672C60.9397 59.7902 60.7245 60.083 60.6169 60.2457C60.4734 60.441 60.4016 60.6037 60.3657 60.7338C60.294 60.929 60.4734 61.1243 60.8321 61.1243C61.6214 61.1243 62.6259 60.2457 64.7425 57.5776L65.1371 57.7077L64.8142 58.0657V58.1307ZM60.868 54.5841C60.5092 54.5841 60.1505 54.8769 59.4689 55.7554C58.7872 56.6014 58.1056 57.5776 57.5675 58.3911C56.8859 59.3347 56.6347 59.9204 56.4912 60.441C56.3477 60.8965 56.563 61.1893 56.9217 61.1568C57.5675 61.1568 58.4285 60.441 59.4689 59.0418C60.4375 57.8054 61.2267 56.4713 61.4061 55.7229C61.5855 55.1047 61.3344 54.5841 60.9039 54.5841H60.868Z" fill="#1D1D1B"/>
<path fill-rule="evenodd" clip-rule="evenodd" d="M69.1911 58.0331L68.2583 59.1068C66.7875 60.929 65.7471 61.6448 64.635 61.6448C63.5228 61.6448 63.1641 60.9941 63.4152 60.0179C63.5228 59.5949 63.8098 59.0743 64.4197 58.0981L70.9131 48.174H71.1642C71.4512 48.174 71.6306 48.174 71.7741 48.174C72.0252 48.174 72.2405 48.174 72.8504 48.1089L65.8188 58.9441C65.6753 59.1068 65.4601 59.4973 65.1372 60.083C64.8502 60.506 64.8143 60.6361 64.7785 60.7663C64.7067 61.0266 64.7785 61.1567 65.1013 61.1567C65.4242 61.1567 66.0341 60.8314 66.8233 60.1155C67.2897 59.66 67.7561 59.1068 68.8324 57.8378L69.0835 57.5775L69.4781 57.7077C69.3705 57.8378 69.2629 57.9355 69.2629 58.0005L69.1911 58.0331Z" fill="#1D1D1B"/>
<path fill-rule="evenodd" clip-rule="evenodd" d="M77.837 58.1307C75.4693 60.9616 74.5365 61.6774 73.3527 61.6774C72.1688 61.6774 71.9535 61.1568 72.0253 60.1481C70.8773 61.287 70.3392 61.6123 69.514 61.6123C68.2943 61.6123 67.792 60.7013 68.1866 59.3347C68.8683 56.8943 71.8459 54.1936 73.8908 54.1936C75.9357 54.1936 74.8235 54.4865 74.8953 55.2348L75.5052 54.3238C75.9715 54.3888 76.1868 54.3888 76.5814 54.3888C76.976 54.3888 77.1195 54.3888 77.4783 54.3238L77.1195 54.8769C76.9043 55.2023 76.7249 55.4626 76.115 56.4062C75.8639 56.7641 75.6487 57.1546 75.4334 57.48C74.8953 58.2284 74.5007 58.8791 74.2137 59.3672C73.9267 59.7902 73.7114 60.083 73.6038 60.2457C73.4962 60.441 73.3885 60.6037 73.3527 60.7338C73.2809 60.929 73.4962 61.1243 73.7832 61.1243C74.5724 61.1243 75.5769 60.2457 77.6935 57.5776L78.0882 57.7077L77.8012 58.0657L77.837 58.1307ZM73.8908 54.5841C73.532 54.5841 73.1733 54.8769 72.4558 55.7554C71.81 56.6014 71.0925 57.5776 70.5544 58.3911C69.9087 59.3347 69.6217 59.9204 69.4782 60.441C69.3705 60.8965 69.5499 61.1893 69.9087 61.1568C70.5544 61.1568 71.4154 60.441 72.4558 59.0418C73.4603 57.8054 74.2137 56.4713 74.393 55.7229C74.5724 55.1047 74.3213 54.5841 73.8908 54.5841Z" fill="#1D1D1B"/>
<path fill-rule="evenodd" clip-rule="evenodd" d="M84.0074 58.2608C82.967 59.5949 82.3213 60.2131 81.3885 60.8314C80.5993 61.352 79.6307 61.6773 78.8414 61.6773C77.3347 61.6773 76.5813 60.6361 76.9759 59.1394C77.6217 56.8291 80.7428 54.2261 82.8235 54.2261C84.9043 54.2261 84.3662 54.8443 84.0792 55.7554C83.7204 57.0244 82.2137 57.2521 82.4289 56.4387C82.6083 55.7228 83.4334 56.2109 83.5769 55.6903C83.7563 55.0395 83.4334 54.584 82.8594 54.584C82.2854 54.584 81.9984 54.8443 81.4603 55.3975C80.2764 56.7315 78.5185 59.4647 78.2315 60.4084C78.088 60.929 78.4109 61.2544 79.0208 61.2544C79.9535 61.2544 81.1733 60.6036 82.1778 59.5949C82.6442 59.1068 83.254 58.4235 83.8998 57.6101L84.3303 57.7402L83.8998 58.2283L84.0074 58.2608Z" fill="#1D1D1B"/>
<path fill-rule="evenodd" clip-rule="evenodd" d="M88.0972 58.4886C86.1959 60.8313 85.1196 61.6448 83.9716 61.6448C82.8236 61.6448 82.3572 60.929 82.6084 60.0179C82.716 59.6925 82.8595 59.4973 83.5052 58.4235L86.16 54.3237C86.5905 54.3888 86.7699 54.3887 87.0927 54.3887C87.4156 54.3887 87.6667 54.3888 88.0972 54.3237L84.725 59.4973L84.3662 60.1155C84.1869 60.4083 84.0434 60.6686 84.0075 60.7988C83.9716 61.0266 84.151 61.2218 84.3662 61.2218C84.8685 61.2218 85.5142 60.7663 86.4111 59.8552C86.9492 59.302 87.3797 58.814 88.3125 57.61L88.7071 57.7402L88.0972 58.4886ZM87.7744 53.6404C87.2362 53.6404 86.9492 53.4126 87.021 53.0221C87.1645 52.5666 87.7744 52.1761 88.3842 52.1761C88.9941 52.1761 89.2094 52.4365 89.1017 52.8269C88.9941 53.2824 88.3842 53.6404 87.7385 53.6404H87.7744Z" fill="#1D1D1B"/>
<path fill-rule="evenodd" clip-rule="evenodd" d="M92.761 59.4648C91.5053 60.9941 90.4291 61.6774 89.3169 61.6774C88.2048 61.6774 87.0568 60.6687 87.4156 59.3672C88.0972 56.9594 91.2542 54.2587 93.4426 54.2587C95.631 54.2587 95.057 54.942 94.77 56.0483C94.5906 56.7316 94.2677 57.3498 93.3708 58.6839L93.0838 59.1069C93.6578 59.1069 94.0525 58.814 94.9493 57.6426L95.344 57.7728C94.2677 59.1394 93.7655 59.4973 92.761 59.4973V59.4648ZM91.7923 58.4886C92.0076 57.6752 92.7968 57.0244 93.5502 57.0244C94.3036 57.0244 93.7655 57.0244 93.8372 57.0244C94.0883 56.634 94.1601 56.4062 94.2318 56.1459C94.483 55.2023 94.2318 54.6166 93.5502 54.6166C92.8686 54.6166 92.474 55.007 91.3618 56.3737C90.752 57.0895 90.2497 57.8704 89.604 58.8466C89.03 59.7902 88.8506 60.1156 88.7429 60.4735C88.5994 60.9616 88.8506 61.2869 89.4246 61.2869C90.3215 61.2869 91.2901 60.6036 92.2946 59.3997C91.7923 59.2696 91.613 58.9442 91.7565 58.4886H91.7923Z" fill="#1D1D1B"/>
<path fill-rule="evenodd" clip-rule="evenodd" d="M106.465 58.2934C104.169 61.0266 103.416 61.6449 102.196 61.6449C100.976 61.6449 100.689 61.1243 100.869 60.1156C99.7567 61.287 99.1468 61.6123 98.3576 61.6123C97.1378 61.6123 96.6355 60.6687 96.9943 59.3347C97.6759 56.8617 100.725 54.1611 102.806 54.1611C104.887 54.1611 103.775 54.519 103.811 55.2348L108.438 48.1415C108.725 48.2391 108.905 48.2391 109.264 48.2391C109.622 48.2391 109.909 48.2391 110.376 48.1415L103.129 59.3347L102.627 60.083C102.411 60.3433 102.268 60.6362 102.232 60.7663C102.16 60.9941 102.34 61.1568 102.627 61.1568C103.308 61.1568 104.098 60.4735 106.214 57.968L106.501 57.6101L106.896 57.7403L106.429 58.2934H106.465ZM102.77 54.6166C102.268 54.6166 101.909 54.9745 100.833 56.4713C100.438 57.057 99.9719 57.7077 99.4697 58.4561C98.8598 59.4323 98.5369 59.9854 98.3576 60.5711C98.2499 60.8965 98.5011 61.1568 98.7881 61.1568C99.2903 61.1568 100.151 60.4735 101.192 59.172C102.196 57.968 102.985 56.6014 103.201 55.7229C103.38 55.0396 103.201 54.6166 102.734 54.6491L102.77 54.6166Z" fill="#1D1D1B"/>
<path fill-rule="evenodd" clip-rule="evenodd" d="M52.3298 41.5687L51.6482 42.3822C50.5361 43.7488 49.7827 44.2694 48.9576 44.2694C48.1324 44.2694 47.8813 43.7813 48.0607 43.098C48.1683 42.7727 48.3477 42.3822 48.8141 41.6663L53.5854 34.3127H53.8007C53.9801 34.3127 54.1594 34.3127 54.2312 34.3127C54.4106 34.3127 54.5899 34.3127 55.0205 34.2802L49.8186 42.2846C49.7109 42.4147 49.5316 42.7076 49.3163 43.098C49.1011 43.3909 49.1011 43.4885 49.0652 43.6512C49.0652 43.8139 49.1011 43.9115 49.3163 43.9115C49.6033 43.9115 50.0338 43.6837 50.5719 43.1631C50.9666 42.8377 51.2536 42.4473 52.0787 41.4711L52.2581 41.3084L52.5809 41.3735C52.5092 41.4711 52.4016 41.5362 52.4016 41.5687H52.3298Z" fill="#1D1D1B"/>
<path fill-rule="evenodd" clip-rule="evenodd" d="M131.973 58.4886C130.035 60.8313 128.995 61.6448 127.847 61.6448C126.699 61.6448 126.197 60.929 126.484 60.0179C126.555 59.6925 126.699 59.4973 127.381 58.4235L129.999 54.3237C130.43 54.3888 130.609 54.3887 130.932 54.3887C131.255 54.3887 131.47 54.3888 131.937 54.3237L128.564 59.4973L128.206 60.1155C128.062 60.4083 127.919 60.6686 127.847 60.7988C127.775 61.0266 127.955 61.2218 128.206 61.2218C128.672 61.2218 129.354 60.7663 130.251 59.8552C130.789 59.302 131.219 58.814 132.188 57.61L132.582 57.7402L131.973 58.4886ZM131.65 53.6404C131.112 53.6404 130.825 53.4126 130.932 53.0221C131.04 52.5666 131.686 52.1761 132.295 52.1761C132.905 52.1761 133.085 52.4365 133.013 52.8269C132.869 53.2824 132.295 53.6404 131.65 53.6404Z" fill="#1D1D1B"/>
<path fill-rule="evenodd" clip-rule="evenodd" d="M144.457 58.1957C143.201 59.6925 142.95 59.9853 142.376 60.5059C141.659 61.2218 140.726 61.6448 140.009 61.6448C139.291 61.6448 138.466 60.9615 138.681 60.148C138.789 59.7901 139.004 59.3346 139.327 58.9441C139.614 58.5862 139.973 58.0656 140.475 57.3823C141.336 56.276 141.695 55.6577 141.802 55.2673C141.874 55.007 141.802 54.8443 141.551 54.584L141.228 54.9419L140.331 56.1458L139.363 57.3172L139.04 57.7402L138.609 57.61L138.932 57.2196C139.399 56.6013 139.793 56.1458 139.973 55.9506L140.905 54.7467L141.264 54.2911C140.87 53.9983 140.726 53.6729 140.834 53.315C140.977 52.7618 141.659 52.2412 142.233 52.2412C142.807 52.2412 142.843 52.4364 142.735 52.7944C142.627 53.1197 142.448 53.4451 141.874 54.1935C143.058 54.9094 143.309 55.2022 143.094 55.9506C142.95 56.3736 142.699 56.8617 141.946 57.9354C141.408 58.7163 141.049 59.237 140.87 59.5298L140.26 60.3758C140.116 60.571 140.009 60.7988 140.009 60.9289C139.937 61.1242 140.116 61.2869 140.296 61.2869C140.654 61.2869 141.192 60.994 141.695 60.571C142.34 60.0179 142.879 59.4322 144.027 57.968L144.314 57.61L144.744 57.7402L144.385 58.1957H144.457Z" fill="#1D1D1B"/>
<path fill-rule="evenodd" clip-rule="evenodd" d="M150.197 58.1957C148.942 59.6925 148.726 59.9853 148.152 60.5059C147.363 61.2218 146.466 61.6448 145.749 61.6448C145.031 61.6448 144.17 60.9615 144.421 60.148C144.529 59.7901 144.78 59.3346 145.067 58.9441C145.318 58.5862 145.713 58.0656 146.215 57.3823C147.076 56.276 147.435 55.6577 147.578 55.2673C147.65 55.007 147.578 54.8443 147.327 54.584L147.004 54.9419L146.143 56.1458L145.139 57.3172L144.816 57.7402L144.421 57.61L144.708 57.2196C145.21 56.6013 145.569 56.1458 145.713 55.9506L146.646 54.7467L147.004 54.2911C146.61 53.9983 146.466 53.6729 146.574 53.315C146.717 52.7618 147.363 52.2412 147.973 52.2412C148.583 52.2412 148.583 52.4364 148.511 52.7944C148.403 53.1197 148.188 53.4451 147.65 54.1935C148.834 54.9094 149.085 55.2022 148.87 55.9506C148.762 56.3736 148.475 56.8617 147.722 57.9354C147.184 58.7163 146.861 59.237 146.646 59.5298L146.072 60.3758C145.928 60.571 145.82 60.7988 145.784 60.9289C145.749 61.1242 145.892 61.2869 146.107 61.2869C146.466 61.2869 147.04 60.994 147.542 60.571C148.188 60.0179 148.726 59.4322 149.874 57.968L150.161 57.61L150.592 57.7402L150.233 58.1957H150.197Z" fill="#1D1D1B"/>
<path fill-rule="evenodd" clip-rule="evenodd" d="M154.61 59.4648C153.354 60.9941 152.314 61.6774 151.202 61.6774C150.089 61.6774 148.941 60.6687 149.264 59.3672C149.946 56.9594 153.103 54.2587 155.291 54.2587C157.48 54.2587 156.942 54.942 156.619 56.0483C156.439 56.7316 156.116 57.3498 155.22 58.6839L154.933 59.1069C155.471 59.1069 155.901 58.814 156.798 57.6426L157.193 57.7728C156.081 59.1394 155.614 59.4973 154.574 59.4973L154.61 59.4648ZM153.641 58.4886C153.856 57.6752 154.646 57.0244 155.399 57.0244C156.152 57.0244 155.578 57.0244 155.722 57.0244C155.937 56.634 156.045 56.4062 156.116 56.1459C156.368 55.2023 156.081 54.6166 155.435 54.6166C154.789 54.6166 154.323 55.007 153.246 56.3737C152.637 57.0895 152.134 57.8704 151.489 58.8466C150.915 59.7902 150.735 60.1156 150.663 60.4735C150.52 60.9616 150.807 61.2869 151.345 61.2869C152.206 61.2869 153.211 60.6036 154.215 59.3997C153.749 59.2696 153.569 58.9442 153.677 58.4886H153.641Z" fill="#1D1D1B"/>
<path fill-rule="evenodd" clip-rule="evenodd" d="M66.1058 41.6662C65.1013 39.6489 62.1237 41.471 62.1237 41.471C54.4464 38.087 48.5629 47.8811 48.5629 47.8811C45.6211 45.6034 40.3475 47.816 40.3475 47.816C32.0962 52.046 34.0693 58.7163 34.0693 58.7163C35.6478 66.8834 46.9844 63.0765 46.9844 63.0765C54.7334 60.7662 57.1729 51.1674 57.1729 51.1674C58.0339 47.816 62.1237 42.1869 62.1237 42.1869C65.0295 43.6836 64.5632 46.6772 64.5632 46.6772C64.9578 51.1024 58.2133 51.4928 58.2133 51.4928C65.9264 52.1436 65.8188 46.8398 65.8188 46.8398C66.1058 43.7487 62.877 41.6988 62.877 41.6988C64.599 40.1369 66.1058 41.6337 66.1058 41.6337V41.6662ZM54.1953 51.4277C54.1953 51.4277 50.249 61.9376 43.5404 63.1741C43.5404 63.1741 34.4998 64.9311 34.8945 56.7315C34.8945 56.7315 35.2891 48.5644 44.4731 47.2303C44.4731 47.2303 46.7691 47.0351 48.3476 48.4017C48.0606 49.2151 47.4149 51.0373 47.953 51.8833C47.953 51.8833 48.1324 49.508 48.5987 48.662C49.7467 49.8984 50.3207 52.1761 48.814 56.4061C48.814 56.4061 47.5225 59.0742 43.8991 60.8964C43.8991 60.8964 52.5809 58.1957 49.8544 49.5405C49.8544 49.5405 49.6032 48.7271 48.814 48.1739C48.814 48.1739 55.2715 38.5426 61.442 42.1869C61.442 42.1869 56.3119 46.6771 54.1594 51.4603L54.1953 51.4277Z" fill="#1D1D1B"/>
<path fill-rule="evenodd" clip-rule="evenodd" d="M39.9887 32.4255C41.926 31.6771 44.6884 33.304 44.6884 33.304C45.8364 32.2628 47.4866 32.035 47.4866 32.035C51.3611 31.6446 50.536 33.7596 50.536 33.7596C49.8544 35.1262 48.2041 35.1262 48.2041 35.1262C46.4463 35.3865 44.8678 34.2151 44.8678 34.2151C44.2579 35.1587 45.083 35.4516 45.083 35.4516C46.8409 35.4516 46.4821 36.265 46.4821 36.265C45.7646 36.9809 45.083 36.0698 45.083 36.0698C44.9036 35.9071 44.3296 36.0698 44.3296 36.0698C40.1322 36.7206 38.8049 40.0395 38.8049 40.0395C37.047 44.2044 41.5672 44.1718 41.5672 44.1718C44.2938 44.3671 45.3341 43.1306 45.3341 43.1306C48.7064 40.2021 46.6974 38.6729 46.6974 38.6729C43.7915 36.1674 40.1322 41.1458 40.1322 41.1458C43.6121 35.2238 47.4866 38.4125 47.4866 38.4125C50.7871 41.7965 44.6166 44.2044 44.6166 44.2044C36.8676 46.8074 37.047 40.7878 37.047 40.7878C37.2622 36.1349 44.3296 35.5166 44.3296 35.5166C43.9709 35.1587 44.3296 33.6294 44.3296 33.6294C42.5 32.458 40.8139 32.458 40.8139 32.458C38.195 32.5556 39.7735 34.3778 39.7735 34.3778C38.3385 32.8485 39.9887 32.393 39.9887 32.393V32.4255ZM48.6705 34.4429C51.1459 34.0199 49.8903 32.8485 49.8903 32.8485C47.5225 31.2541 45.3341 33.662 45.3341 33.662C45.9799 34.9309 48.6705 34.4429 48.6705 34.4429Z" fill="#1D1D1B"/>
<path fill-rule="evenodd" clip-rule="evenodd" d="M135.99 42.3171C135.99 42.3171 130.179 45.5384 125.084 53.0873H122.609C122.609 53.0873 123.434 48.7923 130.322 42.5124L128.313 43.2933C128.313 43.2933 122.788 43.7488 120.421 43.0655C120.421 43.0655 116.797 42.4148 115.326 45.0504C115.326 45.0504 113.246 49.02 117.622 49.1827C117.622 49.1827 120.241 49.6708 122.465 46.6773C122.465 46.6773 120.313 48.7597 118.376 48.7923C118.376 48.7923 114.716 49.3454 115.183 46.1892C115.183 46.1892 116.116 43.3258 118.734 43.456C118.734 43.456 120.672 43.4885 121.066 43.7488C121.066 43.7488 123.757 44.7901 127.129 43.9766C127.129 43.9766 121.21 48.9875 119.129 53.3802H116.869V53.8682H118.627C118.627 53.8682 116.116 59.8878 111.237 62.7837C111.237 62.7837 109.335 64.2154 104.6 62.2957C104.6 62.2957 107.147 64.5733 111.201 63.5647C111.201 63.5647 117.407 62.8488 122.178 53.7381H124.546C124.546 53.7381 122.071 57.057 122.071 59.6601C122.071 59.6601 121.64 65.2892 127.918 62.4258C127.918 62.4258 120.743 65.5495 127.488 53.7055H128.815V53.1849H127.99C127.99 53.1849 129.138 49.0851 136.026 42.3171H135.99Z" fill="#1D1D1B"/>
<path fill-rule="evenodd" clip-rule="evenodd" d="M111.595 59.7251C110.376 60.929 108.977 61.5798 107.649 61.5798C106.322 61.5798 105.281 60.6362 105.64 59.3347C106.286 57.0244 109.551 54.1936 111.595 54.1936C113.64 54.1936 113.21 54.9095 112.959 55.9181C112.456 57.6752 109.586 57.6752 108.367 57.8054C108.187 58.1307 107.29 59.9204 107.219 60.1807C107.003 60.864 107.219 61.2544 107.936 61.2544C109.371 61.2544 110.914 60.1807 112.815 57.903L113.03 57.5776L113.461 57.6752C112.708 58.6514 112.277 59.1069 111.631 59.7251H111.595ZM112.169 55.9181C113.246 54.4214 111.416 54.7142 111.416 54.7142C109.622 55.2023 108.797 57.3173 108.797 57.3173C111.308 57.5451 112.169 55.9507 112.169 55.9507V55.9181Z" fill="#1D1D1B"/>
<path fill-rule="evenodd" clip-rule="evenodd" d="M137.246 59.7251C135.99 60.929 134.555 61.5798 133.264 61.5798C131.972 61.5798 130.896 60.6362 131.255 59.3347C131.901 57.0244 135.129 54.1936 137.174 54.1936C139.219 54.1936 138.825 54.9095 138.538 55.9181C138.035 57.6752 135.165 57.6752 133.946 57.8054C133.766 58.1307 132.869 59.9204 132.762 60.1807C132.582 60.864 132.762 61.2544 133.479 61.2544C134.914 61.2544 136.457 60.1807 138.394 57.903L138.645 57.5776L139.04 57.6752C138.251 58.6514 137.856 59.1069 137.21 59.7251H137.246ZM137.784 55.9181C138.86 54.4214 137.031 54.7142 137.031 54.7142C135.237 55.2023 134.412 57.3173 134.412 57.3173C136.923 57.5451 137.784 55.9507 137.784 55.9507V55.9181Z" fill="#1D1D1B"/>
<path d="M35.1915 84L31.4715 75.6H32.4315L35.9115 83.508H35.3835L38.8875 75.6H39.7875L36.0675 84H35.1915ZM43.4021 84.06C42.7461 84.06 42.1701 83.924 41.6741 83.652C41.1781 83.372 40.7901 82.992 40.5101 82.512C40.2301 82.024 40.0901 81.468 40.0901 80.844C40.0901 80.22 40.2221 79.668 40.4861 79.188C40.7581 78.708 41.1261 78.332 41.5901 78.06C42.0621 77.78 42.5901 77.64 43.1741 77.64C43.7661 77.64 44.2901 77.776 44.7461 78.048C45.2101 78.312 45.5741 78.688 45.8381 79.176C46.1021 79.656 46.2341 80.212 46.2341 80.844C46.2341 80.884 46.2301 80.928 46.2221 80.976C46.2221 81.016 46.2221 81.06 46.2221 81.108H40.7381V80.472H45.7661L45.4301 80.724C45.4301 80.268 45.3301 79.864 45.1301 79.512C44.9381 79.152 44.6741 78.872 44.3381 78.672C44.0021 78.472 43.6141 78.372 43.1741 78.372C42.7421 78.372 42.3541 78.472 42.0101 78.672C41.6661 78.872 41.3981 79.152 41.2061 79.512C41.0141 79.872 40.9181 80.284 40.9181 80.748V80.88C40.9181 81.36 41.0221 81.784 41.2301 82.152C41.4461 82.512 41.7421 82.796 42.1181 83.004C42.5021 83.204 42.9381 83.304 43.4261 83.304C43.8101 83.304 44.1661 83.236 44.4941 83.1C44.8301 82.964 45.1181 82.756 45.3581 82.476L45.8381 83.028C45.5581 83.364 45.2061 83.62 44.7821 83.796C44.3661 83.972 43.9061 84.06 43.4021 84.06ZM48.3483 84V77.7H49.1643V79.416L49.0803 79.116C49.2563 78.636 49.5523 78.272 49.9683 78.024C50.3843 77.768 50.9003 77.64 51.5163 77.64V78.468C51.4843 78.468 51.4523 78.468 51.4203 78.468C51.3883 78.46 51.3563 78.456 51.3243 78.456C50.6603 78.456 50.1403 78.66 49.7643 79.068C49.3883 79.468 49.2003 80.04 49.2003 80.784V84H48.3483ZM64.9373 77.64C65.4493 77.64 65.8933 77.74 66.2693 77.94C66.6533 78.132 66.9493 78.428 67.1573 78.828C67.3733 79.228 67.4813 79.732 67.4813 80.34V84H66.6293V80.424C66.6293 79.76 66.4693 79.26 66.1493 78.924C65.8373 78.58 65.3933 78.408 64.8173 78.408C64.3853 78.408 64.0093 78.5 63.6893 78.684C63.3773 78.86 63.1333 79.12 62.9573 79.464C62.7893 79.8 62.7053 80.208 62.7053 80.688V84H61.8533V80.424C61.8533 79.76 61.6933 79.26 61.3733 78.924C61.0533 78.58 60.6053 78.408 60.0293 78.408C59.6053 78.408 59.2333 78.5 58.9133 78.684C58.5933 78.86 58.3453 79.12 58.1693 79.464C58.0013 79.8 57.9173 80.208 57.9173 80.688V84H57.0653V77.7H57.8813V79.404L57.7493 79.104C57.9413 78.648 58.2493 78.292 58.6733 78.036C59.1053 77.772 59.6133 77.64 60.1973 77.64C60.8133 77.64 61.3373 77.796 61.7693 78.108C62.2013 78.412 62.4813 78.872 62.6093 79.488L62.2733 79.356C62.4573 78.844 62.7813 78.432 63.2453 78.12C63.7173 77.8 64.2813 77.64 64.9373 77.64ZM72.8479 84.06C72.1919 84.06 71.6159 83.924 71.1199 83.652C70.6239 83.372 70.2359 82.992 69.9559 82.512C69.6759 82.024 69.5359 81.468 69.5359 80.844C69.5359 80.22 69.6679 79.668 69.9319 79.188C70.2039 78.708 70.5719 78.332 71.0359 78.06C71.5079 77.78 72.0359 77.64 72.6199 77.64C73.2119 77.64 73.7359 77.776 74.1919 78.048C74.6559 78.312 75.0199 78.688 75.2839 79.176C75.5479 79.656 75.6799 80.212 75.6799 80.844C75.6799 80.884 75.6759 80.928 75.6679 80.976C75.6679 81.016 75.6679 81.06 75.6679 81.108H70.1839V80.472H75.2119L74.8759 80.724C74.8759 80.268 74.7759 79.864 74.5759 79.512C74.3839 79.152 74.1199 78.872 73.7839 78.672C73.4479 78.472 73.0599 78.372 72.6199 78.372C72.1879 78.372 71.7999 78.472 71.4559 78.672C71.1119 78.872 70.8439 79.152 70.6519 79.512C70.4599 79.872 70.3639 80.284 70.3639 80.748V80.88C70.3639 81.36 70.4679 81.784 70.6759 82.152C70.8919 82.512 71.1879 82.796 71.5639 83.004C71.9479 83.204 72.3839 83.304 72.8719 83.304C73.2559 83.304 73.6119 83.236 73.9399 83.1C74.2759 82.964 74.5639 82.756 74.8039 82.476L75.2839 83.028C75.0039 83.364 74.6519 83.62 74.2279 83.796C73.8119 83.972 73.3519 84.06 72.8479 84.06ZM79.4861 84.06C78.9661 84.06 78.4741 83.988 78.0101 83.844C77.5461 83.692 77.1821 83.504 76.9181 83.28L77.3021 82.608C77.5581 82.8 77.8861 82.968 78.2861 83.112C78.6861 83.248 79.1061 83.316 79.5461 83.316C80.1461 83.316 80.5781 83.224 80.8421 83.04C81.1061 82.848 81.2381 82.596 81.2381 82.284C81.2381 82.052 81.1621 81.872 81.0101 81.744C80.8661 81.608 80.6741 81.508 80.4341 81.444C80.1941 81.372 79.9261 81.312 79.6301 81.264C79.3341 81.216 79.0381 81.16 78.7421 81.096C78.4541 81.032 78.1901 80.94 77.9501 80.82C77.7101 80.692 77.5141 80.52 77.3621 80.304C77.2181 80.088 77.1461 79.8 77.1461 79.44C77.1461 79.096 77.2421 78.788 77.4341 78.516C77.6261 78.244 77.9061 78.032 78.2741 77.88C78.6501 77.72 79.1061 77.64 79.6421 77.64C80.0501 77.64 80.4581 77.696 80.8661 77.808C81.2741 77.912 81.6101 78.052 81.8741 78.228L81.5021 78.912C81.2221 78.72 80.9221 78.584 80.6021 78.504C80.2821 78.416 79.9621 78.372 79.6421 78.372C79.0741 78.372 78.6541 78.472 78.3821 78.672C78.1181 78.864 77.9861 79.112 77.9861 79.416C77.9861 79.656 78.0581 79.844 78.2021 79.98C78.3541 80.116 78.5501 80.224 78.7901 80.304C79.0381 80.376 79.3061 80.436 79.5941 80.484C79.8901 80.532 80.1821 80.592 80.4701 80.664C80.7661 80.728 81.0341 80.82 81.2741 80.94C81.5221 81.052 81.7181 81.216 81.8621 81.432C82.0141 81.64 82.0901 81.916 82.0901 82.26C82.0901 82.628 81.9861 82.948 81.7781 83.22C81.5781 83.484 81.2821 83.692 80.8901 83.844C80.5061 83.988 80.0381 84.06 79.4861 84.06ZM87.9815 84V82.608L87.9455 82.38V80.052C87.9455 79.516 87.7935 79.104 87.4895 78.816C87.1935 78.528 86.7495 78.384 86.1575 78.384C85.7495 78.384 85.3615 78.452 84.9935 78.588C84.6255 78.724 84.3135 78.904 84.0575 79.128L83.6735 78.492C83.9935 78.22 84.3775 78.012 84.8255 77.868C85.2735 77.716 85.7455 77.64 86.2415 77.64C87.0575 77.64 87.6855 77.844 88.1255 78.252C88.5735 78.652 88.7975 79.264 88.7975 80.088V84H87.9815ZM85.8095 84.06C85.3375 84.06 84.9255 83.984 84.5735 83.832C84.2295 83.672 83.9655 83.456 83.7815 83.184C83.5975 82.904 83.5055 82.584 83.5055 82.224C83.5055 81.896 83.5815 81.6 83.7335 81.336C83.8935 81.064 84.1495 80.848 84.5015 80.688C84.8615 80.52 85.3415 80.436 85.9415 80.436H88.1135V81.072H85.9655C85.3575 81.072 84.9335 81.18 84.6935 81.396C84.4615 81.612 84.3455 81.88 84.3455 82.2C84.3455 82.56 84.4855 82.848 84.7655 83.064C85.0455 83.28 85.4375 83.388 85.9415 83.388C86.4215 83.388 86.8335 83.28 87.1775 83.064C87.5295 82.84 87.7855 82.52 87.9455 82.104L88.1375 82.692C87.9775 83.108 87.6975 83.44 87.2975 83.688C86.9055 83.936 86.4095 84.06 85.8095 84.06ZM97.5202 84.06C96.9202 84.06 96.3802 83.924 95.9002 83.652C95.4282 83.38 95.0562 83.004 94.7842 82.524C94.5122 82.036 94.3762 81.476 94.3762 80.844C94.3762 80.204 94.5122 79.644 94.7842 79.164C95.0562 78.684 95.4282 78.312 95.9002 78.048C96.3802 77.776 96.9202 77.64 97.5202 77.64C98.0722 77.64 98.5642 77.764 98.9962 78.012C99.4362 78.26 99.7842 78.624 100.04 79.104C100.304 79.576 100.436 80.156 100.436 80.844C100.436 81.524 100.308 82.104 100.052 82.584C99.7962 83.064 99.4482 83.432 99.0082 83.688C98.5762 83.936 98.0802 84.06 97.5202 84.06ZM97.5802 83.304C98.0282 83.304 98.4282 83.204 98.7802 83.004C99.1402 82.796 99.4202 82.508 99.6202 82.14C99.8282 81.764 99.9322 81.332 99.9322 80.844C99.9322 80.348 99.8282 79.916 99.6202 79.548C99.4202 79.18 99.1402 78.896 98.7802 78.696C98.4282 78.488 98.0282 78.384 97.5802 78.384C97.1402 78.384 96.7442 78.488 96.3922 78.696C96.0402 78.896 95.7602 79.18 95.5522 79.548C95.3442 79.916 95.2402 80.348 95.2402 80.844C95.2402 81.332 95.3442 81.764 95.5522 82.14C95.7602 82.508 96.0402 82.796 96.3922 83.004C96.7442 83.204 97.1402 83.304 97.5802 83.304ZM99.9562 84V82.104L100.04 80.832L99.9202 79.56V75.096H100.772V84H99.9562ZM106.201 84.06C105.545 84.06 104.969 83.924 104.473 83.652C103.977 83.372 103.589 82.992 103.309 82.512C103.029 82.024 102.889 81.468 102.889 80.844C102.889 80.22 103.021 79.668 103.285 79.188C103.557 78.708 103.925 78.332 104.389 78.06C104.861 77.78 105.389 77.64 105.973 77.64C106.565 77.64 107.089 77.776 107.545 78.048C108.009 78.312 108.373 78.688 108.637 79.176C108.901 79.656 109.033 80.212 109.033 80.844C109.033 80.884 109.029 80.928 109.021 80.976C109.021 81.016 109.021 81.06 109.021 81.108H103.537V80.472H108.565L108.229 80.724C108.229 80.268 108.129 79.864 107.929 79.512C107.737 79.152 107.473 78.872 107.137 78.672C106.801 78.472 106.413 78.372 105.973 78.372C105.541 78.372 105.153 78.472 104.809 78.672C104.465 78.872 104.197 79.152 104.005 79.512C103.813 79.872 103.717 80.284 103.717 80.748V80.88C103.717 81.36 103.821 81.784 104.029 82.152C104.245 82.512 104.541 82.796 104.917 83.004C105.301 83.204 105.737 83.304 106.225 83.304C106.609 83.304 106.965 83.236 107.293 83.1C107.629 82.964 107.917 82.756 108.157 82.476L108.637 83.028C108.357 83.364 108.005 83.62 107.581 83.796C107.165 83.972 106.705 84.06 106.201 84.06ZM114.668 84V77.7H115.484V79.416L115.4 79.116C115.576 78.636 115.872 78.272 116.288 78.024C116.704 77.768 117.22 77.64 117.836 77.64V78.468C117.804 78.468 117.772 78.468 117.74 78.468C117.708 78.46 117.676 78.456 117.644 78.456C116.98 78.456 116.46 78.66 116.084 79.068C115.708 79.468 115.52 80.04 115.52 80.784V84H114.668ZM122.388 84.06C121.732 84.06 121.156 83.924 120.66 83.652C120.164 83.372 119.776 82.992 119.496 82.512C119.216 82.024 119.076 81.468 119.076 80.844C119.076 80.22 119.208 79.668 119.472 79.188C119.744 78.708 120.112 78.332 120.576 78.06C121.048 77.78 121.576 77.64 122.16 77.64C122.752 77.64 123.276 77.776 123.732 78.048C124.196 78.312 124.56 78.688 124.824 79.176C125.088 79.656 125.22 80.212 125.22 80.844C125.22 80.884 125.216 80.928 125.208 80.976C125.208 81.016 125.208 81.06 125.208 81.108H119.724V80.472H124.752L124.416 80.724C124.416 80.268 124.316 79.864 124.116 79.512C123.924 79.152 123.66 78.872 123.324 78.672C122.988 78.472 122.6 78.372 122.16 78.372C121.728 78.372 121.34 78.472 120.996 78.672C120.652 78.872 120.384 79.152 120.192 79.512C120 79.872 119.904 80.284 119.904 80.748V80.88C119.904 81.36 120.008 81.784 120.216 82.152C120.432 82.512 120.728 82.796 121.104 83.004C121.488 83.204 121.924 83.304 122.412 83.304C122.796 83.304 123.152 83.236 123.48 83.1C123.816 82.964 124.104 82.756 124.344 82.476L124.824 83.028C124.544 83.364 124.192 83.62 123.768 83.796C123.352 83.972 122.892 84.06 122.388 84.06ZM130.022 86.388C129.446 86.388 128.894 86.304 128.366 86.136C127.838 85.968 127.41 85.728 127.082 85.416L127.514 84.768C127.81 85.032 128.174 85.24 128.606 85.392C129.046 85.552 129.51 85.632 129.998 85.632C130.798 85.632 131.386 85.444 131.762 85.068C132.138 84.7 132.326 84.124 132.326 83.34V81.768L132.446 80.688L132.362 79.608V77.7H133.178V83.232C133.178 84.32 132.91 85.116 132.374 85.62C131.846 86.132 131.062 86.388 130.022 86.388ZM129.866 83.76C129.266 83.76 128.726 83.632 128.246 83.376C127.766 83.112 127.386 82.748 127.106 82.284C126.834 81.82 126.698 81.288 126.698 80.688C126.698 80.088 126.834 79.56 127.106 79.104C127.386 78.64 127.766 78.28 128.246 78.024C128.726 77.768 129.266 77.64 129.866 77.64C130.426 77.64 130.93 77.756 131.378 77.988C131.826 78.22 132.182 78.564 132.446 79.02C132.71 79.476 132.842 80.032 132.842 80.688C132.842 81.344 132.71 81.9 132.446 82.356C132.182 82.812 131.826 83.16 131.378 83.4C130.93 83.64 130.426 83.76 129.866 83.76ZM129.95 83.004C130.414 83.004 130.826 82.908 131.186 82.716C131.546 82.516 131.83 82.244 132.038 81.9C132.246 81.548 132.35 81.144 132.35 80.688C132.35 80.232 132.246 79.832 132.038 79.488C131.83 79.144 131.546 78.876 131.186 78.684C130.826 78.484 130.414 78.384 129.95 78.384C129.494 78.384 129.082 78.484 128.714 78.684C128.354 78.876 128.07 79.144 127.862 79.488C127.662 79.832 127.562 80.232 127.562 80.688C127.562 81.144 127.662 81.548 127.862 81.9C128.07 82.244 128.354 82.516 128.714 82.716C129.082 82.908 129.494 83.004 129.95 83.004ZM139.877 84V82.608L139.841 82.38V80.052C139.841 79.516 139.689 79.104 139.385 78.816C139.089 78.528 138.645 78.384 138.053 78.384C137.645 78.384 137.257 78.452 136.889 78.588C136.521 78.724 136.209 78.904 135.953 79.128L135.569 78.492C135.889 78.22 136.273 78.012 136.721 77.868C137.169 77.716 137.641 77.64 138.137 77.64C138.953 77.64 139.581 77.844 140.021 78.252C140.469 78.652 140.693 79.264 140.693 80.088V84H139.877ZM137.705 84.06C137.233 84.06 136.821 83.984 136.469 83.832C136.125 83.672 135.861 83.456 135.677 83.184C135.493 82.904 135.401 82.584 135.401 82.224C135.401 81.896 135.477 81.6 135.629 81.336C135.789 81.064 136.045 80.848 136.397 80.688C136.757 80.52 137.237 80.436 137.837 80.436H140.009V81.072H137.861C137.253 81.072 136.829 81.18 136.589 81.396C136.357 81.612 136.241 81.88 136.241 82.2C136.241 82.56 136.381 82.848 136.661 83.064C136.941 83.28 137.333 83.388 137.837 83.388C138.317 83.388 138.729 83.28 139.073 83.064C139.425 82.84 139.681 82.52 139.841 82.104L140.033 82.692C139.873 83.108 139.593 83.44 139.193 83.688C138.801 83.936 138.305 84.06 137.705 84.06ZM143.387 84V75.096H144.239V84H143.387ZM149.558 84.06C148.95 84.06 148.402 83.924 147.914 83.652C147.434 83.372 147.054 82.992 146.774 82.512C146.494 82.024 146.354 81.468 146.354 80.844C146.354 80.212 146.494 79.656 146.774 79.176C147.054 78.696 147.434 78.32 147.914 78.048C148.394 77.776 148.942 77.64 149.558 77.64C150.182 77.64 150.734 77.776 151.214 78.048C151.702 78.32 152.082 78.696 152.354 79.176C152.634 79.656 152.774 80.212 152.774 80.844C152.774 81.468 152.634 82.024 152.354 82.512C152.082 82.992 151.702 83.372 151.214 83.652C150.726 83.924 150.174 84.06 149.558 84.06ZM149.558 83.304C150.014 83.304 150.418 83.204 150.77 83.004C151.122 82.796 151.398 82.508 151.598 82.14C151.806 81.764 151.91 81.332 151.91 80.844C151.91 80.348 151.806 79.916 151.598 79.548C151.398 79.18 151.122 78.896 150.77 78.696C150.418 78.488 150.018 78.384 149.57 78.384C149.122 78.384 148.722 78.488 148.37 78.696C148.018 78.896 147.738 79.18 147.53 79.548C147.322 79.916 147.218 80.348 147.218 80.844C147.218 81.332 147.322 81.764 147.53 82.14C147.738 82.508 148.018 82.796 148.37 83.004C148.722 83.204 149.118 83.304 149.558 83.304ZM156.585 84.06C156.065 84.06 155.573 83.988 155.109 83.844C154.645 83.692 154.281 83.504 154.017 83.28L154.401 82.608C154.657 82.8 154.985 82.968 155.385 83.112C155.785 83.248 156.205 83.316 156.645 83.316C157.245 83.316 157.677 83.224 157.941 83.04C158.205 82.848 158.337 82.596 158.337 82.284C158.337 82.052 158.261 81.872 158.109 81.744C157.965 81.608 157.773 81.508 157.533 81.444C157.293 81.372 157.025 81.312 156.729 81.264C156.433 81.216 156.137 81.16 155.841 81.096C155.553 81.032 155.289 80.94 155.049 80.82C154.809 80.692 154.613 80.52 154.461 80.304C154.317 80.088 154.245 79.8 154.245 79.44C154.245 79.096 154.341 78.788 154.533 78.516C154.725 78.244 155.005 78.032 155.373 77.88C155.749 77.72 156.205 77.64 156.741 77.64C157.149 77.64 157.557 77.696 157.965 77.808C158.373 77.912 158.709 78.052 158.973 78.228L158.601 78.912C158.321 78.72 158.021 78.584 157.701 78.504C157.381 78.416 157.061 78.372 156.741 78.372C156.173 78.372 155.753 78.472 155.481 78.672C155.217 78.864 155.085 79.112 155.085 79.416C155.085 79.656 155.157 79.844 155.301 79.98C155.453 80.116 155.649 80.224 155.889 80.304C156.137 80.376 156.405 80.436 156.693 80.484C156.989 80.532 157.281 80.592 157.569 80.664C157.865 80.728 158.133 80.82 158.373 80.94C158.621 81.052 158.817 81.216 158.961 81.432C159.113 81.64 159.189 81.916 159.189 82.26C159.189 82.628 159.085 82.948 158.877 83.22C158.677 83.484 158.381 83.692 157.989 83.844C157.605 83.988 157.137 84.06 156.585 84.06Z" fill="#959595"/>
</g>
<defs>
<filter id="filter0_d_149_594" x="0" y="0" width="191" height="122" filterUnits="userSpaceOnUse" color-interpolation-filters="sRGB">
<feFlood flood-opacity="0" result="BackgroundImageFix"/>
<feColorMatrix in="SourceAlpha" type="matrix" values="0 0 0 0 0 0 0 0 0 0 0 0 0 0 0 0 0 0 127 0" result="hardAlpha"/>
<feOffset dy="4"/>
<feGaussianBlur stdDeviation="7"/>
<feComposite in2="hardAlpha" operator="out"/>
<feColorMatrix type="matrix" values="0 0 0 0 0 0 0 0 0 0 0 0 0 0 0 0 0 0 0.15 0"/>
<feBlend mode="normal" in2="BackgroundImageFix" result="effect1_dropShadow_149_594"/>
<feBlend mode="normal" in="SourceGraphic" in2="effect1_dropShadow_149_594" result="shape"/>
</filter>
</defs>
</svg>
